<?xml version="1.0" standalone="no"?><!DOCTYPE svg PUBLIC "-//W3C//DTD SVG 1.1//EN" "http://www.w3.org/Graphics/SVG/1.1/DTD/svg11.dtd"><svg t="1596011441735" class="icon" viewBox="0 0 1024 1024" version="1.1" xmlns="http://www.w3.org/2000/svg" p-id="38840" xmlns:xlink="http://www.w3.org/1999/xlink" width="128" height="128"><defs><style type="text/css"></style></defs><path d="M124.342857 95.085714c-7.314286 0-14.628571 0-21.942857 7.314286-7.314286 7.314286-7.314286 14.628571-7.314286 21.942857v775.314286c0 7.314286 0 14.628571 7.314286 21.942857 7.314286 7.314286 14.628571 7.314286 21.942857 7.314286h709.485714c7.314286 0 14.628571 0 21.942858-7.314286 7.314286-7.314286 7.314286-14.628571 7.314285-21.942857V292.571429L658.285714 95.085714H124.342857zM833.828571 1024H124.342857c-36.571429 0-65.828571-14.628571-87.771428-36.571429-21.942857-21.942857-36.571429-58.514286-36.571429-87.771428V124.342857C0 87.771429 14.628571 58.514286 36.571429 36.571429 58.514286 14.628571 87.771429 0 124.342857 0h577.828572l256 256v643.657143c0 36.571429-14.628571 65.828571-36.571429 87.771428-21.942857 21.942857-51.2 36.571429-87.771429 36.571429z" p-id="38841"></path><path d="M263.314286 373.028571h307.2c21.942857 0 43.885714 21.942857 43.885714 43.885715s-21.942857 43.885714-43.885714 43.885714H263.314286c-21.942857 7.314286-43.885714-14.628571-43.885715-43.885714 0-21.942857 21.942857-43.885714 43.885715-43.885715M263.314286 592.457143h431.542857c21.942857 0 43.885714 21.942857 43.885714 43.885714s-21.942857 43.885714-43.885714 43.885714H263.314286c-21.942857 0-43.885714-21.942857-43.885715-43.885714s21.942857-43.885714 43.885715-43.885714" p-id="38842"></path></svg>