<?xml version="1.0" standalone="no"?><!DOCTYPE svg PUBLIC "-//W3C//DTD SVG 1.1//EN" "http://www.w3.org/Graphics/SVG/1.1/DTD/svg11.dtd"><svg t="1587707135882" class="icon" viewBox="0 0 1024 1024" version="1.1" xmlns="http://www.w3.org/2000/svg" p-id="4808" xmlns:xlink="http://www.w3.org/1999/xlink" width="200" height="200"><defs><style type="text/css"></style></defs><path d="M699.733333 604.16l324.266667 105.813333V204.8c0-112.64-92.16-204.8-204.8-204.8H204.8C92.16 0 0 92.16 0 204.8v614.4c0 112.64 92.16 204.8 204.8 204.8h614.4c95.573333 0 174.08-64.853333 197.973333-150.186667l-375.466666-177.493333s-75.093333 81.92-150.186667 119.466667C413.013333 853.333333 324.266667 873.813333 228.693333 853.333333c-95.573333-23.893333-163.84-81.92-150.186666-194.56s133.12-150.186667 232.106666-150.186666 286.72 64.853333 286.72 64.853333 17.066667-34.133333 30.72-75.093333c13.653333-40.96 20.48-71.68 20.48-71.68H245.76v-40.96h194.56V303.786667H197.973333V256h242.346667V139.946667h126.293333v116.053333h259.413334V307.2h-259.413334v71.68l215.04 3.413333s-3.413333 40.96-30.72 112.64c-27.306667 71.68-51.2 109.226667-51.2 109.226667" fill="#108EE9" p-id="4809"></path><path d="M266.24 566.613333c-119.466667 6.826667-150.186667 61.44-150.186667 109.226667 0 47.786667 30.72 116.053333 170.666667 116.053333s259.413333-139.946667 259.413333-139.946666-160.426667-92.16-279.893333-85.333334" fill="#108EE9" p-id="4810"></path></svg>
