<?xml version="1.0" standalone="no"?><!DOCTYPE svg PUBLIC "-//W3C//DTD SVG 1.1//EN" "http://www.w3.org/Graphics/SVG/1.1/DTD/svg11.dtd"><svg t="1564101743152" class="icon" viewBox="0 0 1024 1024" version="1.1" xmlns="http://www.w3.org/2000/svg" p-id="6543" xmlns:xlink="http://www.w3.org/1999/xlink" width="48" height="48"><defs><style type="text/css"></style></defs><path d="M292.571429 212.114286c-21.942857 0-36.571429-14.628571-36.571429-36.571429v-146.285714c0-14.628571 14.628571-29.257143 36.571429-29.257143s36.571429 14.628571 36.571428 36.571429v146.285714c0 14.628571-21.942857 29.257143-36.571428 29.257143z m343.771428-73.142857c-7.314286 0-7.314286 0 0 0H394.971429c-21.942857 0-36.571429-14.628571-36.571429-36.571429s14.628571-29.257143 29.257143-29.257143h241.371428c21.942857 0 36.571429 14.628571 36.571429 36.571429s-14.628571 29.257143-29.257143 29.257143z m95.085714 73.142857c-21.942857 0-36.571429-14.628571-36.571428-36.571429v-146.285714c0-14.628571 14.628571-29.257143 36.571428-29.257143s36.571429 14.628571 36.571429 36.571429v146.285714c0 14.628571-14.628571 29.257143-36.571429 29.257143z m219.428572 109.714285H65.828571v614.4c0 14.628571 7.314286 21.942857 21.942858 21.942858h841.142857c14.628571 0 21.942857-7.314286 21.942857-21.942858V321.828571zM58.514286 1024c-29.257143 0-58.514286-29.257143-58.514286-58.514286V131.657143c0-29.257143 29.257143-58.514286 58.514286-58.514286h138.971428c21.942857 0 36.571429 14.628571 36.571429 36.571429s-21.942857 29.257143-43.885714 29.257143H87.771429c-14.628571 0-21.942857 7.314286-21.942858 21.942857v87.771428H950.857143V168.228571c0-14.628571-7.314286-21.942857-21.942857-21.942857h-102.4c-21.942857 0-36.571429-14.628571-36.571429-36.571428s21.942857-36.571429 36.571429-36.571429h138.971428c29.257143 0 58.514286 29.257143 58.514286 58.514286v833.828571c0 29.257143-29.257143 58.514286-58.514286 58.514286H58.514286z" p-id="6544"></path><path d="M438.857143 687.542857L343.771429 585.142857l-51.2 58.514286 95.085714 95.085714 51.2 51.2 51.2-51.2L731.428571 490.057143 680.228571 438.857143z" p-id="6545"></path></svg>