<?xml version="1.0" standalone="no"?><!DOCTYPE svg PUBLIC "-//W3C//DTD SVG 1.1//EN" "http://www.w3.org/Graphics/SVG/1.1/DTD/svg11.dtd"><svg t="1583979645930" class="icon" viewBox="0 0 1024 1024" version="1.1" xmlns="http://www.w3.org/2000/svg" p-id="11017" xmlns:xlink="http://www.w3.org/1999/xlink" width="200" height="200"><defs><style type="text/css"></style></defs><path d="M513.706667 64.853333l-265.102223 199.111111H83.057778C36.408889 263.964444 0 300.373333 0 345.884444v333.368889c0 44.942222 36.977778 81.92 83.057778 81.92h165.546666l265.102223 199.111111c36.977778 27.875556 66.56 12.515556 66.56-33.564444V98.417778c0-45.511111-30.151111-60.871111-66.56-33.564445M741.262222 329.386667a51.484444 51.484444 0 0 0-73.386666 0c-20.48 20.48-20.48 52.906667 0 73.386666a154.851556 154.851556 0 0 1 0 219.591111c-20.48 20.48-20.48 52.906667 0 73.386667s52.906667 20.48 73.386666 0a259.925333 259.925333 0 0 0 0-366.364444" p-id="11018"></path><path d="M887.466667 182.613333a51.484444 51.484444 0 0 0-73.386667 0c-20.48 20.48-20.48 52.906667 0 73.386667a362.211556 362.211556 0 0 1 0 512.568889c-20.48 20.48-20.48 52.906667 0 73.386667s52.906667 20.48 73.386667 0c182.044444-182.044444 182.044444-477.297778 0-659.342223" p-id="11019"></path></svg>