<?xml version="1.0" standalone="no"?><!DOCTYPE svg PUBLIC "-//W3C//DTD SVG 1.1//EN" "http://www.w3.org/Graphics/SVG/1.1/DTD/svg11.dtd"><svg class="icon" width="200px" height="199.80px" viewBox="0 0 1025 1024" version="1.1" xmlns="http://www.w3.org/2000/svg"><path d="M314.514286 936.228571H153.6c-43.885714 0-73.142857-43.885714-73.142857-80.457142V160.914286c0-43.885714 29.257143-73.142857 73.142857-73.142857h658.285714c43.885714 0 65.828571 21.942857 65.828572 65.828571v80.457143c0 14.628571 21.942857 36.571429 36.571428 36.571428s36.571429-14.628571 36.571429-36.571428V124.342857c0-73.142857-65.828571-117.028571-138.971429-117.028571H138.971429C65.828571 7.314286 0 73.142857 0 146.285714v738.742857c0 73.142857 65.828571 138.971429 138.971429 138.971429h175.542857c14.628571 0 29.257143-21.942857 29.257143-36.571429s-7.314286-51.2-29.257143-51.2z m256-58.514285c-168.228571 0-307.2-138.971429-307.2-307.2 0-168.228571 138.971429-307.2 307.2-307.2 168.228571 0 307.2 138.971429 307.2 307.2S738.742857 877.714286 570.514286 877.714286z m446.171428 73.142857l-146.285714-146.285714c21.942857-29.257143 36.571429-51.2 51.2-87.771429 21.942857-43.885714 29.257143-95.085714 29.257143-146.285714s-7.314286-102.4-29.257143-146.285715c-21.942857-43.885714-43.885714-87.771429-80.457143-124.342857-36.571429-36.571429-73.142857-65.828571-124.342857-80.457143-43.885714-21.942857-95.085714-29.257143-146.285714-29.257142s-102.4 7.314286-146.285715 29.257142c-43.885714 21.942857-87.771429 43.885714-124.342857 80.457143-36.571429 36.571429-65.828571 73.142857-80.457143 124.342857-21.942857 43.885714-29.257143 95.085714-29.257142 146.285715s7.314286 102.4 29.257142 146.285714c21.942857 43.885714 43.885714 87.771429 80.457143 124.342857 36.571429 36.571429 73.142857 65.828571 124.342857 80.457143 43.885714 21.942857 95.085714 29.257143 146.285715 29.257143s102.4-7.314286 146.285714-29.257143c36.571429-14.628571 58.514286-29.257143 87.771429-51.2l146.285714 138.971429c7.314286 7.314286 29.257143 7.314286 36.571428 7.314285 7.314286 0 21.942857-7.314286 29.257143-14.628571 7.314286-7.314286 14.628571-36.571429 0-51.2z m-226.742857-409.6c-7.314286 0-14.628571 0-21.942857 7.314286-7.314286 7.314286-7.314286 14.628571-7.314286 21.942857 0 102.4-80.457143 182.857143-190.171428 190.171428-14.628571 0-29.257143 14.628571-29.257143 29.257143s14.628571 29.257143 29.257143 29.257143c65.828571 0 131.657143-29.257143 175.542857-73.142857 43.885714-43.885714 73.142857-109.714286 73.142857-175.542857 0-7.314286 0-14.628571-7.314286-21.942857-7.314286-7.314286-14.628571-7.314286-21.942857-7.314286zM468.114286 343.771429c-51.2 29.257143-95.085714 73.142857-124.342857 124.342857-7.314286 14.628571 0 36.571429 14.628571 36.571428 14.628571 7.314286 36.571429 0 43.885714-14.628571 14.628571-43.885714 51.2-73.142857 87.771429-95.085714 7.314286 0 14.628571-7.314286 14.628571-14.628572v-21.942857c-7.314286-14.628571-21.942857-21.942857-36.571428-14.628571z" /></svg>