<?xml version="1.0" standalone="no"?><!DOCTYPE svg PUBLIC "-//W3C//DTD SVG 1.1//EN" "http://www.w3.org/Graphics/SVG/1.1/DTD/svg11.dtd"><svg t="1590041720712" class="icon" viewBox="0 0 1194 1024" version="1.1" xmlns="http://www.w3.org/2000/svg" p-id="18462" xmlns:xlink="http://www.w3.org/1999/xlink" width="149.25" height="128"><defs><style type="text/css"></style></defs><path d="M384 375.466667l-59.733333 170.666666h119.466666l-59.733333-170.666666z m426.666667-51.2h-68.266667v307.2h68.266667c34.133333 0 51.2-8.533333 68.266666-25.6 17.066667-17.066667 17.066667-51.2 17.066667-128v-17.066667c0-68.266667 0-93.866667-17.066667-110.933333-17.066667-17.066667-34.133333-25.6-68.266666-25.6z m8.533333-85.333334c51.2 0 93.866667 17.066667 119.466667 42.666667 51.2 51.2 51.2 119.466667 51.2 187.733333v8.533334c0 68.266667 0 136.533333-51.2 179.2-34.133333 34.133333-76.8 42.666667-119.466667 42.666666h-170.666667V238.933333h170.666667z m-401.066667 0l170.666667 469.333334H494.933333l-25.6-85.333334h-170.666666l-25.6 85.333334H179.2l170.666667-469.333334h68.266666zM85.333333 861.866667h1015.466667V85.333333H85.333333v776.533334zM1169.066667 0c8.533333 0 17.066667 0 17.066666 8.533333 8.533333 8.533333 8.533333 17.066667 8.533334 17.066667v896c0 8.533333 0 17.066667-8.533334 17.066667-8.533333 8.533333-17.066667 8.533333-17.066666 8.533333H25.6c-8.533333 0-17.066667 0-17.066667-8.533333-8.533333 0-8.533333-8.533333-8.533333-8.533334V25.6C0 17.066667 0 8.533333 8.533333 8.533333 17.066667 0 25.6 0 25.6 0h1143.466667z" p-id="18463"></path></svg>