<?xml version="1.0" standalone="no"?><!DOCTYPE svg PUBLIC "-//W3C//DTD SVG 1.1//EN" "http://www.w3.org/Graphics/SVG/1.1/DTD/svg11.dtd"><svg t="1652837702213" class="icon" viewBox="0 0 1024 1024" version="1.1" xmlns="http://www.w3.org/2000/svg" p-id="3183" xmlns:xlink="http://www.w3.org/1999/xlink" width="200" height="200"><defs><style type="text/css">@font-face { font-family: "feedback-iconfont"; src: url("//at.alicdn.com/t/font_1031158_u69w8yhxdu.woff2?t=1630033759944") format("woff2"), url("//at.alicdn.com/t/font_1031158_u69w8yhxdu.woff?t=1630033759944") format("woff"), url("//at.alicdn.com/t/font_1031158_u69w8yhxdu.ttf?t=1630033759944") format("truetype"); }
</style></defs><path d="M384.4 651.4c-17.7 0-32.2 14.4-32.2 32.2 0 17.7 14.4 32.2 32.2 32.2h96.4V780c0 17.7 14.4 32.2 32.2 32.2 17.7 0 32.2-14.4 32.2-32.2v-64.2h96.4c17.7 0 32.2-14.4 32.2-32.2 0-17.7-14.4-32.2-32.2-32.2h-96.4v-64.2h96.4c17.7 0 32.2-14.4 32.2-32.2 0-17.7-14.4-32.2-32.2-32.2h-80l-1.1-1.1 102.9-102.9c12.2-13.3 11.8-33.8-1-46.5-12.7-12.7-33.3-13.2-46.5-1L513 466.2l-102.9-94.9c-13.3-12.2-33.8-11.8-46.5 1-12.7 12.7-13.2 33.3-1 46.5l102.9 102.9-1.1 1.1h-80c-17.7 0-32.2 14.4-32.2 32.2 0 17.7 14.4 32.2 32.2 32.2h96.4v64.2h-96.4z" p-id="3184"></path><path d="M355.1 98.2c-18.5 0-33.5 15-33.5 33.5v115.8c0 18.5 15 33.5 33.5 33.5s33.5-15 33.5-33.5V131.7c-0.1-18.5-15.1-33.5-33.5-33.5zM670.9 98.2c-18.5 0-33.5 15-33.5 33.5v115.8c0 18.5 15 33.5 33.5 33.5s33.5-15 33.5-33.5V131.7c0-18.5-15-33.5-33.5-33.5z" p-id="3185"></path><path d="M797.7 226.3c36.6 0 66.3 29.8 66.3 66.3V798c0 36.6-29.8 66.3-66.3 66.3H228.3c-36.6 0-66.3-29.8-66.3-66.3V292.7c0-36.6 29.8-66.3 66.3-66.3h569.4m0-64.1H228.3c-72 0-130.3 58.3-130.3 130.3V798c0 72 58.3 130.3 130.3 130.3h569.4c72 0 130.3-58.3 130.3-130.3V292.7c0-72-58.4-130.4-130.3-130.4z" p-id="3186"></path></svg>