<?xml version="1.0" standalone="no"?><!DOCTYPE svg PUBLIC "-//W3C//DTD SVG 1.1//EN" "http://www.w3.org/Graphics/SVG/1.1/DTD/svg11.dtd"><svg t="1571822412103" class="icon" viewBox="0 0 1024 1024" version="1.1" xmlns="http://www.w3.org/2000/svg" p-id="8372" xmlns:xlink="http://www.w3.org/1999/xlink" width="48" height="48"><defs><style type="text/css"></style></defs><path d="M665.6 185.6L800 320H665.6V185.6z m-6.4-108.8L646.4 64H224C172.8 64 128 108.8 128 160v704c0 25.6 6.4 51.2 25.6 70.4 19.2 19.2 44.8 25.6 64 25.6h185.6c19.2 0 32-6.4 32-25.6 0-19.2-12.8-25.6-32-25.6h-192c-12.8 0-25.6-12.8-25.6-25.6V147.2c0-12.8 12.8-25.6 25.6-25.6h403.2v211.2c0 12.8 6.4 19.2 12.8 25.6 6.4 6.4 19.2 12.8 25.6 12.8h217.6V448c0 19.2 6.4 32 25.6 32 19.2 0 25.6-12.8 25.6-32V339.2L659.2 76.8z" p-id="8373"></path><path d="M409.6 966.4H224c-25.6 0-51.2-12.8-70.4-32-19.2-19.2-32-44.8-32-70.4v-704c0-57.6 44.8-102.4 102.4-102.4h422.4l19.2 12.8 262.4 262.4V448c0 25.6-12.8 38.4-32 38.4s-32-19.2-32-38.4V377.6H646.4c-12.8 0-25.6-6.4-32-12.8-6.4-6.4-12.8-19.2-12.8-32V128H211.2c-12.8 0-19.2 6.4-19.2 19.2v736c0 6.4 6.4 12.8 19.2 12.8h198.4c25.6 0 38.4 12.8 38.4 38.4s-12.8 32-38.4 32z m-185.6-896c-51.2 0-89.6 38.4-89.6 89.6v704c0 25.6 6.4 44.8 25.6 64 19.2 19.2 38.4 25.6 64 25.6h185.6c6.4 0 25.6 0 25.6-19.2s-19.2-19.2-25.6-19.2H211.2c-19.2 0-32-12.8-32-32V147.2c0-19.2 12.8-32 32-32h409.6v217.6c0 6.4 0 12.8 6.4 19.2 0 12.8 12.8 12.8 19.2 12.8h224V448c0 6.4 0 25.6 19.2 25.6s19.2-19.2 19.2-25.6V339.2L640 70.4H224zM812.8 320H659.2V166.4L812.8 320z m-140.8-12.8h108.8L672 198.4v108.8z" p-id="8374"></path><path d="M883.2 569.6c-6.4-6.4-12.8-6.4-19.2-6.4-6.4 0-12.8 6.4-19.2 6.4l-128 128-128-128c-12.8-12.8-32-12.8-44.8 0-12.8 12.8-12.8 32 0 44.8l128 128-128 128c-12.8 12.8-12.8 32 0 44.8 12.8 12.8 32 12.8 44.8 0l128-128 128 128c6.4 6.4 12.8 6.4 19.2 6.4 12.8 0 25.6-6.4 25.6-19.2 6.4-12.8 0-25.6-6.4-32l-128-128 128-128c6.4-12.8 6.4-32 0-44.8z" p-id="8375"></path><path d="M857.6 928c-12.8 0-19.2-6.4-25.6-12.8l-121.6-121.6-121.6 121.6c-6.4 6.4-12.8 12.8-25.6 12.8s-19.2-6.4-25.6-12.8c-12.8-12.8-12.8-38.4 0-51.2l121.6-121.6-128-121.6c-12.8-12.8-12.8-38.4 0-51.2 12.8-12.8 38.4-12.8 51.2 0l128 121.6L832 569.6c12.8-12.8 38.4-12.8 51.2 0l12.8 6.4h-6.4c6.4 19.2 6.4 32-6.4 44.8l-121.6 121.6 121.6 121.6c12.8 12.8 12.8 25.6 6.4 38.4-6.4 19.2-19.2 25.6-32 25.6z m-147.2-153.6l134.4 134.4c6.4 6.4 12.8 6.4 19.2 6.4 6.4 0 19.2-6.4 19.2-12.8 6.4-6.4 0-19.2-6.4-25.6l-134.4-134.4 6.4-6.4 128-128c6.4-6.4 6.4-25.6 0-32-6.4-6.4-19.2-6.4-32 0l-134.4 134.4L576 576c-12.8-6.4-25.6-6.4-32 0-6.4 6.4-6.4 25.6 0 32l134.4 134.4-134.4 134.4c-6.4 6.4-6.4 25.6 0 32 6.4 6.4 12.8 6.4 19.2 6.4 6.4 0 12.8 0 19.2-6.4l128-134.4z" p-id="8376"></path></svg>