<?xml version="1.0" standalone="no"?><!DOCTYPE svg PUBLIC "-//W3C//DTD SVG 1.1//EN" "http://www.w3.org/Graphics/SVG/1.1/DTD/svg11.dtd"><svg t="1590041742903" class="icon" viewBox="0 0 1024 1024" version="1.1" xmlns="http://www.w3.org/2000/svg" p-id="18960" xmlns:xlink="http://www.w3.org/1999/xlink" width="128" height="128"><defs><style type="text/css"></style></defs><path d="M392.170213 312.283688c0 43.574468-36.312057 79.886525-79.886525 79.886525H159.77305c-43.574468 0-79.886525-36.312057-79.886525-79.886525V152.510638c0-43.574468 36.312057-79.886525 79.886525-79.886525h159.773049c43.574468 0 79.886525 36.312057 79.886525 79.886525v159.77305zM312.283688 0H159.77305C72.624113 0 0 72.624113 0 159.77305v159.773049c0 87.148936 72.624113 159.77305 159.77305 159.77305h159.773049c87.148936 0 159.77305-72.624113 159.77305-159.77305V159.77305C472.056738 72.624113 399.432624 0 312.283688 0z m624.567376 856.964539c0 43.574468-36.312057 79.886525-79.886525 79.886525H697.191489c-43.574468 0-79.886525-36.312057-79.886524-79.886525V697.191489c0-43.574468 36.312057-79.886525 79.886524-79.886524h159.77305c43.574468 0 79.886525 36.312057 79.886525 79.886524v159.77305z m-79.886525-312.283688H697.191489c-87.148936 0-159.77305 72.624113-159.773049 159.77305v159.773049c0 87.148936 72.624113 159.77305 159.773049 159.77305h159.77305c87.148936 0 159.77305-72.624113 159.77305-159.77305V704.453901c0-87.148936-72.624113-159.77305-159.77305-159.77305z m79.886525-232.397163c0 43.574468-36.312057 79.886525-79.886525 79.886525H697.191489c-43.574468 0-79.886525-36.312057-79.886524-79.886525V152.510638C617.304965 108.93617 653.617021 72.624113 697.191489 72.624113h159.77305c43.574468 0 79.886525 36.312057 79.886525 79.886525v159.77305zM856.964539 0H697.191489C610.042553 0 537.41844 72.624113 537.41844 159.77305v159.773049c0 87.148936 72.624113 159.77305 159.773049 159.77305h159.77305c87.148936 0 159.77305-72.624113 159.77305-159.77305V159.77305C1016.737589 72.624113 944.113475 0 856.964539 0zM392.170213 856.964539c0 43.574468-36.312057 79.886525-79.886525 79.886525H159.77305c-43.574468 0-79.886525-36.312057-79.886525-79.886525V697.191489c0-43.574468 36.312057-79.886525 79.886525-79.886524h159.773049c43.574468 0 79.886525 36.312057 79.886525 79.886524v159.77305zM312.283688 544.680851H159.77305C72.624113 544.680851 0 617.304965 0 704.453901v159.773049c0 87.148936 72.624113 159.77305 159.77305 159.77305h159.773049c87.148936 0 159.77305-72.624113 159.77305-159.77305V704.453901c-7.262411-87.148936-79.886525-159.77305-167.035461-159.77305z" p-id="18961"></path></svg>