<?xml version="1.0" standalone="no"?><!DOCTYPE svg PUBLIC "-//W3C//DTD SVG 1.1//EN" "http://www.w3.org/Graphics/SVG/1.1/DTD/svg11.dtd"><svg t="1652263156112" class="icon" viewBox="0 0 1024 1024" version="1.1" xmlns="http://www.w3.org/2000/svg" p-id="3529" width="128" height="128" xmlns:xlink="http://www.w3.org/1999/xlink"><defs><style type="text/css">@font-face { font-family: "feedback-iconfont"; src: url("//at.alicdn.com/t/font_1031158_u69w8yhxdu.woff2?t=1630033759944") format("woff2"), url("//at.alicdn.com/t/font_1031158_u69w8yhxdu.woff?t=1630033759944") format("woff"), url("//at.alicdn.com/t/font_1031158_u69w8yhxdu.ttf?t=1630033759944") format("truetype"); }
</style></defs><path d="M862.8 259.7H161.4v-33c0-35.5 28.8-64.2 64.2-64.2h572.8c35.5 0 64.2 28.8 64.2 64.2v33h0.2z m0 539.9c0 35.5-28.8 64.2-64.2 64.2H225.7c-35.5 0-64.2-28.8-64.2-64.2V324h701.4v475.6h-0.1zM798.4 98.2H225.6c-71 0-128.6 57.6-128.6 125.6v572.9c0 74 57.6 131.6 128.6 131.6h572.8c71 0 128.6-57.6 128.6-131.6v-573c0-68-57.6-125.5-128.6-125.5z" p-id="3530"></path><path d="M383.4 659.7c-17.7 0-32.2 14.4-32.2 32.2 0 17.7 14.4 32.2 32.2 32.2h96.4v64.2c0 17.7 14.4 32.2 32.2 32.2 17.7 0 32.2-14.4 32.2-32.2v-64.2h96.4c17.7 0 32.2-14.4 32.2-32.2 0-17.7-14.4-32.2-32.2-32.2h-96.4v-64.2h96.4c17.7 0 32.2-14.4 32.2-32.2 0-17.7-14.4-32.2-32.2-32.2h-80l-1.1-1.1 102.9-102.9c12.2-13.3 11.8-33.8-1-46.5-12.7-12.7-33.3-13.2-46.5-1L512 482.5 409.1 379.6c-13.3-12.2-33.8-11.8-46.5 1-12.7 12.7-13.2 33.3-1 46.5L464.5 530l-1.1 1.1h-80c-17.7 0-32.2 14.4-32.2 32.2 0 17.7 14.4 32.2 32.2 32.2h96.4v64.2h-96.4z" p-id="3531"></path></svg>