<?xml version="1.0" standalone="no"?><!DOCTYPE svg PUBLIC "-//W3C//DTD SVG 1.1//EN" "http://www.w3.org/Graphics/SVG/1.1/DTD/svg11.dtd"><svg t="1564109595780" class="icon" viewBox="0 0 1024 1024" version="1.1" xmlns="http://www.w3.org/2000/svg" p-id="3874" xmlns:xlink="http://www.w3.org/1999/xlink" width="48" height="48"><defs><style type="text/css"></style></defs><path d="M898.2 639.3c-19.2-17-48.4-25.3-89.1-25.3H805v0.1H703.4c-8.1 0-16-2.9-22.2-8.4-2.4-2.1-4.8-4.3-7-6.7-23.1-23.9-24.5-43.9-24.1-51.5l0.1-5.8v-0.1c0.1-1.9 3.6-12.4 13-28.5 3.6-6.2 7.4-12.4 11.4-18.3 8.4-12.7 17.8-25.8 28-38.6 35.2-42.1 54.5-95.7 54.5-150.9 0-129-103.5-234.9-235.7-241.2h-18c-132.8 6.3-236.8 112.3-236.8 241.2 0.1 55.3 19.6 109.2 54.9 151.6l1.7 2.2c9.3 11.8 18.4 24.3 26.9 37.1 10.9 16.7 17.4 29.3 20.7 36.9 1.9 4.2 2.8 8.9 2.8 13.4v0.6c0.5 7.4-0.8 27-22.8 50.5l-1.4 1.4c-2.2 2.2-4.4 4.4-6.7 6.5-6.2 5.5-14.1 8.4-22.2 8.4H215.1c-40.9 0.1-70.1 8.4-89.3 25.3-19.4 17.2-28.8 43.3-28.8 79.7v155c0 23 9 44.6 25.2 60.9C138.5 951 160 960 182.8 960l658.6-1.4c47.1-0.1 85.6-38.7 85.6-86.1V718.9c-0.1-36.4-9.5-62.5-28.8-79.6zM160.4 876.4v-155c0-20 3-26.3 7.3-29.7 6.1-4.7 18.7-6.7 43-6.8h129.6c6.5 0 13-1.9 18.4-5.4 13.9-8.6 26.8-19 38.4-30.7 40.3-41.6 45.1-82.2 44.2-103.5V543c0.4-21.6-10.3-47.2-35.4-85.4-10.5-15.9-22-31.5-34.1-46.5-25.1-30.3-39-68.7-39.1-108.1 0-93.1 75.8-169.8 172.6-174.4h14.6c96.1 4.6 171.4 81.2 171.4 174.2 0 39.5-14 78-39.4 108.4-11.2 14-22.3 29.2-32.8 44.9-4.8 7.2-9.4 14.6-13.7 22.1-16.2 27.7-23 47.2-22.7 64.8v2c-0.9 21.2 3.9 62 44.1 103.5 11.6 11.8 24.6 22.2 38.4 30.9l0.2 0.1c5.4 3.4 11.8 5.3 18.3 5.3H814c24.8 0 36.7 1.9 42.7 6.8 5.9 4.8 7 13.7 7 29.6v155.4c0 4.6-1.9 9.1-5.1 12.3-3.2 3.2-7.7 5.1-12.3 5.1l-668.7 1.4h-0.1c-4.6 0-9-1.9-12.3-5.1-3.3-3.3-5.1-7.8-5.1-12.4l0.3-1.5z m236.5-131.6h230.3c17.6 0 31.9 14.3 31.9 32s-14.2 32-31.9 32H396.9c-17.6 0-31.9-14.3-31.9-32s14.3-32 31.9-32z m0 0" p-id="3875"></path></svg>