<?xml version="1.0" standalone="no"?><!DOCTYPE svg PUBLIC "-//W3C//DTD SVG 1.1//EN" "http://www.w3.org/Graphics/SVG/1.1/DTD/svg11.dtd"><svg t="1596011278313" class="icon" viewBox="0 0 1024 1024" version="1.1" xmlns="http://www.w3.org/2000/svg" p-id="38282" xmlns:xlink="http://www.w3.org/1999/xlink" width="128" height="128"><defs><style type="text/css"></style></defs><path d="M103.862857 728.649143l380.342857 217.234286 380.342857-217.234286v-434.468572l-380.342857-217.234285-380.342857 217.234285v434.468572z m380.342857 294.034286L36.571429 767.414857v-511.268571l447.634285-256 447.634286 256v511.268571l-447.634286 255.268572z" p-id="38283"></path><path d="M213.577143 290.523429v51.2h62.902857v136.045714h-57.782857v51.2h57.782857v156.525714c-23.405714 7.314286-47.542857 13.897143-71.68 18.285714l13.897143 53.394286c62.902857-17.554286 121.417143-38.765714 177.005714-62.902857v-55.588571c-21.211429 10.24-43.154286 19.748571-65.097143 28.525714v-138.24h49.737143v-51.2h-49.737143v-136.045714h57.782857v-51.2H213.577143z m193.097143 59.245714v57.782857c0 70.217143-8.777143 122.148571-26.331429 154.331429l39.497143 34.377142c24.868571-40.228571 36.571429-103.131429 37.302857-188.708571v-57.782857h-50.468571z m78.262857-98.742857v263.314285c-1.462857 109.714286-38.765714 190.171429-112.64 239.908572l41.691428 36.571428c80.457143-58.514286 122.148571-150.674286 124.342858-276.48v-263.314285h-53.394286z m65.828571 35.108571h185.051429v50.468572h-69.485714v151.405714h60.708571v51.2h-60.708571v180.662857h78.262857v51.2H531.017143v-51.2h81.92v-180.662857h-55.588572v-51.2h55.588572v-151.405714h-62.171429v-50.468572z" p-id="38284"></path></svg>