<?xml version="1.0" standalone="no"?><!DOCTYPE svg PUBLIC "-//W3C//DTD SVG 1.1//EN" "http://www.w3.org/Graphics/SVG/1.1/DTD/svg11.dtd"><svg t="1564994732277" class="icon" viewBox="0 0 1024 1024" version="1.1" xmlns="http://www.w3.org/2000/svg" p-id="7173" xmlns:xlink="http://www.w3.org/1999/xlink" width="128" height="128"><defs><style type="text/css"></style></defs><path d="M836.039111 512.113778h27.306667c6.826667 0 13.653333 0 20.48-2.275556 29.582222-7.964444 40.96-38.684444 32.938666-93.297778-3.413333-25.031111-21.617778-40.96-48.924444-40.96H602.965333v-21.617777c0-58.026667-3.413333-115.939556 0-173.966223 2.275556-55.751111-21.617778-106.951111-68.266666-120.547555-13.653333-3.413333-34.133333-3.413333-45.511111 0-25.031111 9.102222-58.026667 32.995556-64.739556 68.266667-2.332444 11.377778-3.413333 21.617778-3.413333 31.857777v216.064H158.151111c-36.352 0-53.418667 17.066667-53.418667 54.556445v6.826666c0 64.853333 6.826667 71.68 71.68 75.093334 2.275556 0 5.688889 1.137778 9.045334 1.137778-25.031111 129.706667-50.062222 258.275556-77.368889 386.730666-6.826667 31.857778 0 55.751111 27.306667 67.128889h750.592c26.168889-11.377778 34.133333-34.133333 28.444444-64.796444-27.192889-129.763556-52.224-258.275556-78.392889-390.200889zM509.610667 104.96c28.444444 0 46.648889 20.48 46.648889 54.613333 0 65.934222 1.137778 130.844444 1.137777 196.778667v19.342222h-92.16v-216.177778c0-32.995556 17.066667-53.475556 44.373334-54.556444zM147.911111 466.602667v-45.511111h727.836445v45.511111H147.911111zM326.485333 921.6c8.021333-56.888889 15.928889-118.328889 23.893334-177.436444l3.413333-28.444445c1.137778-13.653333-3.413333-25.031111-17.066667-27.306667-15.928889-2.275556-25.031111 5.688889-27.306666 20.48-5.688889 37.546667-10.24 73.955556-15.928889 111.445334-3.356444 32.995556-7.964444 67.128889-12.515556 101.262222H149.105778C178.631111 785.009778 208.213333 648.533333 238.933333 512h542.492445c29.582222 136.533333 59.107556 272.952889 89.884444 409.486222H326.485333z" p-id="7174"></path></svg>