<?xml version="1.0" standalone="no"?><!DOCTYPE svg PUBLIC "-//W3C//DTD SVG 1.1//EN" "http://www.w3.org/Graphics/SVG/1.1/DTD/svg11.dtd"><svg t="1566459871368" class="icon" viewBox="0 0 1024 1024" version="1.1" xmlns="http://www.w3.org/2000/svg" p-id="5997" xmlns:xlink="http://www.w3.org/1999/xlink" width="128" height="128"><defs><style type="text/css"></style></defs><path d="M414.368201 938.723024c-2.557828 0-5.115657 0-7.673485-2.557828-194.394959-46.040911-335.075521-225.0889-332.517692-429.715172 2.557828-240.43587 196.952787-434.830829 434.830828-432.273 225.0889 2.557828 409.252545 179.047988 424.599515 404.136887v7.673486c2.557828 12.789142 12.789142 25.578284 25.578284 30.693941 2.557828 0 5.115657 0 7.673486 2.557828H974.532622c20.462627-2.557828 35.809598-17.904799 35.809597-38.367426v-5.115657c-2.557828-53.714396-15.34697-107.428793-35.809597-156.027533-25.578284-61.387882-61.387882-117.660107-107.428793-163.701017-46.040911-48.59874-99.755308-84.408337-158.585361-112.54445C647.130586 15.34697 580.627048 2.557828 511.565681 0c-69.061367 0-135.564905 12.789142-196.952787 38.367426-61.387882 25.578284-115.102278 61.387882-161.14319 107.428793C107.428793 191.83713 69.061367 245.551527 43.483083 306.939408 15.34697 370.885119 2.557828 437.388657 2.557828 506.450024c-2.557828 125.333592 43.483083 245.551527 122.775764 340.191178 71.619195 81.850509 163.701018 138.122734 268.571982 163.701017 2.557828 0 5.115657 0 7.673485 2.557829h5.115657c20.462627 0 38.367426-15.34697 38.367426-38.367426-5.115657-15.34697-15.34697-30.693941-30.693941-35.809598m593.41619-276.245467L442.504314 327.402036c-20.462627-12.789142-33.251769-2.557828-30.693941 20.462627L532.028308 997.553077c5.115657 23.020456 20.462627 28.136112 33.251769 7.673486 0 0 76.734852-109.986621 140.680562-176.49016l120.217935 179.047988c10.231314 17.904799 35.809598 20.462627 51.156568 10.231314l40.925255-28.136113c17.904799-12.789142 20.462627-35.809598 10.231314-51.156568l-120.217935-179.047988c79.292681-33.251769 194.394959-61.387882 194.394958-61.387882 25.578284-7.673485 28.136112-23.020456 5.115657-35.809597" p-id="5998"></path></svg>