<?xml version="1.0" standalone="no"?><!DOCTYPE svg PUBLIC "-//W3C//DTD SVG 1.1//EN" "http://www.w3.org/Graphics/SVG/1.1/DTD/svg11.dtd"><svg t="1566526557445" class="icon" viewBox="0 0 1024 1024" version="1.1" xmlns="http://www.w3.org/2000/svg" p-id="6149" xmlns:xlink="http://www.w3.org/1999/xlink" width="128" height="128"><defs><style type="text/css"></style></defs><path d="M512 958.171429c241.371429 0 446.171429-197.485714 446.171429-446.171429 0-241.371429-204.8-438.857143-446.171429-438.857143C263.314286 73.142857 65.828571 270.628571 65.828571 512c0 248.685714 197.485714 446.171429 446.171429 446.171429m0 65.828571c-285.257143 0-512-226.742857-512-512s226.742857-512 512-512 512 226.742857 512 512-226.742857 512-512 512" p-id="6150"></path><path d="M680.228571 636.342857c14.628571 14.628571 14.628571 36.571429 0 51.2-14.628571 14.628571-36.571429 14.628571-51.2 0L519.314286 570.514286 402.285714 680.228571c-14.628571 14.628571-36.571429 14.628571-51.2 0-14.628571-14.628571-14.628571-36.571429 0-51.2L468.114286 512 358.4 409.6c-14.628571-14.628571-14.628571-36.571429 0-51.2 14.628571-14.628571 36.571429-14.628571 51.2 0l117.028571 117.028571 117.028572-117.028571c14.628571-14.628571 36.571429-14.628571 51.2 0 14.628571 14.628571 14.628571 36.571429 0 51.2L570.514286 519.314286l109.714285 117.028571z" p-id="6151"></path></svg>