<?xml version="1.0" standalone="no"?><!DOCTYPE svg PUBLIC "-//W3C//DTD SVG 1.1//EN" "http://www.w3.org/Graphics/SVG/1.1/DTD/svg11.dtd"><svg t="1573552713714" class="icon" viewBox="0 0 1028 1024" version="1.1" xmlns="http://www.w3.org/2000/svg" p-id="11355" xmlns:xlink="http://www.w3.org/1999/xlink" width="48.1875" height="48"><defs><style type="text/css"></style></defs><path d="M605.704246 509.751098l377.81552 377.81552c17.991215 17.991215 23.988287 41.979502 17.991215 65.967789-5.997072 23.988287-23.988287 41.979502-47.976574 47.976574-23.988287 5.997072-47.976574 0-65.967789-17.991215l-377.81552-377.81552L119.941435 1001.510981c-29.985359 29.985359-71.964861 29.985359-95.953148 0-29.985359-29.985359-29.985359-71.964861 0-95.953148L419.795022 509.751098 41.979502 131.935578C23.988287 113.944363 17.991215 89.956076 23.988287 65.967789 29.985359 41.979502 47.976574 23.988287 71.964861 17.991215c23.988287-5.997072 47.976574 0 65.967789 17.991215l377.81552 377.81552L905.557833 23.988287c29.985359-29.985359 71.964861-29.985359 95.953148 0 29.985359 29.985359 29.985359 71.964861 0 95.953148l-395.806735 389.809663z" p-id="11356"></path></svg>