<?xml version="1.0" encoding="UTF-8" standalone="no"?>
<svg width="44px" height="44px" viewBox="0 0 44 44" version="1.1" xmlns="http://www.w3.org/2000/svg" xmlns:xlink="http://www.w3.org/1999/xlink">
    <!-- Generator: Sketch 49.3 (51167) - http://www.bohemiancoding.com/sketch -->
    <title>关闭</title>
    <desc>Created with Sketch.</desc>
    <defs></defs>
    <g id="MI二期" stroke="none" stroke-width="1" fill="none" fill-rule="evenodd">
        <g id="模板创建-显示图片" transform="translate(-1111.000000, -109.000000)" fill="#FFFFFF">
            <g id="关闭" transform="translate(1111.000000, 109.000000)">
                <path d="M22,43.25 C10.2639491,43.25 0.75,33.7360509 0.75,22 C0.75,10.2639491 10.2639491,0.75 22,0.75 C33.7360509,0.75 43.25,10.2639491 43.25,22 C43.25,33.7360509 33.7360509,43.25 22,43.25 Z M22,40.75 C32.3553391,40.75 40.75,32.3553391 40.75,22 C40.75,11.6446609 32.3553391,3.25 22,3.25 C11.6446609,3.25 3.25,11.6446609 3.25,22 C3.25,32.3553391 11.6446609,40.75 22,40.75 Z" id="Oval-9" fill-rule="nonzero"></path>
                <rect id="Rectangle-5" transform="translate(22.176777, 22.176777) rotate(-315.000000) translate(-22.176777, -22.176777) " x="20.9267767" y="12.1767767" width="2.5" height="20" rx="1"></rect>
                <rect id="Rectangle-5-Copy" transform="translate(21.823223, 22.176777) rotate(-315.000000) translate(-21.823223, -22.176777) " x="11.8232233" y="20.9267767" width="20" height="2.5" rx="1"></rect>
            </g>
        </g>
    </g>
</svg>