<?xml version="1.0" standalone="no"?><!DOCTYPE svg PUBLIC "-//W3C//DTD SVG 1.1//EN" "http://www.w3.org/Graphics/SVG/1.1/DTD/svg11.dtd"><svg t="1566456089499" class="icon" viewBox="0 0 1024 1024" version="1.1" xmlns="http://www.w3.org/2000/svg" p-id="6124" xmlns:xlink="http://www.w3.org/1999/xlink" width="128" height="128"><defs><style type="text/css"></style></defs><path d="M907.946667 737.28h-75.093334V204.8c0-20.48-13.653333-34.133333-34.133333-34.133333H314.026667V95.573333h600.746666v641.706667z m-791.893334 136.533333V252.586667h621.226667v621.226666H116.053333z m450.56-197.973333c6.826667 0 6.826667-6.826667 6.826667-6.826667V614.4c0-6.826667-6.826667-6.826667-6.826667-6.826667H273.066667c-6.826667 0-6.826667 6.826667-6.826667 6.826667v54.613333c0 6.826667 6.826667 6.826667 6.826667 6.826667h293.546666z m0-184.32c6.826667 0 6.826667-6.826667 6.826667-6.826667v-54.613333c0-6.826667-6.826667-6.826667-6.826667-6.826667H273.066667c-6.826667 0-6.826667 6.826667-6.826667 6.826667v54.613333c0 6.826667 6.826667 6.826667 6.826667 6.826667h293.546666zM955.733333 0H259.413333c-20.48 0-34.133333 13.653333-34.133333 34.133333v122.88H75.093333c-20.48 0-34.133333 13.653333-34.133333 34.133334v716.8c0 20.48 13.653333 34.133333 34.133333 34.133333h716.8c20.48 0 34.133333-13.653333 34.133334-34.133333v-95.573334h122.88c20.48 0 34.133333-13.653333 34.133333-34.133333V27.306667c6.826667-6.826667-6.826667-27.306667-27.306667-27.306667z" p-id="6125"></path></svg>