<?xml version="1.0" standalone="no"?><!DOCTYPE svg PUBLIC "-//W3C//DTD SVG 1.1//EN" "http://www.w3.org/Graphics/SVG/1.1/DTD/svg11.dtd"><svg class="icon" width="200px" height="171.52px" viewBox="0 0 1194 1024" version="1.1" xmlns="http://www.w3.org/2000/svg"><path d="M384 708.266667h110.933333V273.066667H384v435.2z m699.733333-59.733334c-51.2-25.6-110.933333-68.266667-110.933333-162.133333 0-93.866667 59.733333-136.533333 110.933333-162.133333V110.933333H102.4v213.333334c51.2 25.6 110.933333 76.8 110.933333 162.133333 0 85.333333-51.2 136.533333-110.933333 162.133333v213.333334h981.333333V648.533333zM1194.666667 597.333333v324.266667c0 17.066667-8.533333 25.6-17.066667 34.133333-8.533333 8.533333-25.6 17.066667-34.133333 17.066667H59.733333c-17.066667 0-25.6-8.533333-42.666666-17.066667-8.533333-8.533333-17.066667-25.6-17.066667-34.133333V597.333333c42.666667 0 76.8-17.066667 93.866667-51.2 17.066667-34.133333 17.066667-76.8 0-110.933333S42.666667 384 0 384V59.733333C0 42.666667 8.533333 34.133333 17.066667 17.066667S42.666667 0 59.733333 0h1083.733334c17.066667 0 25.6 8.533333 34.133333 17.066667s17.066667 25.6 17.066667 42.666666v324.266667c-42.666667 0-76.8 17.066667-93.866667 51.2-17.066667 34.133333-17.066667 76.8 0 110.933333s51.2 51.2 93.866667 51.2z" /></svg>