<?xml version="1.0" standalone="no"?><!DOCTYPE svg PUBLIC "-//W3C//DTD SVG 1.1//EN" "http://www.w3.org/Graphics/SVG/1.1/DTD/svg11.dtd"><svg class="icon" width="200px" height="200.00px" viewBox="0 0 1024 1024" version="1.1" xmlns="http://www.w3.org/2000/svg"><path d="M950.244914 768.164831c0 7.309576-7.309576 14.619153-7.309577 14.619152L518.979914 950.904237H511.670338h-7.309576-7.309576l-416.645847-168.120254c-7.309576 0-7.309576-7.309576-7.309576-14.619152V88.374239c0-7.309576 0-7.309576 7.309576-14.619153h14.619152L511.670338 241.87534 928.316185 73.755086h14.619152c7.309576 0 7.309576 7.309576 7.309577 14.619153v679.790592zM986.792795 15.278476c-21.928729-14.619153-58.47661-21.928729-80.405339-7.309576L511.670338 161.470001 124.262796 7.9689C95.024491-6.650252 65.786186 0.659324 36.547881 15.278476c-21.928729 14.619153-36.547881 43.857458-36.547881 73.095763v672.481016c0 36.547881 21.928729 73.095763 58.47661 80.405339l423.955423 168.120253c7.309576 14.619153 7.309576 14.619153 14.619153 14.619153h29.238305s7.309576 0 14.619152-7.309576l423.955423-168.120254c36.547881-14.619153 58.47661-43.857458 58.47661-80.405339V88.374239c0-29.238305-14.619153-58.47661-36.547881-73.095763z"  /><path d="M555.527796 731.61695L804.053388 636.592458v-65.786186L555.527796 665.830763v65.786187z m0-270.454322L804.053388 366.138137V293.042374L555.527796 395.376442v65.786186zM146.191525 563.496696v65.786186L394.717118 731.61695v-65.786187L146.191525 563.496696zM146.191525 293.042374v65.786186l248.525593 95.024492v-65.786187L146.191525 293.042374z"  /></svg>