<?xml version="1.0" standalone="no"?><!DOCTYPE svg PUBLIC "-//W3C//DTD SVG 1.1//EN" "http://www.w3.org/Graphics/SVG/1.1/DTD/svg11.dtd"><svg t="1561794704291" class="icon" viewBox="0 0 1024 1024" version="1.1" xmlns="http://www.w3.org/2000/svg" p-id="2485" xmlns:xlink="http://www.w3.org/1999/xlink" width="32" height="32"><defs><style type="text/css"></style></defs><path d="M950.244914 768.164831c0 7.309576-7.309576 14.619153-7.309577 14.619152L518.979914 950.904237H511.670338h-7.309576-7.309576l-416.645847-168.120254c-7.309576 0-7.309576-7.309576-7.309576-14.619152V88.374239c0-7.309576 0-7.309576 7.309576-14.619153h14.619152L511.670338 241.87534 928.316185 73.755086h14.619152c7.309576 0 7.309576 7.309576 7.309577 14.619153v679.790592zM986.792795 15.278476c-21.928729-14.619153-58.47661-21.928729-80.405339-7.309576L511.670338 161.470001 124.262796 7.9689C95.024491-6.650252 65.786186 0.659324 36.547881 15.278476c-21.928729 21.928729-36.547881 43.857458-36.547881 73.095763v672.481016c0 36.547881 21.928729 73.095763 58.47661 80.405339l423.955423 168.120253c7.309576 14.619153 7.309576 14.619153 14.619153 14.619153h29.238305s7.309576 0 14.619152-7.309576l423.955423-168.120254c36.547881-14.619153 58.47661-43.857458 58.47661-80.405339V88.374239c0-29.238305-14.619153-51.167034-36.547881-73.095763z" p-id="2486"></path><path d="M592.075677 738.926526l263.144745-102.334068v-73.095762L592.075677 665.830763v73.095763z m0-277.763898l263.144745-102.334068v-73.095762L592.075677 388.066865v73.095763zM168.120254 563.496696v73.095762l263.144745 102.334068v-73.095763L168.120254 563.496696z m0-277.763898v73.095762l263.144745 102.334068v-73.095763L168.120254 285.732798z" p-id="2487"></path></svg>