<?xml version="1.0" standalone="no"?><!DOCTYPE svg PUBLIC "-//W3C//DTD SVG 1.1//EN"
    "http://www.w3.org/Graphics/SVG/1.1/DTD/svg11.dtd">
<svg t="1579056598488" class="icon" viewBox="0 0 1024 1024" version="1.1" xmlns="http://www.w3.org/2000/svg"
     p-id="10255" xmlns:xlink="http://www.w3.org/1999/xlink" width="48" height="48">
    <defs>
        <style type="text/css"></style>
    </defs>
    <path
        d="M994.86469639 870.3338766c-5.11732273-5.20077515-11.75882189-7.94680928-19.20649473-7.94680927h-31.75889705V423.58682386c0-46.21021745-40.86143386-85.24830838-89.23037284-85.24830966H707.59233376V135.46734644c0-40.88347726-31.98720701-76.13317573-72.86123673-83.72413326a89.78461904 89.78461904 0 0 0-16.36913741-1.52889889H181.84168027c-5.57552067 0-11.04711969 0.54164906-16.36913612 1.52889889-40.86930595 7.59095882-72.86281217 42.84065601-72.86281217 83.72413326v726.92129504H54.59510559c-4.75674851 0-9.48043194 1.23445616-13.85613828 3.31917543C28.88882222 871.35261738 19.65087153 883.4452463 19.65087153 895.72839762c0 17.12650054 16.95487325 33.31928559 34.90014596 33.34605276h914.8971145c17.61776359-0.02676717 34.90014596-16.52501794 34.90014596-33.28779466 0.07557903-9.97169497-3.38215729-19.24900867-9.48358156-25.45277912z m-287.2739368-127.86222861V405.02274892h147.07659673c6.12976558 0 13.66089215 6.86823493 13.66089214 12.44375561v438.89314342H707.59075959v-113.88799996zM637.6141179 135.46734644v726.92129504H168.17921396V135.46734644c0-5.14094159 7.07135317-12.45005354 13.66246631-12.45005353l442.48629103-0.00472378 0.49283848-0.01732093c6.21321799 0 12.79330813 6.41161246 12.79330812 12.47209824z m0 0"
        p-id="10256"></path>
    <path
        d="M509.77235854 601.1437734H297.15308329c-17.63508321 0-34.94265859 16.51242208-34.94265859 33.34447861 0 19.65682059 12.00602821 39.55927205 34.94265859 39.55927204h212.05558151c17.63035943 0 34.93793483-16.51399625 34.93793483-33.29566804 0.0692811-9.91343686-4.93309957-21.1888678-13.04051446-29.43012109-6.46042432-6.56434466-14.03721183-10.17796282-21.33372663-10.17796152z m0-327.92438034H297.15308329c-17.63508321 0-34.94265859 16.51872001-34.94265859 33.33975612 0 17.14067186 16.98164042 33.34605407 34.94265859 33.34605277h212.05558151c17.63035943 0 34.93793483-16.52029417 34.93793483-33.28621921 0.0582594-7.8287176-3.53961328-16.00541229-9.87249709-22.44064488-6.84461738-6.9642832-15.77710103-10.95894481-24.501744-10.9589448z m0 181.09498865H297.15308329c-17.63508321 0-34.94265859 16.51399625-34.94265859 33.33975612 0 17.13594809 16.98164042 33.34605407 34.94265859 33.34605277h212.05558151c17.63035943 0 34.93793483-16.51399625 34.93793483-33.2862205 0.0582594-7.82714346-3.54433705-16.00541229-9.87249709-22.44379191-6.84461738-6.96743282-15.77710103-10.95579519-24.501744-10.95579648z m0 0"
        p-id="10257"></path>
</svg>
