<?xml version="1.0" standalone="no"?><!DOCTYPE svg PUBLIC "-//W3C//DTD SVG 1.1//EN" "http://www.w3.org/Graphics/SVG/1.1/DTD/svg11.dtd"><svg t="1653299087844" class="icon" viewBox="0 0 1024 1024" version="1.1" xmlns="http://www.w3.org/2000/svg" p-id="1459" width="128" height="128" xmlns:xlink="http://www.w3.org/1999/xlink"><defs><style type="text/css">@font-face { font-family: "feedback-iconfont"; src: url("//at.alicdn.com/t/font_1031158_u69w8yhxdu.woff2?t=1630033759944") format("woff2"), url("//at.alicdn.com/t/font_1031158_u69w8yhxdu.woff?t=1630033759944") format("woff"), url("//at.alicdn.com/t/font_1031158_u69w8yhxdu.ttf?t=1630033759944") format("truetype"); }
</style></defs><path d="M756.5 98.2h-489c-93.4 0-169.3 75.9-169.3 169.3v489c0 93.4 75.9 169.3 169.3 169.3h489c93.4 0 169.3-75.9 169.4-169.3v-489c-0.1-93.4-76.1-169.3-169.4-169.3z m-489 763.6c-58.1 0-105.3-47.2-105.3-105.3v-489c0-58.1 47.2-105.3 105.3-105.3h489c58.1 0 105.3 47.2 105.3 105.3v488.9c-0.1 58.1-47.3 105.4-105.4 105.4H267.5z" p-id="1460"></path><path d="M510.5 334.1H336.8c-17.7 0-32 14.3-32 32s14.3 32 32 32h173.7c17.7 0 32-14.3 32-32s-14.3-32-32-32zM687.2 480H336.8c-17.7 0-32 14.3-32 32s14.3 32 32 32h350.3c17.7 0 32-14.3 32-32 0.1-17.7-14.3-32-31.9-32zM687.2 625.9H336.8c-17.7 0-32 14.3-32 32s14.3 32 32 32h350.3c17.7 0 32-14.3 32-32s-14.3-32-31.9-32z" p-id="1461"></path></svg>