<?xml version="1.0" standalone="no"?><!DOCTYPE svg PUBLIC "-//W3C//DTD SVG 1.1//EN" "http://www.w3.org/Graphics/SVG/1.1/DTD/svg11.dtd"><svg t="1566456085607" class="icon" viewBox="0 0 1024 1024" version="1.1" xmlns="http://www.w3.org/2000/svg" p-id="5997" xmlns:xlink="http://www.w3.org/1999/xlink" width="128" height="128"><defs><style type="text/css"></style></defs><path d="M262.4 876.8c-32 0-64-38.4-64-89.6V268.8h576v518.4c0 51.2-32 89.6-64 89.6h-448z m128-697.6c0-51.2 44.8-89.6 96-89.6s96 38.4 102.4 89.6H390.4zM486.4 0c-102.4 0-192 76.8-192 172.8H51.2c-32 6.4-51.2 25.6-51.2 51.2s19.2 44.8 51.2 44.8h57.6v518.4c0 96 70.4 179.2 160 179.2H704c89.6 0 160-76.8 160-179.2V268.8h51.2c25.6 0 51.2-19.2 51.2-44.8 0-25.6-19.2-44.8-51.2-44.8h-230.4C678.4 76.8 595.2 0 486.4 0z" p-id="5998"></path><path d="M614.4 755.2c19.2 0 38.4-19.2 38.4-44.8V448c0-25.6-19.2-44.8-38.4-44.8s-32 19.2-32 44.8v262.4c0 25.6 12.8 44.8 32 44.8z m-140.8 0c19.2 0 38.4-19.2 38.4-44.8V448c0-25.6-19.2-44.8-38.4-44.8s-32 19.2-32 44.8v262.4c0 25.6 12.8 44.8 32 44.8z m-128 0c19.2 0 38.4-19.2 38.4-44.8V448c0-25.6-19.2-44.8-38.4-44.8-25.6 0-38.4 19.2-38.4 44.8v262.4c0 25.6 12.8 44.8 38.4 44.8z" p-id="5999"></path></svg>