<?xml version="1.0" standalone="no"?><!DOCTYPE svg PUBLIC "-//W3C//DTD SVG 1.1//EN" "http://www.w3.org/Graphics/SVG/1.1/DTD/svg11.dtd"><svg t="1571735164358" class="icon" viewBox="0 0 1024 1024" version="1.1" xmlns="http://www.w3.org/2000/svg" p-id="10403" xmlns:xlink="http://www.w3.org/1999/xlink" width="48" height="48"><defs><style type="text/css"></style></defs><path d="M797.257143 277.942857H548.571429c-7.314286-21.942857-14.628571-43.885714-21.942858-58.514286l-51.2 7.314286c7.314286 14.628571 14.628571 29.257143 21.942858 51.2H241.371429v131.657143H292.571429V321.828571h460.8v95.085715h43.885714V277.942857zM497.371429 621.714286v131.657143H336.457143V643.657143H292.571429v175.542857h43.885714v-29.257143h373.028571v29.257143h43.885715V643.657143h-43.885715v109.714286H541.257143V621.714286h-43.885714z m-7.314286-292.571429l-36.571429 21.942857c29.257143 29.257143 51.2 58.514286 65.828572 80.457143l36.571428-21.942857c-14.628571-21.942857-36.571429-43.885714-65.828571-80.457143z m168.228571 21.942857c-58.514286 65.828571-131.657143 117.028571-212.114285 160.914286V402.285714h-51.2v131.657143c-51.2 29.257143-109.714286 51.2-175.542858 65.828572l21.942858 36.571428c58.514286-14.628571 117.028571-36.571429 168.228571-58.514286 7.314286 14.628571 29.257143 21.942857 51.2 21.942858h153.6c29.257143 0 43.885714-7.314286 58.514286-14.628572 14.628571-14.628571 21.942857-43.885714 29.257143-95.085714l-51.2-7.314286c0 36.571429-7.314286 65.828571-14.628572 73.142857-7.314286 0-21.942857 7.314286-36.571428 7.314286H475.428571c-7.314286 0-14.628571 0-14.628571-7.314286C548.571429 512 629.028571 446.171429 687.542857 373.028571L658.285714 351.085714z m58.514286 65.828572l-36.571429 21.942857c43.885714 51.2 73.142857 95.085714 102.4 138.971428l36.571429-29.257142c-29.257143-36.571429-58.514286-80.457143-102.4-131.657143z m-380.342857-36.571429l43.885714 7.314286c-21.942857 58.514286-51.2 109.714286-87.771428 153.6l-36.571429-21.942857c36.571429-43.885714 58.514286-87.771429 80.457143-138.971429z" fill="#FA4D59" p-id="10404"></path><path d="M512 1024c-285.257143 0-512-226.742857-512-512s226.742857-512 512-512 512 226.742857 512 512-226.742857 512-512 512zM512 73.142857C270.628571 73.142857 73.142857 270.628571 73.142857 512s197.485714 438.857143 438.857143 438.857143 438.857143-197.485714 438.857143-438.857143-197.485714-438.857143-438.857143-438.857143z" fill="#FA4D59" p-id="10405"></path></svg>