<?xml version="1.0" standalone="no"?><!DOCTYPE svg PUBLIC "-//W3C//DTD SVG 1.1//EN" "http://www.w3.org/Graphics/SVG/1.1/DTD/svg11.dtd"><svg t="1568181721004" class="icon" viewBox="0 0 1024 1024" version="1.1" xmlns="http://www.w3.org/2000/svg" p-id="7379" xmlns:xlink="http://www.w3.org/1999/xlink" width="48" height="48"><defs><style type="text/css"></style></defs><path d="M324.266667 443.73333356L136.533333 255.99999956 284.444444 108.08888856l187.733334 187.733334L512 255.99999956 284.444444 28.44444456 56.888889 255.99999956l227.555555 227.555556zM699.733333 523.37777756l187.733334 187.733334-147.911111 147.911111-187.733334-187.733334-39.822222 39.822223 227.555556 227.555555 227.555555-227.555555-227.555555-227.555556z"  p-id="7380"></path><path d="M170.382222 298.78044456l104.561778-104.561778 40.220444 40.220445-104.561777 104.561777zM281.941333 415.57333356l-40.220444-40.220445L346.339556 270.79111156l40.220444 40.220444zM579.982222 708.38044456l104.561778-104.561778 40.220444 40.220445-104.561777 104.561777zM653.937778 782.33599956l104.561778-104.561777 40.220444 40.220444-104.561778 104.561778z"  p-id="7381"></path><path d="M739.555556 108.08888856L887.466667 255.99999956 284.444444 859.02222256 136.533333 711.11111156 739.555556 108.08888856M739.555556 28.44444456L56.888889 711.11111156l227.555555 227.555555L967.111111 255.99999956l-227.555555-227.555555z"  p-id="7382"></path><path d="M56.888889 711.11111156h56.888889v227.555555H56.888889z"  p-id="7383"></path><path d="M56.888889 881.77777756h227.555555v56.888889H56.888889z"  p-id="7384"></path></svg>
