<?xml version="1.0" standalone="no"?><!DOCTYPE svg PUBLIC "-//W3C//DTD SVG 1.1//EN" "http://www.w3.org/Graphics/SVG/1.1/DTD/svg11.dtd"><svg t="1562227477205" class="icon" viewBox="0 0 1024 1024" version="1.1" xmlns="http://www.w3.org/2000/svg" p-id="2708" xmlns:xlink="http://www.w3.org/1999/xlink" width="48" height="48"><defs><style type="text/css"></style></defs><path d="M845.43260445 793.95043555L230.04956445 178.53098667A434.90417778 434.90417778 0 0 1 512 75.12974222c241.28170667 0 436.90666667 195.55214222 436.90666667 436.90666667 0 107.47904-38.95751111 205.81944889-103.47406222 281.91402666M75.09333333 512a434.72213333 434.72213333 0 0 1 103.47406222-281.98684445l615.38304 615.4194489A434.61290667 434.61290667 0 0 1 512 948.90666667C270.71829333 948.90666667 75.09333333 753.28170667 75.09333333 512M512 2.27555555C230.92337778 2.27555555 2.27555555 230.92337778 2.27555555 512s228.64782222 509.72444445 509.72444445 509.72444445 509.72444445-228.64782222 509.72444445-509.72444445S793.07662222 2.27555555 512 2.27555555" p-id="2709"></path></svg>
