<?xml version="1.0" standalone="no"?><!DOCTYPE svg PUBLIC "-//W3C//DTD SVG 1.1//EN" "http://www.w3.org/Graphics/SVG/1.1/DTD/svg11.dtd"><svg t="1562555614968" class="icon" viewBox="0 0 1024 1024" version="1.1" xmlns="http://www.w3.org/2000/svg" p-id="5549" xmlns:xlink="http://www.w3.org/1999/xlink" width="128" height="128"><defs><style type="text/css"></style></defs><path d="M512 1024C230.4 1024 0 793.6 0 512S230.4 0 512 0s512 230.4 512 512-230.4 512-512 512z m0-987.428571C248.685714 36.571429 36.571429 248.685714 36.571429 512s212.114286 475.428571 475.428571 475.428571 475.428571-212.114286 475.428571-475.428571S775.314286 36.571429 512 36.571429z" fill="#25B864" p-id="5550"></path><path d="M672.914286 376.685714l-215.771429 215.771429-106.057143-106.057143c-14.628571-14.628571-32.914286-14.628571-47.542857 0s-14.628571 32.914286 0 47.542857l131.657143 131.657143c14.628571 10.971429 32.914286 10.971429 47.542857 0l237.714286-237.714286c14.628571-14.628571 14.628571-32.914286 0-47.542857-10.971429-18.285714-32.914286-18.285714-47.542857-3.657143z" fill="#25B864" p-id="5551"></path></svg>