<?xml version="1.0" encoding="utf-8"?>
<!-- Generator: Adobe Illustrator 21.0.0, SVG Export Plug-In . SVG Version: 6.00 Build 0)  -->
<svg version="1.1" id="图层_1" xmlns="http://www.w3.org/2000/svg" xmlns:xlink="http://www.w3.org/1999/xlink" x="0px" y="0px"
	 viewBox="0 0 16 16" style="enable-background:new 0 0 16 16;" xml:space="preserve">
<title>编辑</title>
<desc>Created with Sketch.</desc>
<g id="_x2D_">
	<g id="动态群组" transform="translate(-1769.000000, -433.000000)">
		<g id="Oval-5-Copy" transform="translate(276.000000, 406.000000)">
			<g id="Page-1" transform="translate(1493.000000, 27.000000)">
				<path id="编辑" class="st0" d="M14.5,5.1L14.5,5.1c0.3-0.3,0.3-0.7,0-0.9l-4-4l0,0c-0.3-0.3-0.7-0.3-0.9,0l0,0L1.3,8.4v4.9
					h4.9L14.5,5.1z M10,1.6l3.1,3.1l-1.7,1.7L8.3,3.3L10,1.6z M2.7,12V8.9l4.7-4.7l3.1,3.1L5.7,12H2.7z M0,16h16v-1.3H0V16z"/>
			</g>
		</g>
	</g>
</g>
</svg>
