<?xml version="1.0" standalone="no"?><!DOCTYPE svg PUBLIC "-//W3C//DTD SVG 1.1//EN" "http://www.w3.org/Graphics/SVG/1.1/DTD/svg11.dtd"><svg t="1562555603734" class="icon" viewBox="0 0 1024 1024" version="1.1" xmlns="http://www.w3.org/2000/svg" p-id="5167" xmlns:xlink="http://www.w3.org/1999/xlink" width="128" height="128"><defs><style type="text/css"></style></defs><path d="M512 512m-512 0a512 512 0 1 0 1024 0 512 512 0 1 0-1024 0Z" fill="#25B864" p-id="5168"></path><path d="M720.457143 420.571429c7.314286-7.314286 7.314286-21.942857 0-29.257143l-128-128c-7.314286-7.314286-21.942857-7.314286-29.257143 0l-263.314286 263.314285v157.257143h157.257143l263.314286-263.314285z m-142.628572-113.371429l98.742858 98.742857-54.857143 54.857143-98.742857-98.742857 54.857142-54.857143z m-237.714285 332.8v-98.742857l149.942857-149.942857 98.742857 98.742857-149.942857 149.942857H340.114286zM256 768h512v-43.885714H256V768z" fill="#FFFFFF" p-id="5169"></path></svg>