<?xml version="1.0" standalone="no"?><!DOCTYPE svg PUBLIC "-//W3C//DTD SVG 1.1//EN" "http://www.w3.org/Graphics/SVG/1.1/DTD/svg11.dtd"><svg t="1559632733081" class="icon" style="" viewBox="0 0 1024 1024" version="1.1" xmlns="http://www.w3.org/2000/svg" p-id="5916" xmlns:xlink="http://www.w3.org/1999/xlink" width="128" height="128"><defs><style type="text/css"></style></defs><path d="M501.76 558.08c-10.24 0-20.48-5.12-25.6-10.24-15.36-15.36-15.36-35.84 0-51.2l384-384c15.36-15.36 35.84-15.36 51.2 0 15.36 15.36 15.36 35.84 0 51.2l-384 384c-5.12 10.24-15.36 10.24-25.6 10.24z m307.2 384H225.28c-30.72 0-61.44-15.36-87.04-35.84-20.48-25.6-35.84-56.32-35.84-81.92V215.04c0-30.72 15.36-61.44 40.96-81.92 20.48-15.36 51.2-25.6 81.92-25.6h317.44c15.36 0 30.72 15.36 30.72 30.72s-15.36 30.72-30.72 30.72H225.28c-30.72 0-66.56 20.48-66.56 51.2v604.16c0 30.72 35.84 61.44 66.56 61.44h583.68c30.72 0 46.08-30.72 46.08-61.44V512c0-15.36 15.36-30.72 30.72-30.72s30.72 15.36 30.72 30.72v312.32c0 30.72-10.24 61.44-25.6 81.92-25.6 25.6-51.2 35.84-81.92 35.84z" p-id="5917"></path></svg>
