<?xml version="1.0" standalone="no"?><!DOCTYPE svg PUBLIC "-//W3C//DTD SVG 1.1//EN" "http://www.w3.org/Graphics/SVG/1.1/DTD/svg11.dtd"><svg t="1565581393919" class="icon" viewBox="0 0 1024 1024" version="1.1" xmlns="http://www.w3.org/2000/svg" p-id="8070" xmlns:xlink="http://www.w3.org/1999/xlink" width="48" height="48"><defs><style type="text/css"></style></defs><path d="M512 1024c283.306667 0 512-228.693333 512-512S795.306667 0 512 0 0 228.693333 0 512s228.693333 512 512 512z" fill="#25B864" p-id="8071"></path><path d="M551.253333 339.626667l78.506667 78.506666h-78.506667v-78.506666z m-10.24 358.4H365.226667c-11.946667 0-20.48-8.533333-20.48-20.48V346.453333c0-10.24 8.533333-20.48 20.48-20.48h167.253333v102.4c0 1.706667 1.706667 5.12 3.413333 6.826667 1.706667 1.706667 5.12 3.413333 6.826667 3.413333h100.693333v143.36c0 5.12 5.12 10.24 10.24 10.24s10.24-5.12 10.24-10.24v-153.6c0-1.706667-1.706667-1.706667-1.706666-1.706666l-110.933334-110.933334h-3.413333H363.52C341.333333 307.2 324.266667 324.266667 324.266667 346.453333v331.093334c0 22.186667 18.773333 39.253333 40.96 39.253333h177.493333c5.12 0 10.24-5.12 10.24-10.24s-5.12-8.533333-11.946667-8.533333z" fill="#FFFFFF" p-id="8072"></path><path d="M687.786667 612.693333c-3.413333-3.413333-10.24-3.413333-13.653334 0l-81.92 80.213334-37.546666-37.546667c-3.413333-3.413333-10.24-3.413333-13.653334 0-3.413333 3.413333-3.413333 10.24 0 13.653333l44.373334 44.373334c1.706667 1.706667 5.12 3.413333 6.826666 3.413333 1.706667 0 5.12-1.706667 6.826667-3.413333l90.453333-87.04c3.413333-3.413333 3.413333-8.533333-1.706666-13.653334z m-283.306667 3.413334c-5.12 0-10.24 5.12-10.24 10.24s5.12 10.24 10.24 10.24h110.933333c5.12 0 10.24-5.12 10.24-10.24s-5.12-10.24-10.24-10.24h-110.933333z m179.2-64.853334c0-5.12-5.12-10.24-10.24-10.24h-168.96c-5.12 0-10.24 5.12-10.24 10.24s5.12 10.24 10.24 10.24h168.96c5.12-1.706667 10.24-5.12 10.24-10.24z m-8.533333-85.333333h-170.666667c-5.12 0-10.24 5.12-10.24 10.24s5.12 10.24 10.24 10.24h170.666667c5.12 0 10.24-5.12 10.24-10.24s-5.12-10.24-10.24-10.24z m-170.666667-54.613333h47.786667c5.12 0 10.24-5.12 10.24-10.24s-3.413333-8.533333-8.533334-8.533334h-49.493333c-5.12 0-10.24 3.413333-10.24 8.533334s5.12 10.24 10.24 10.24z" fill="#FFFFFF" p-id="8073"></path></svg>