<?xml version="1.0" standalone="no"?><!DOCTYPE svg PUBLIC "-//W3C//DTD SVG 1.1//EN" "http://www.w3.org/Graphics/SVG/1.1/DTD/svg11.dtd"><svg t="1567153588809" class="icon" viewBox="0 0 1024 1024" version="1.1" xmlns="http://www.w3.org/2000/svg" p-id="8776" xmlns:xlink="http://www.w3.org/1999/xlink" width="48" height="48"><defs><style type="text/css"></style></defs><path d="M28.444444 0h967.111112c17.066667 0 28.444444 11.377778 28.444444 28.444444v967.111112c0 17.066667-11.377778 28.444444-28.444444 28.444444H28.444444c-17.066667 0-28.444444-11.377778-28.444444-28.444444V28.444444c0-17.066667 11.377778-28.444444 28.444444-28.444444z" fill="#7695CF" p-id="8777"></path><path d="M489.244444 401.066667c-2.844444 2.844444-2.844444 5.688889-2.844444 11.377777v56.888889c0 8.533333 5.688889 14.222222 14.222222 14.222223s14.222222-5.688889 14.222222-14.222223v-56.888889c0-2.844444-2.844444-8.533333-2.844444-11.377777-2.844444-2.844444-5.688889-2.844444-11.377778-2.844445s-8.533333 2.844444-11.377778 2.844445z m39.822223-19.911111c8.533333 8.533333 11.377778 19.911111 11.377777 31.288888v56.888889c0 22.755556-19.911111 42.666667-42.666666 42.666667s-42.666667-19.911111-42.666667-42.666667v-56.888889c0-11.377778 5.688889-22.755556 11.377778-31.288888 8.533333-8.533333 19.911111-11.377778 31.288889-11.377778 14.222222 0 25.6 5.688889 31.288889 11.377778z m76.8 19.911111c-2.844444 2.844444-2.844444 5.688889-2.844445 11.377777v56.888889c0 8.533333 5.688889 14.222222 14.222222 14.222223s14.222222-5.688889 14.222223-14.222223v-56.888889c0-2.844444-2.844444-8.533333-2.844445-11.377777-2.844444-2.844444-5.688889-2.844444-11.377778-2.844445s-11.377778 2.844444-11.377777 2.844445z m39.822222-19.911111c8.533333 8.533333 11.377778 19.911111 11.377778 31.288888v56.888889c0 22.755556-19.911111 42.666667-42.666667 42.666667s-42.666667-19.911111-42.666667-42.666667v-56.888889c0-11.377778 5.688889-22.755556 11.377778-31.288888 8.533333-8.533333 19.911111-11.377778 31.288889-11.377778 11.377778 0 22.755556 5.688889 31.288889 11.377778zM500.622222 654.222222c8.533333 0 14.222222 5.688889 14.222222 14.222222s-5.688889 14.222222-14.222222 14.222223h-113.777778c-8.533333 0-14.222222-5.688889-14.222222-14.222223s5.688889-14.222222 14.222222-14.222222h113.777778z m142.222222-85.333333c8.533333 0 14.222222 5.688889 14.222223 14.222222s-5.688889 14.222222-14.222223 14.222222h-258.844444c-8.533333 0-14.222222-5.688889-14.222222-14.222222s5.688889-14.222222 14.222222-14.222222h258.844444zM312.888889 739.555556h401.066667V284.444444H312.888889v455.111112zM708.266667 256c14.222222 0 17.066667 0 22.755555 2.844444 5.688889 2.844444 8.533333 5.688889 11.377778 11.377778 2.844444 5.688889 2.844444 8.533333 2.844444 22.755556v438.044444c0 11.377778 0 17.066667-2.844444 22.755556-2.844444 5.688889-5.688889 8.533333-11.377778 11.377778-5.688889 2.844444-11.377778 2.844444-22.755555 2.844444H321.422222c-14.222222 0-17.066667 0-22.755555-2.844444-5.688889-2.844444-8.533333-5.688889-11.377778-11.377778-2.844444-5.688889-2.844444-8.533333-2.844445-22.755556V292.977778c0-11.377778 0-17.066667 2.844445-22.755556 2.844444-5.688889 5.688889-8.533333 11.377778-11.377778 5.688889-2.844444 8.533333-2.844444 22.755555-2.844444h386.844445zM426.666667 497.777778c0 8.533333-5.688889 14.222222-14.222223 14.222222s-14.222222-5.688889-14.222222-14.222222V398.222222h-14.222222c-8.533333 0-14.222222-5.688889-14.222222-14.222222s5.688889-14.222222 14.222222-14.222222h28.444444c8.533333 0 14.222222 5.688889 14.222223 14.222222v113.777778z" fill="#FFFFFF" p-id="8778"></path></svg>