<?xml version="1.0" standalone="no"?><!DOCTYPE svg PUBLIC "-//W3C//DTD SVG 1.1//EN" "http://www.w3.org/Graphics/SVG/1.1/DTD/svg11.dtd"><svg t="1567666862438" class="icon" viewBox="0 0 1031 1024" version="1.1" xmlns="http://www.w3.org/2000/svg" p-id="6888" xmlns:xlink="http://www.w3.org/1999/xlink" width="128.875" height="128"><defs><style type="text/css"></style></defs><path d="M748.307692 1017.462154h-630.153846c-63.015385 0-118.153846-55.138462-118.153846-118.153846v-779.815385c7.876923-63.015385 63.015385-118.153846 126.030769-118.153846h630.153846c63.015385 0 118.153846 55.138462 118.153847 118.153846v315.076923h-78.769231v-315.076923c0-23.630769-15.753846-39.384615-39.384616-39.384615h-630.153846c-23.630769 0-39.384615 15.753846-39.384615 39.384615v779.815385c0 23.630769 15.753846 39.384615 39.384615 39.384615h630.153846c23.630769 0 39.384615-15.753846 39.384616-39.384615v-291.446154h70.892307v291.446154c0 63.015385-55.138462 118.153846-118.153846 118.153846" p-id="6889"></path><path d="M220.553846 190.385231v173.292307h-23.630769v-126.030769c-7.876923 0-31.507692 7.876923-31.507692 7.876923v-23.630769c15.753846-7.876923 31.507692-15.753846 31.507692-23.630769l23.630769-7.876923z m346.584616 527.753846c0 15.753846-7.876923 39.384615-7.876924 63.015385 23.630769 0 47.261538-7.876923 55.138462-7.876924l275.692308-275.692307-47.261539-47.261539-275.692307 267.815385z m-47.261539 133.907692c-7.876923 0-15.753846 0-23.630769-7.876923-15.753846-7.876923-15.753846-23.630769-15.753846-31.507692 0 0 15.753846-94.523077 23.630769-118.153846 0-7.876923 7.876923-15.753846 7.876923-15.753846l291.446154-291.446154c15.753846-15.753846 31.507692-15.753846 47.261538-15.753846 15.753846 0 31.507692 7.876923 39.384616 23.630769l63.015384 47.261538c7.876923 7.876923 15.753846 23.630769 23.63077 39.384616 0 15.753846 0 39.384615-15.753847 47.261538l-291.446153 291.446154c-7.876923 7.876923-7.876923 7.876923-15.753847 7.876923-31.507692 7.876923-126.030769 23.630769-133.907692 23.630769z m-157.538461-15.753846H189.046154c-23.630769 0-39.384615-15.753846-39.384616-39.384615s15.753846-39.384615 39.384616-39.384616h173.292308c23.630769 7.876923 39.384615 23.630769 39.384615 39.384616 0 23.630769-15.753846 39.384615-39.384615 39.384615z m78.76923-149.661538H189.046154c-23.630769 0-39.384615-15.753846-39.384616-39.384616s15.753846-39.384615 39.384616-39.384615h252.061538c23.630769 7.876923 39.384615 23.630769 39.384616 47.261538 0 15.753846-15.753846 31.507692-39.384616 31.507693z m94.523077-141.784616H189.046154c-23.630769 0-39.384615-15.753846-39.384616-39.384615s23.630769-31.507692 39.384616-31.507692h346.584615c23.630769 0 39.384615 15.753846 39.384616 31.507692s-15.753846 39.384615-39.384616 39.384615z" p-id="6890"></path><path d="M320.905846 233.944615c-7.876923 15.753846-7.876923 23.630769-7.876923 47.261539 0 15.753846 0 31.507692 7.876923 39.384615 0 15.753846 15.753846 23.630769 23.630769 23.630769 15.753846 0 23.630769-7.876923 31.507693-23.630769 0-7.876923 7.876923-23.630769 7.876923-39.384615s0-31.507692-7.876923-39.384616c-7.876923-23.630769-15.753846-31.507692-31.507693-31.507692s-23.630769 7.876923-23.630769 23.630769z m70.892308-15.753846c7.876923 15.753846 15.753846 39.384615 15.753846 63.015385 0 23.630769-7.876923 47.261538-15.753846 63.015384-7.876923 15.753846-23.630769 23.630769-47.261539 23.63077-15.753846 0-31.507692-7.876923-47.261538-23.63077-7.876923-15.753846-15.753846-39.384615-15.753846-63.015384 0-23.630769 7.876923-47.261538 15.753846-63.015385 15.753846-15.753846 31.507692-31.507692 47.261538-31.507692 23.630769 0 39.384615 15.753846 47.261539 31.507692z m-189.046154 133.907693l7.876923-149.661539c-7.876923 15.753846-15.753846 15.753846-31.507692 23.630769 7.876923 0 7.876923-7.876923 7.876923-7.876923l15.753846-15.753846v149.661539z m31.507692 23.630769h-47.261538v-126.030769c-7.876923 7.876923-15.753846 7.876923-15.753846 7.876923l-15.753846 7.876923v-55.138462h7.876923c15.753846-7.876923 23.630769-15.753846 31.507692-23.630769v-7.876923h39.384615v196.923077z" p-id="6891"></path><path d="M344.536615 226.067692c-7.876923 0-15.753846 0-15.753846 15.753846 0 7.876923-7.876923 23.630769-7.876923 39.384616s0 31.507692 7.876923 39.384615c7.876923 15.753846 15.753846 15.753846 15.753846 15.753846 7.876923 0 15.753846 0 15.753847-15.753846 0-7.876923 7.876923-23.630769 7.876923-39.384615s0-31.507692-7.876923-39.384616c0-15.753846-7.876923-15.753846-15.753847-15.753846m0 126.03077c-7.876923 0-31.507692 0-39.384615-31.507693v-39.384615c0-15.753846 0-31.507692 7.876923-47.261539 0-23.630769 23.630769-31.507692 31.507692-31.507692 15.753846 0 31.507692 7.876923 39.384616 31.507692 7.876923 7.876923 7.876923 23.630769 7.876923 47.261539 0 15.753846 0 31.507692-7.876923 47.261538-7.876923 23.630769-23.630769 23.630769-39.384616 23.63077m0-149.661539c-15.753846 0-31.507692 7.876923-39.384615 23.630769-7.876923 7.876923-7.876923 31.507692-7.876923 55.138462 0 23.630769 7.876923 47.261538 15.753846 55.138461 7.876923 15.753846 23.630769 23.630769 39.384615 23.63077s31.507692-7.876923 39.384616-23.63077c0-15.753846 7.876923-31.507692 7.876923-55.138461 0-23.630769-7.876923-47.261538-15.753846-63.015385-7.876923-7.876923-23.630769-15.753846-39.384616-15.753846m0 173.292308c-23.630769 0-39.384615-7.876923-55.138461-31.507693-7.876923-15.753846-15.753846-39.384615-15.753846-63.015384 0-31.507692 7.876923-55.138462 15.753846-70.892308 15.753846-23.630769 31.507692-31.507692 55.138461-31.507692 23.630769 0 47.261538 7.876923 55.138462 31.507692 7.876923 15.753846 15.753846 39.384615 15.753846 70.892308s-7.876923 55.138462-15.753846 70.892308c-7.876923 15.753846-31.507692 23.630769-55.138462 23.630769M478.444308 233.944615c-7.876923 15.753846-7.876923 23.630769-7.876923 47.261539 0 15.753846 0 31.507692 7.876923 39.384615 7.876923 15.753846 15.753846 23.630769 23.630769 23.630769 15.753846 0 23.630769-7.876923 31.507692-23.630769 0-7.876923 7.876923-23.630769 7.876923-39.384615s0-31.507692-7.876923-39.384616c-7.876923-23.630769-15.753846-31.507692-31.507692-31.507692-7.876923 0-23.630769 7.876923-23.630769 23.630769m70.892307-15.753846c7.876923 15.753846 15.753846 39.384615 15.753847 63.015385 0 23.630769-7.876923 47.261538-15.753847 63.015384-7.876923 15.753846-23.630769 23.630769-47.261538 23.63077-15.753846 0-31.507692-7.876923-39.384615-23.63077-15.753846-15.753846-15.753846-39.384615-15.753847-63.015384 0-23.630769 7.876923-47.261538 15.753847-63.015385 7.876923-15.753846 23.630769-31.507692 39.384615-31.507692 23.630769 0 39.384615 15.753846 47.261538 31.507692" p-id="6892"></path><path d="M502.075077 226.067692c-7.876923 0-15.753846 0-15.753846 15.753846 0 7.876923-7.876923 23.630769-7.876923 39.384616s0 31.507692 7.876923 39.384615c7.876923 15.753846 15.753846 15.753846 15.753846 15.753846 7.876923 0 15.753846 0 15.753846-15.753846 0-7.876923 7.876923-23.630769 7.876923-39.384615s0-31.507692-7.876923-39.384616c0-15.753846-7.876923-15.753846-15.753846-15.753846m0 126.03077c-7.876923 0-23.630769 0-31.507692-31.507693-7.876923-7.876923-7.876923-23.630769-7.876923-39.384615s0-31.507692 7.876923-47.261539c7.876923-23.630769 23.630769-31.507692 39.384615-31.507692s31.507692 7.876923 39.384615 31.507692v47.261539c0 15.753846 0 31.507692-7.876923 47.261538-7.876923 23.630769-23.630769 23.630769-39.384615 23.63077m0-149.661539c-15.753846 0-23.630769 7.876923-31.507692 15.753846-7.876923 15.753846-15.753846 39.384615-15.753847 63.015385 0 23.630769 7.876923 39.384615 15.753847 55.138461 7.876923 15.753846 23.630769 23.630769 39.384615 23.63077s31.507692-7.876923 39.384615-23.63077c0-15.753846 7.876923-31.507692 7.876923-55.138461 0-23.630769-7.876923-47.261538-15.753846-63.015385-7.876923-7.876923-23.630769-15.753846-39.384615-15.753846m0 173.292308c-23.630769 0-39.384615-7.876923-55.138462-31.507693-7.876923-15.753846-15.753846-39.384615-15.753846-63.015384 0-31.507692 7.876923-55.138462 15.753846-70.892308 15.753846-23.630769 31.507692-31.507692 55.138462-31.507692 23.630769 0 47.261538 7.876923 55.138461 31.507692 7.876923 15.753846 15.753846 39.384615 15.753847 70.892308s-7.876923 55.138462-15.753847 70.892308c-7.876923 15.753846-31.507692 23.630769-55.138461 23.630769" p-id="6893"></path></svg>