<?xml version="1.0" standalone="no"?><!DOCTYPE svg PUBLIC "-//W3C//DTD SVG 1.1//EN" "http://www.w3.org/Graphics/SVG/1.1/DTD/svg11.dtd"><svg t="1572230971710" class="icon" viewBox="0 0 1024 1024" version="1.1" xmlns="http://www.w3.org/2000/svg" p-id="8117" xmlns:xlink="http://www.w3.org/1999/xlink" width="48" height="48"><defs><style type="text/css"></style></defs><path d="M883.4561 360.622302c0-16.474694 13.402751-29.816446 29.936444-29.816446 16.564692 0 29.936444 13.341752 29.936444 29.816446v633.543232c0 16.473694-13.401751 29.845446-29.936444 29.845446H44.996674a29.906445 29.906445 0 0 1-29.936444-29.845446V98.874163c0-16.473694 13.401751-29.815446 29.936444-29.815446H705.856399c16.563692 0 29.966443 13.341752 29.966444 29.815446 0 16.504693-13.402751 29.846446-29.966444 29.846446H74.993117v835.538481h808.492983V360.622302zM224.675337 576.381294a29.906445 29.906445 0 0 1-29.936444-29.846445c0-16.473694 13.401751-29.846446 29.936444-29.846446h375.500025c16.563692 0 29.936444 13.372752 29.936444 29.816446 0 16.503693-13.402751 29.876445-29.936444 29.876445H224.675337z m0-179.046674a29.906445 29.906445 0 0 1-29.936444-29.845446c0-16.474694 13.401751-29.846446 29.936444-29.846445h276.684861c16.564692 0 29.937444 13.371752 29.937444 29.815446 0 16.504693-13.402751 29.876445-29.936444 29.876445H224.675337z m0 358.092349a29.906445 29.906445 0 0 1-29.936444-29.846446c0-16.473694 13.401751-29.845446 29.936444-29.845446h471.784237c16.564692 0 29.966443 13.371752 29.966443 29.815446 0 16.504693-13.43275 29.876445-29.966443 29.876446H224.675337zM956.821738 9.787818a30.026442 30.026442 0 0 1 42.254215-2.047962 29.755447 29.755447 0 0 1 2.107961 42.164217L664.687164 419.772203a30.026442 30.026442 0 0 1-42.284215 2.077961 29.755447 29.755447 0 0 1-2.10896-42.164216L956.821738 9.787818z" p-id="8118"></path></svg>