<svg class="icon" viewBox="0 0 1024 1024" version="1.1" xmlns="http://www.w3.org/2000/svg"  width="128" height="128"><path d="M931.352381 199.92381V926.47619c0 34.133333-29.257143 63.390476-68.266667 68.266667H141.409524C107.27619 994.742857 73.142857 965.485714 73.142857 926.47619V68.266667C73.142857 29.257143 102.4 0 141.409524 0h594.895238l195.047619 199.92381z" fill="#5FBB92"></path><path d="M565.638095 341.333333L482.742857 458.361905 404.72381 341.333333H326.704762l117.028571 165.790477L316.952381 682.666667h78.019048l87.771428-126.780953 82.895238 126.780953h82.895238l-126.780952-175.542857L643.657143 341.333333z" fill="#FFFFFF"></path><path d="M931.352381 199.92381h-131.657143c-34.133333 0-68.266667-29.257143-68.266667-68.266667V0l199.92381 199.92381z" fill="#BADECF"></path></svg>
