<?xml version="1.0" standalone="no"?><!DOCTYPE svg PUBLIC "-//W3C//DTD SVG 1.1//EN" "http://www.w3.org/Graphics/SVG/1.1/DTD/svg11.dtd"><svg t="1573623915509" class="icon" viewBox="0 0 1024 1024" version="1.1" xmlns="http://www.w3.org/2000/svg" p-id="8848" xmlns:xlink="http://www.w3.org/1999/xlink" width="128" height="128"><defs><style type="text/css"></style></defs><path d="M102.4 614.4l402.285714-380.342857 51.2-51.2 29.257143-29.257143 7.314286-7.314286 80.457143-73.142857 153.6 153.6-109.714286 117.028572-73.142857 65.828571L256 768H102.4V614.4z m-36.571429 212.114286H277.942857s7.314286 0 7.314286-7.314286l607.085714-563.2c21.942857-14.628571 21.942857-36.571429 7.314286-43.885714L702.171429 7.314286C694.857143 0 680.228571 0 672.914286 0c-7.314286 0-14.628571 7.314286-14.628572 7.314286L51.2 570.514286v7.314285c-14.628571 7.314286-14.628571 14.628571-14.628571 21.942858v197.485714c0 7.314286 0 14.628571 7.314285 21.942857 7.314286 7.314286 14.628571 7.314286 21.942857 7.314286z m855.771429 131.657143H65.828571c-7.314286 0-14.628571 0-21.942857 7.314285-7.314286 7.314286-7.314286 14.628571-7.314285 29.257143s14.628571 29.257143 29.257142 29.257143h855.771429c7.314286 0 14.628571 0 21.942857-7.314286 7.314286-7.314286 7.314286-14.628571 7.314286-21.942857 7.314286-21.942857-7.314286-36.571429-29.257143-36.571428z m-292.571429-160.914286c0 14.628571 14.628571 29.257143 29.257143 29.257143h263.314286c7.314286 0 14.628571 0 21.942857-7.314286 7.314286-7.314286 7.314286-14.628571 7.314286-21.942857 0-14.628571-14.628571-29.257143-29.257143-29.257143H658.285714c-7.314286 0-14.628571 0-21.942857 7.314286-7.314286 7.314286-7.314286 14.628571-7.314286 21.942857z" p-id="8849"></path></svg>