<?xml version="1.0" standalone="no"?><!DOCTYPE svg PUBLIC "-//W3C//DTD SVG 1.1//EN"
    "http://www.w3.org/Graphics/SVG/1.1/DTD/svg11.dtd">
<svg t="1577358420290" class="icon" viewBox="0 0 1024 1024" version="1.1" xmlns="http://www.w3.org/2000/svg"
     p-id="10042" xmlns:xlink="http://www.w3.org/1999/xlink" width="128" height="128">
    <defs>
        <style type="text/css"></style>
    </defs>
    <path
        d="M1016.685714 504.685714l-168.228571-131.657143c-7.314286-7.314286-14.628571 0-14.628572 7.314286v87.771429h-365.714285-7.314286v73.142857c0 7.314286 7.314286 7.314286 7.314286 7.314286h365.714285v87.771428c0 7.314286 7.314286 14.628571 14.628572 7.314286L1016.685714 512v-7.314286c7.314286 7.314286 7.314286 0 0 0m-102.4 270.628572h-80.457143c-7.314286 0-7.314286 0-14.628571 7.314285s-14.628571 21.942857-29.257143 29.257143c-36.571429 36.571429-80.457143 65.828571-131.657143 87.771429-51.2 21.942857-102.4 36.571429-160.914285 36.571428-58.514286 0-109.714286-14.628571-160.914286-36.571428-43.885714-21.942857-87.771429-51.2-124.342857-87.771429S146.285714 731.428571 124.342857 680.228571c-21.942857-58.514286-36.571429-109.714286-36.571428-168.228571 0-58.514286 7.314286-109.714286 29.257142-160.914286 21.942857-51.2 51.2-95.085714 87.771429-131.657143 43.885714-43.885714 87.771429-73.142857 138.971429-95.085714 51.2-21.942857 102.4-36.571429 160.914285-36.571428 58.514286 0 109.714286 14.628571 160.914286 36.571428 51.2 21.942857 95.085714 51.2 131.657143 87.771429 7.314286 7.314286 14.628571 21.942857 29.257143 29.257143 0 7.314286 7.314286 7.314286 14.628571 7.314285h80.457143c7.314286 0 14.628571-7.314286 7.314286-14.628571C833.828571 95.085714 680.228571 0 497.371429 0 219.428571 0 0 234.057143 0 519.314286 0 797.257143 226.742857 1024 504.685714 1024c175.542857 0 336.457143-95.085714 424.228572-234.057143 0-7.314286-7.314286-14.628571-14.628572-14.628571"
        p-id="10043"></path>
</svg>
