<?xml version="1.0" encoding="utf-8"?>
<!-- Generator: Adobe Illustrator 21.0.0, SVG Export Plug-In . SVG Version: 6.00 Build 0)  -->
<svg version="1.1" id="图层_1" xmlns="http://www.w3.org/2000/svg" xmlns:xlink="http://www.w3.org/1999/xlink" x="0px" y="0px"
	 viewBox="0 0 16 6" style="enable-background:new 0 0 16 6;" xml:space="preserve">
<title>眼睛</title>
<desc>Created with Sketch.</desc>
<g id="启效-小程序0523">
	<g id="登录-提示1" transform="translate(-285.000000, -436.000000)">
		<g id="Group-8" transform="translate(48.000000, 400.000000)">
			<path id="眼睛" class="st0" d="M244.5,41.4v-2.3c-0.4,0-0.8-0.1-1.1-0.1c-0.3,1-1.2,2-1.5,2.2c-0.1,0.1-0.2,0.1-0.3,0.1
				c-0.1,0-0.2,0-0.3-0.1c-0.2-0.2-0.2-0.4,0-0.6c0.3-0.3,1-1.1,1.3-1.8c-0.5-0.1-0.9-0.3-1.3-0.5c-0.4,0.6-1.2,1.4-2,1.6h-0.1
				c-0.2,0-0.4-0.1-0.4-0.3c0-0.1,0-0.2,0.1-0.3c0.1-0.1,0.2-0.2,0.3-0.2c0.4-0.1,1-0.6,1.4-1.2c-0.3-0.2-0.6-0.5-0.9-0.8
				c-0.7,0.4-1.3,0.6-1.9,0.6c-0.1,0-0.3,0-0.4,0c-0.2,0-0.4-0.3-0.3-0.5c0-0.2,0.2-0.3,0.4-0.3c0,0,0.1,0,0.1,0c0.1,0,0.2,0,0.3,0
				c0.4,0,0.9-0.2,1.5-0.5c0-0.1,0.1-0.2,0.2-0.2c0.1,0,0.2-0.1,0.2-0.1c0.1,0,0.1,0,0.2,0.1c0.1,0,0.2,0.1,0.2,0.1
				c0.1,0.1,0.1,0.1,0.1,0.2c0.9,1.1,2.7,1.8,4.7,1.8c2.2,0,4.1-0.8,4.9-2.1c0.1-0.1,0.2-0.2,0.4-0.2c0,0,0.1,0,0.1,0
				c0,0,0.1,0,0.1,0c0,0,0.1,0,0.1,0.1c0.2,0.1,0.9,0.6,1.7,0.6c0.1,0,0.2,0,0.2,0c0,0,0.1,0,0.1,0c0.2,0,0.4,0.1,0.4,0.3
				c0,0.1,0,0.2-0.1,0.3c-0.1,0.1-0.2,0.2-0.3,0.2c-0.2,0-0.3,0-0.4,0c-0.8,0-1.5-0.3-1.9-0.6c-0.2,0.3-0.5,0.6-0.9,0.8
				c0.5,0.7,1,1.1,1.4,1.2c0.2,0,0.4,0.3,0.4,0.5c0,0.2-0.2,0.3-0.4,0.3h-0.1c-0.8-0.2-1.6-1-2-1.5c-0.4,0.2-0.8,0.4-1.3,0.5
				c0.3,0.7,1,1.5,1.3,1.8c0.1,0.1,0.1,0.2,0.1,0.3c0,0.1,0,0.2-0.1,0.3c0,0.1-0.1,0.1-0.3,0.1c-0.1,0-0.2,0-0.3-0.1
				c-0.4-0.4-1.2-1.3-1.5-2.2c-0.4,0.1-0.8,0.1-1.2,0.1v2.3c0,0.2-0.2,0.4-0.5,0.4C244.7,41.8,244.5,41.6,244.5,41.4z"/>
		</g>
	</g>
</g>
</svg>
