<?xml version="1.0" standalone="no"?><!DOCTYPE svg PUBLIC "-//W3C//DTD SVG 1.1//EN" "http://www.w3.org/Graphics/SVG/1.1/DTD/svg11.dtd"><svg t="1567666883904" class="icon" viewBox="0 0 1024 1024" version="1.1" xmlns="http://www.w3.org/2000/svg" p-id="7780" xmlns:xlink="http://www.w3.org/1999/xlink" width="128" height="128"><defs><style type="text/css"></style></defs><path d="M950.857143 789.942857h-87.771429V234.057143c0-43.885714-36.571429-73.142857-73.142857-73.142857H234.057143V73.142857H950.857143v716.8zM789.942857 950.857143H73.142857V482.742857h716.8V950.857143z m0-716.8v175.542857H73.142857V234.057143h716.8zM950.857143 0H234.057143c-43.885714 0-73.142857 36.571429-73.142857 73.142857v87.771429H73.142857c-43.885714 0-73.142857 36.571429-73.142857 73.142857V950.857143c0 43.885714 36.571429 73.142857 73.142857 73.142857h716.8c43.885714 0 73.142857-36.571429 73.142857-73.142857v-87.771429H950.857143c43.885714 0 73.142857-36.571429 73.142857-73.142857V73.142857c0-36.571429-36.571429-73.142857-73.142857-73.142857z" p-id="7781"></path></svg>