<?xml version="1.0" standalone="no"?><!DOCTYPE svg PUBLIC "-//W3C//DTD SVG 1.1//EN"
    "http://www.w3.org/Graphics/SVG/1.1/DTD/svg11.dtd">
<svg t="1584497645004" class="icon" viewBox="0 0 1024 1024" version="1.1" xmlns="http://www.w3.org/2000/svg"
     p-id="13399" xmlns:xlink="http://www.w3.org/1999/xlink" width="48" height="48">
    <defs>
        <style type="text/css"></style>
    </defs>
    <path
        d="M313.69915 0H49.63918C22.004998 0 0 22.004998 0 49.63918v264.05997a49.63918 49.63918 0 0 0 99.278361 0V168.875562L245.637181 315.746127c19.958021 18.422789 51.174413 17.3993 70.108946-2.558721 17.911044-18.934533 17.911044-48.615692 0-67.550225L168.875562 99.278361h144.823588a49.63918 49.63918 0 0 0 0-99.278361M313.69915 924.209895H168.875562l146.358821-146.358821c18.422789-19.958021 17.3993-51.174413-2.558721-70.108945a49.178611 49.178611 0 0 0-67.550225 0L99.278361 854.612694v-144.823589a49.63918 49.63918 0 0 0-99.278361 0v264.05997c0 27.634183 22.004998 49.63918 49.63918 49.639181h264.05997c27.122439 0 49.63918-22.004998 49.639181-49.639181 0-27.122439-22.516742-49.63918-49.639181-49.63918M973.849075 0h-264.05997a49.63918 49.63918 0 0 0 0 99.278361h144.823589L707.742129 245.637181c-18.422789 19.958021-17.3993 51.174413 2.558721 70.108946 18.934533 17.911044 48.615692 17.911044 67.550224 0l146.358821-146.358821v144.823589c0 27.122439 22.004998 49.63918 49.63918 49.63918 27.634183-0.511744 49.63918-23.028486 49.639181-50.150925V49.63918c0-27.634183-22.004998-49.63918-49.639181-49.63918M973.849075 660.149925a49.63918 49.63918 0 0 0-49.63918 49.63918v144.823589l-146.358821-146.358821c-19.958021-18.422789-51.174413-17.3993-70.108945 2.558721-17.911044 18.934533-17.911044 48.615692 0 67.550225l146.358821 146.35882h-144.823589a49.63918 49.63918 0 0 0 0 99.278361h264.05997c27.122439 0 49.63918-22.004998 49.639181-49.63918v-264.05997a49.025087 49.025087 0 0 0-49.127437-50.150925"
        p-id="13400"></path>
</svg>
