<?xml version="1.0" standalone="no"?><!DOCTYPE svg PUBLIC "-//W3C//DTD SVG 1.1//EN" "http://www.w3.org/Graphics/SVG/1.1/DTD/svg11.dtd"><svg t="1570611610490" class="icon" viewBox="0 0 1027 1024" version="1.1" xmlns="http://www.w3.org/2000/svg" p-id="8044" xmlns:xlink="http://www.w3.org/1999/xlink" width="128.375" height="128"><defs><style type="text/css"></style></defs><path d="M338.285714 1024H53.028571c-29.257143 0-51.2-29.257143-51.2-58.514286V680.228571c0-29.257143 21.942857-51.2 51.2-51.2 29.257143 0 51.2 21.942857 51.2 51.2v234.057143h234.057143c29.257143 0 51.2 21.942857 51.2 51.2s-21.942857 58.514286-51.2 58.514286" fill="#7EFAFC" p-id="8045"></path><path d="M53.028571 1024c-14.628571 0-29.257143-7.314286-36.571428-14.628571-21.942857-21.942857-21.942857-51.2 0-73.142858l343.771428-343.771428c21.942857-21.942857 51.2-21.942857 73.142858 0 21.942857 21.942857 21.942857 51.2 0 73.142857l-343.771429 343.771429c-7.314286 7.314286-21.942857 14.628571-36.571429 14.628571M974.628571 394.971429c-29.257143 0-51.2-21.942857-51.2-51.2V109.714286H689.371429c-29.257143 0-58.514286-29.257143-58.514286-51.2S660.114286 0 689.371429 0h285.257142c29.257143 0 51.2 29.257143 51.2 58.514286v285.257143c0 29.257143-21.942857 51.2-51.2 51.2" fill="#7EFAFC" p-id="8046"></path><path d="M630.857143 446.171429c-14.628571 0-29.257143-7.314286-36.571429-14.628572-21.942857-21.942857-21.942857-51.2 0-73.142857L938.057143 14.628571c21.942857-21.942857 51.2-21.942857 73.142857 0 21.942857 21.942857 21.942857 51.2 0 73.142858L667.428571 431.542857c-7.314286 14.628571-21.942857 14.628571-36.571428 14.628572M974.628571 1017.929143H645.485714c-29.257143 0-51.2-21.942857-51.2-51.2s21.942857-51.2 51.2-51.2h277.942857v-256c0-29.257143 21.942857-51.2 51.2-51.2 29.257143 0 51.2 21.942857 51.2 51.2v307.2c0 29.257143-21.942857 51.2-51.2 51.2M53.028571 418.157714c-29.257143 0-51.2-29.257143-51.2-58.514285v-307.2c0-29.257143 21.942857-51.2 51.2-51.2h329.142858c29.257143 0 51.2 21.942857 51.2 51.2s-21.942857 58.514286-51.2 58.514285H104.228571v256c0 21.942857-21.942857 51.2-51.2 51.2" fill="#7EFAFC" p-id="8047"></path></svg>