<?xml version="1.0" standalone="no"?><!DOCTYPE svg PUBLIC "-//W3C//DTD SVG 1.1//EN" "http://www.w3.org/Graphics/SVG/1.1/DTD/svg11.dtd"><svg t="1570611615132" class="icon" viewBox="0 0 1024 1024" version="1.1" xmlns="http://www.w3.org/2000/svg" p-id="8172" xmlns:xlink="http://www.w3.org/1999/xlink" width="128" height="128"><defs><style type="text/css"></style></defs><path d="M175.542857 512h285.257143c29.257143 0 51.2 29.257143 51.2 58.514286v285.257143c0 29.257143-21.942857 51.2-51.2 51.2-29.257143 0-51.2-21.942857-51.2-51.2V621.714286H175.542857c-29.257143 0-51.2-21.942857-51.2-51.2S146.285714 512 175.542857 512" fill="#7EFAFC" p-id="8173"></path><path d="M460.8 512c14.628571 0 29.257143 7.314286 36.571429 14.628571 21.942857 21.942857 21.942857 51.2 0 73.142858l-343.771429 343.771428c-21.942857 21.942857-51.2 21.942857-73.142857 0-21.942857-21.942857-21.942857-51.2 0-73.142857l343.771428-343.771429c7.314286-7.314286 21.942857-14.628571 36.571429-14.628571M563.2 117.028571c29.257143 0 51.2 21.942857 51.2 51.2v234.057143h234.057143c29.257143 0 51.2 21.942857 51.2 51.2s-21.942857 58.514286-51.2 58.514286H563.2c-29.257143 0-51.2-29.257143-51.2-58.514286V168.228571c0-29.257143 21.942857-51.2 51.2-51.2" fill="#7EFAFC" p-id="8174"></path><path d="M906.971429 65.828571c14.628571 0 29.257143 7.314286 36.571428 14.628572 21.942857 21.942857 21.942857 51.2 0 73.142857L599.771429 497.371429c-14.628571 14.628571-51.2 14.628571-73.142858 0-21.942857-21.942857-21.942857-51.2 0-73.142858l343.771429-343.771428c7.314286-14.628571 21.942857-14.628571 36.571429-14.628572M972.8 1024H643.657143c-29.257143 0-58.514286-29.257143-58.514286-58.514286s21.942857-51.2 51.2-51.2h277.942857V658.285714c0-29.257143 21.942857-51.2 51.2-51.2 36.571429 0 58.514286 21.942857 58.514286 51.2v307.2c0 29.257143-21.942857 58.514286-51.2 58.514286M51.2 416.914286C21.942857 416.914286 0 394.971429 0 365.714286V58.514286C0 29.257143 21.942857 0 51.2 0h329.142857c29.257143 0 51.2 21.942857 51.2 51.2s-21.942857 58.514286-51.2 58.514286H102.4V365.714286c0 29.257143-21.942857 51.2-51.2 51.2" fill="#7EFAFC" p-id="8175"></path></svg>