<?xml version="1.0" standalone="no"?><!DOCTYPE svg PUBLIC "-//W3C//DTD SVG 1.1//EN" "http://www.w3.org/Graphics/SVG/1.1/DTD/svg11.dtd"><svg t="1567666859491" class="icon" viewBox="0 0 1024 1024" version="1.1" xmlns="http://www.w3.org/2000/svg" p-id="6761" xmlns:xlink="http://www.w3.org/1999/xlink" width="128" height="128"><defs><style type="text/css"></style></defs><path d="M460.8 87.771429L146.285714 270.628571c-21.942857 14.628571-29.257143 36.571429-29.257143 58.514286v358.4c0 21.942857 14.628571 51.2 36.571429 58.514286l314.514286 182.857143c21.942857 14.628571 51.2 14.628571 73.142857 0l314.514286-182.857143c21.942857-14.628571 36.571429-36.571429 36.571428-58.514286V329.142857c0-21.942857-14.628571-51.2-36.571428-58.514286L533.942857 87.771429c-21.942857-7.314286-51.2-7.314286-73.142857 0M497.371429 1024c-29.257143 0-51.2-7.314286-73.142858-21.942857L109.714286 819.2c-43.885714-29.257143-73.142857-73.142857-73.142857-131.657143V329.142857c0-51.2 29.257143-102.4 73.142857-131.657143L424.228571 14.628571c43.885714-29.257143 102.4-29.257143 146.285715 0l314.514285 182.857143c43.885714 29.257143 73.142857 73.142857 73.142858 131.657143v358.4c0 51.2-29.257143 102.4-73.142858 131.657143l-314.514285 182.857143c-21.942857 14.628571-43.885714 21.942857-73.142857 21.942857" p-id="6762"></path><path d="M299.885714 373.028571c-14.628571-14.628571-29.257143-7.314286-36.571428 7.314286-14.628571 14.628571-7.314286 29.257143 7.314285 36.571429l190.171429 109.714285V731.428571s14.628571 21.942857 29.257143 21.942858 29.257143-21.942857 29.257143-21.942858V526.628571l190.171428-109.714285c14.628571-7.314286 21.942857-21.942857 7.314286-36.571429 0-14.628571-21.942857-21.942857-36.571429-7.314286L490.057143 475.428571 299.885714 373.028571z" p-id="6763"></path></svg>