<?xml version="1.0" standalone="no"?><!DOCTYPE svg PUBLIC "-//W3C//DTD SVG 1.1//EN" "http://www.w3.org/Graphics/SVG/1.1/DTD/svg11.dtd"><svg class="icon" width="200px" height="198.64px" viewBox="0 0 1031 1024" version="1.1" xmlns="http://www.w3.org/2000/svg"><path d="M841.142857 468.114286c14.628571-14.628571 7.314286-43.885714-7.314286-58.514286-14.628571-14.628571-43.885714-7.314286-58.514285 7.314286-29.257143 36.571429-65.828571 51.2-109.714286 51.2-29.257143 0-51.2-21.942857-117.028571-80.457143-73.142857-80.457143-117.028571-109.714286-175.542858-109.714286-87.771429 0-153.6 43.885714-182.857142 131.657143V438.857143c7.314286 14.628571 21.942857 21.942857 43.885714 21.942857 14.628571 0 29.257143-14.628571 36.571428-29.257143 14.628571-51.2 51.2-80.457143 102.4-80.457143 29.257143 0 51.2 21.942857 117.028572 80.457143C563.2 512 607.085714 541.257143 665.6 541.257143c73.142857 14.628571 131.657143-14.628571 175.542857-73.142857z m-365.714286 234.057143H153.6c-36.571429 0-65.828571-29.257143-65.828571-65.828572V146.285714c0-36.571429 29.257143-65.828571 65.828571-65.828571h724.114286c36.571429 0 65.828571 29.257143 65.828571 65.828571v490.057143c0 36.571429-29.257143 65.828571-65.828571 65.828572H475.428571zM877.714286 0H153.6C73.142857 0 7.314286 65.828571 0 153.6v497.371429C0 731.428571 65.828571 804.571429 153.6 804.571429h321.828571v117.028571H263.314286c-21.942857 0-43.885714 21.942857-43.885715 43.885714s21.942857 43.885714 43.885715 43.885715h504.685714c21.942857 0 43.885714-21.942857 43.885714-43.885715s-21.942857-43.885714-43.885714-43.885714H555.885714V804.571429h321.828572c80.457143 0 153.6-65.828571 153.6-153.6V153.6C1031.314286 65.828571 965.485714 0 877.714286 0z" /></svg>