<?xml version="1.0" standalone="no"?><!DOCTYPE svg PUBLIC "-//W3C//DTD SVG 1.1//EN" "http://www.w3.org/Graphics/SVG/1.1/DTD/svg11.dtd"><svg t="1590041733480" class="icon" viewBox="0 0 1024 1024" version="1.1" xmlns="http://www.w3.org/2000/svg" p-id="18586" xmlns:xlink="http://www.w3.org/1999/xlink" width="128" height="128"><defs><style type="text/css"></style></defs><path d="M716.195872 848.974967c-58.341678 58.341678-145.854194 94.805226-233.366711 94.805226-87.512517 0-167.732323-36.463549-233.366711-94.805226-58.341678-58.341678-94.805226-145.854194-94.805226-226.074001 0-51.048968 14.585419-94.805226 36.463549-145.854194 21.878129-43.756258 51.048968-80.219807 94.805226-116.683356l65.634387-65.634387c29.170839-36.463549 51.048968-72.927097 65.634388-116.683356 7.29271-14.585419 7.29271-36.463549 14.585419-51.048968 29.170839 29.170839 51.048968 58.341678 72.927097 94.805227 36.463549 72.927097 58.341678 138.561485 51.048968 189.610452 0 29.170839 7.29271 51.048968 29.170839 65.634388 14.585419 14.585419 36.463549 21.878129 58.341678 21.878129 21.878129 0 43.756258-14.585419 58.341678-29.170839 14.585419-14.585419 29.170839-36.463549 36.463548-51.048968l43.756258 65.634387c21.878129 43.756258 29.170839 87.512517 29.170839 131.268775 0 87.512517-36.463549 167.732323-94.805226 233.366711m138.561484-386.513615c-21.878129-51.048968-58.341678-94.805226-94.805226-131.268775l-36.463548-29.170838c-7.29271-7.29271-14.585419 0-14.58542 7.292709l-14.585419 43.756259c-7.29271 29.170839-29.170839 51.048968-51.048968 80.219806h-7.29271-7.29271v-7.292709c7.29271-65.634387-14.585419-145.854194-65.634387-233.366711C526.585419 119.703996 475.536451 68.655028 409.902064 32.191479L366.145806 3.02064c-7.29271-7.29271-14.585419 0-14.58542 7.29271v58.341678c0 36.463549 0 72.927097-14.585419 94.805226-14.585419 36.463549-29.170839 65.634387-51.048968 94.805226-14.585419 21.878129-36.463549 36.463549-58.341678 51.048968C176.535353 345.777997 140.071805 396.826965 110.900966 447.875933 89.022837 506.21761 74.437417 564.559288 74.437417 622.900966c0 51.048968 7.29271 109.390646 29.170839 153.146904 21.878129 43.756258 51.048968 87.512517 87.512517 123.976065s80.219807 65.634387 131.268774 87.512516c51.048968 29.170839 102.097936 36.463549 160.439614 36.463549 58.341678 0 109.390646-7.29271 160.439614-29.170839 51.048968-21.878129 94.805226-51.048968 131.268775-87.512516s65.634387-80.219807 87.512516-123.976065c21.878129-51.048968 29.170839-102.097936 29.170839-153.146904 0-58.341678-14.585419-116.683355-36.463549-167.732324" p-id="18587"></path></svg>