<?xml version="1.0" standalone="no"?><!DOCTYPE svg PUBLIC "-//W3C//DTD SVG 1.1//EN" "http://www.w3.org/Graphics/SVG/1.1/DTD/svg11.dtd"><svg t="1565776022370" class="icon" viewBox="0 0 1194 1024" version="1.1" xmlns="http://www.w3.org/2000/svg" p-id="7386" xmlns:xlink="http://www.w3.org/1999/xlink" width="55.96875" height="48"><defs><style type="text/css"></style></defs><path d="M1100.8 162.133333H597.333333l-25.6-85.333333c0-17.066667-17.066667-42.666667-34.133333-51.2-17.066667-17.066667-42.666667-25.6-59.733333-25.6H93.866667C42.666667 0 0 42.666667 0 93.866667v836.266666c0 51.2 42.666667 93.866667 93.866667 93.866667h1006.933333c25.6 0 51.2-8.533333 68.266667-25.6 17.066667-17.066667 25.6-42.666667 25.6-68.266667V256c0-51.2-42.666667-93.866667-93.866667-93.866667zM85.333333 93.866667s8.533333-8.533333 0 0L477.866667 85.333333h8.533333l8.533333 8.533334 8.533334 76.8H85.333333v-76.8z m1024 836.266666s-8.533333 0 0 0c-8.533333 0-8.533333 0 0 0H93.866667V264.533333H1109.333333v665.6z" p-id="7387"></path></svg>