<?xml version="1.0" standalone="no"?><!DOCTYPE svg PUBLIC "-//W3C//DTD SVG 1.1//EN" "http://www.w3.org/Graphics/SVG/1.1/DTD/svg11.dtd"><svg t="1566527497009" class="icon" viewBox="0 0 1194 1024" version="1.1" xmlns="http://www.w3.org/2000/svg" p-id="6276" xmlns:xlink="http://www.w3.org/1999/xlink" width="149.25" height="128"><defs><style type="text/css"></style></defs><path d="M298.666667 307.2c25.6 0 42.666667-17.066667 42.666666-42.666667s-17.066667-42.666667-42.666666-42.666666-42.666667 17.066667-42.666667 42.666666 17.066667 42.666667 42.666667 42.666667z m0 85.333333C230.4 392.533333 170.666667 332.8 170.666667 264.533333c0-76.8 59.733333-128 128-128S426.666667 196.266667 426.666667 264.533333s-59.733333 128-128 128zM0 42.666667C0 17.066667 17.066667 0 42.666667 0h1109.333333c25.6 0 42.666667 17.066667 42.666667 42.666667v878.933333c0 25.6-17.066667 42.666667-42.666667 42.666667H42.666667c-25.6 0-42.666667-17.066667-42.666667-42.666667V42.666667z m85.333333 750.933333v85.333333h1024V665.6L878.933333 426.666667 486.4 827.733333 426.666667 768 264.533333 605.866667 85.333333 793.6z m0-128L238.933333 512c17.066667-17.066667 42.666667-17.066667 59.733334 0l187.733333 196.266667 358.4-375.466667c8.533333-8.533333 17.066667-17.066667 34.133333-17.066667 8.533333 0 25.6 8.533333 34.133334 17.066667L1109.333333 537.6V85.333333H85.333333v580.266667z" p-id="6277"></path></svg>