<?xml version="1.0" standalone="no"?><!DOCTYPE svg PUBLIC "-//W3C//DTD SVG 1.1//EN" "http://www.w3.org/Graphics/SVG/1.1/DTD/svg11.dtd"><svg t="1565580818466" class="icon" viewBox="0 0 1097 1024" version="1.1" xmlns="http://www.w3.org/2000/svg" p-id="7500" xmlns:xlink="http://www.w3.org/1999/xlink" width="51.421875" height="48"><defs><style type="text/css"></style></defs><path d="M1038.628571 680.228571l-138.971428-131.657142-138.971429 131.657142H877.714286c-7.314286 80.457143-58.514286 204.8-234.057143 219.428572l7.314286 58.514286c58.514286 0 109.714286-21.942857 160.914285-51.2 36.571429-21.942857 73.142857-58.514286 95.085715-95.085715 21.942857-43.885714 36.571429-87.771429 43.885714-131.657143h87.771428zM212.114286 490.057143l138.971428-131.657143H234.057143c7.314286-80.457143 58.514286-204.8 234.057143-219.428571l-7.314286-58.514286c-58.514286 0-109.714286 21.942857-160.914286 51.2-36.571429 21.942857-73.142857 58.514286-95.085714 95.085714-21.942857 43.885714-36.571429 87.771429-43.885714 131.657143H65.828571l146.285715 131.657143z m277.942857 365.714286c0 29.257143-21.942857 51.2-51.2 51.2H190.171429c-29.257143 0-51.2-21.942857-51.2-51.2V694.857143c0-29.257143 21.942857-51.2 51.2-51.2H438.857143c29.257143 0 51.2 21.942857 51.2 51.2v160.914286zM438.857143 585.142857H190.171429c-65.828571 0-109.714286 51.2-117.028572 109.714286v160.914286c0 58.514286 51.2 109.714286 117.028572 109.714285H438.857143c65.828571 0 109.714286-51.2 117.028571-109.714285V694.857143C555.885714 636.342857 504.685714 585.142857 438.857143 585.142857z m182.857143-234.057143V190.171429c0-29.257143 21.942857-51.2 51.2-51.2h248.685714c29.257143 0 51.2 21.942857 51.2 51.2v160.914285c0 29.257143-21.942857 51.2-51.2 51.2H672.914286c-29.257143 0-51.2-29.257143-51.2-51.2z m299.885714 109.714286c65.828571 0 109.714286-51.2 117.028571-109.714286V190.171429c0-58.514286-51.2-109.714286-117.028571-109.714286H672.914286c-65.828571 0-109.714286 51.2-117.028572 109.714286v160.914285c0 58.514286 51.2 109.714286 117.028572 109.714286h248.685714z" p-id="7501"></path><path d="M438.857143 972.8H190.171429c-65.828571 0-124.342857-51.2-124.342858-117.028571V694.857143c7.314286-65.828571 58.514286-117.028571 124.342858-117.028572H438.857143c65.828571 0 124.342857 51.2 124.342857 117.028572v160.914286c-7.314286 65.828571-58.514286 117.028571-124.342857 117.028571zM190.171429 592.457143c-65.828571 0-102.4 51.2-109.714286 102.4v160.914286c0 58.514286 51.2 102.4 109.714286 102.4H438.857143c65.828571 0 102.4-51.2 109.714286-102.4V694.857143c0-58.514286-51.2-102.4-109.714286-102.4H190.171429z m460.8 373.028571l-14.628572-73.142857h7.314286c182.857143-14.628571 219.428571-153.6 226.742857-204.8h-124.342857l160.914286-146.285714 160.914285 146.285714h-102.4c-7.314286 43.885714-21.942857 87.771429-43.885714 124.342857s-58.514286 73.142857-95.085714 95.085715c-58.514286 29.257143-109.714286 58.514286-175.542857 58.514285z m0-58.514285l7.314285 43.885714c58.514286 0 109.714286-29.257143 153.6-51.2 36.571429-21.942857 73.142857-58.514286 95.085715-95.085714 21.942857-43.885714 36.571429-87.771429 43.885714-131.657143v-7.314286h73.142857l-117.028571-117.028571-117.028572 117.028571h109.714286v7.314286c-21.942857 58.514286-51.2 212.114286-248.685714 234.057143z m-212.114286 7.314285H190.171429c-36.571429 0-58.514286-21.942857-58.514286-58.514285V694.857143c0-36.571429 21.942857-58.514286 58.514286-58.514286H438.857143c36.571429 0 58.514286 21.942857 58.514286 58.514286v160.914286c0 36.571429-21.942857 58.514286-58.514286 58.514285zM190.171429 650.971429c-21.942857 0-43.885714 21.942857-43.885715 43.885714v160.914286c0 21.942857 21.942857 43.885714 43.885715 43.885714H438.857143c21.942857 0 43.885714-21.942857 43.885714-43.885714V694.857143c0-21.942857-21.942857-43.885714-43.885714-43.885714H190.171429z m21.942857-153.6l-168.228572-146.285715h109.714286c7.314286-43.885714 21.942857-87.771429 43.885714-124.342857s58.514286-73.142857 95.085715-95.085714c43.885714-29.257143 102.4-51.2 168.228571-51.2h7.314286l7.314285 73.142857h-7.314285c-182.857143 14.628571-219.428571 153.6-226.742857 204.8H365.714286L212.114286 497.371429zM87.771429 365.714286l124.342857 117.028571L336.457143 365.714286H226.742857v-7.314286c7.314286-51.2 36.571429-204.8 234.057143-226.742857l-7.314286-43.885714c-58.514286 0-109.714286 29.257143-153.6 51.2-36.571429 21.942857-73.142857 58.514286-95.085714 95.085714-21.942857 43.885714-36.571429 87.771429-43.885714 131.657143v7.314285h-73.142857z m833.828571 102.4H672.914286c-65.828571 0-124.342857-51.2-124.342857-117.028572V190.171429c7.314286-65.828571 58.514286-117.028571 124.342857-117.028572h248.685714c65.828571 0 124.342857 51.2 124.342857 117.028572v160.914285c-7.314286 65.828571-58.514286 117.028571-124.342857 117.028572zM672.914286 87.771429c-65.828571 0-102.4 51.2-109.714286 102.4v160.914285c0 58.514286 51.2 102.4 109.714286 102.4h248.685714c65.828571 0 102.4-51.2 109.714286-102.4V190.171429c0-58.514286-51.2-102.4-109.714286-102.4H672.914286z m248.685714 321.828571H672.914286c-29.257143 0-58.514286-29.257143-58.514286-58.514286V190.171429c0-36.571429 21.942857-58.514286 58.514286-58.514286h248.685714c36.571429 0 58.514286 21.942857 58.514286 58.514286v160.914285c0 36.571429-21.942857 58.514286-58.514286 58.514286zM672.914286 146.285714c-21.942857 0-43.885714 21.942857-43.885715 43.885715v160.914285c0 14.628571 21.942857 43.885714 43.885715 43.885715h248.685714c21.942857 0 43.885714-21.942857 43.885714-43.885715V190.171429c0-21.942857-21.942857-43.885714-43.885714-43.885715H672.914286z" p-id="7502"></path></svg>