<?xml version="1.0" standalone="no"?><!DOCTYPE svg PUBLIC "-//W3C//DTD SVG 1.1//EN" "http://www.w3.org/Graphics/SVG/1.1/DTD/svg11.dtd"><svg class="icon" width="200px" height="200.00px" viewBox="0 0 1024 1024" version="1.1" xmlns="http://www.w3.org/2000/svg"><path d="M702.171429 775.314286C577.828571 775.314286 512 731.428571 512 709.485714V629.028571c43.885714 21.942857 109.714286 36.571429 190.171429 36.571429 87.771429 0 146.285714-14.628571 190.171428-36.571429v80.457143c0 29.257143-65.828571 65.828571-190.171428 65.828572z m0 182.857143c-124.342857 0-190.171429-43.885714-190.171429-65.828572v-80.457143c43.885714 21.942857 109.714286 36.571429 190.171429 36.571429 87.771429 0 146.285714-14.628571 190.171428-36.571429v80.457143c0 21.942857-65.828571 65.828571-190.171428 65.828572z m0-482.742858c124.342857 0 190.171429 43.885714 190.171428 65.828572 0 21.942857-65.828571 65.828571-190.171428 65.828571-124.342857 0-190.171429-43.885714-190.171429-65.828571-7.314286-21.942857 58.514286-65.828571 190.171429-65.828572z m0-65.828571C526.628571 409.6 438.857143 475.428571 438.857143 541.257143v351.085714c0 65.828571 87.771429 131.657143 263.314286 131.657143 168.228571 0 263.314286-65.828571 263.314285-131.657143V541.257143c0-65.828571-95.085714-131.657143-263.314285-131.657143zM387.657143 65.828571c197.485714 0 321.828571 65.828571 321.828571 117.028572 0 51.2-124.342857 117.028571-321.828571 117.028571S65.828571 234.057143 65.828571 182.857143C65.828571 138.971429 190.171429 65.828571 387.657143 65.828571z m0 307.2c117.028571 0 241.371429-29.257143 321.828571-73.142857v95.085715h65.828572V197.485714C775.314286 80.457143 577.828571 14.628571 387.657143 14.628571 197.485714 14.628571 0 80.457143 0 197.485714v548.571429c0 117.028571 197.485714 182.857143 387.657143 182.857143v-65.828572c-197.485714 0-321.828571-65.828571-321.828572-117.028571V585.142857c73.142857 51.2 197.485714 73.142857 321.828572 73.142857v-65.828571C190.171429 592.457143 65.828571 526.628571 65.828571 475.428571V314.514286c80.457143 29.257143 204.8 58.514286 321.828572 58.514285z" /></svg>