<?xml version="1.0" standalone="no"?><!DOCTYPE svg PUBLIC "-//W3C//DTD SVG 1.1//EN" "http://www.w3.org/Graphics/SVG/1.1/DTD/svg11.dtd"><svg class="icon" width="200px" height="200.00px" viewBox="0 0 1024 1024" version="1.1" xmlns="http://www.w3.org/2000/svg"><path d="M292.571429 351.085714h365.714285M621.714286 1024c-21.942857 0-43.885714-7.314286-58.514286-21.942857l-80.457143-73.142857-65.828571 73.142857-7.314286 7.314286c-29.257143 14.628571-73.142857 14.628571-109.714286-14.628572l-87.771428-73.142857-73.142857 65.828571c-21.942857 21.942857-58.514286 36.571429-87.771429 21.942858-29.257143-7.314286-51.2-36.571429-51.2-73.142858V87.771429C0 36.571429 36.571429 0 80.457143 0h782.628571c51.2 0 87.771429 36.571429 87.771429 87.771429v190.171428c0 21.942857-14.628571 43.885714-43.885714 43.885714-21.942857 0-43.885714-14.628571-43.885715-43.885714V87.771429H80.457143v848.457142l102.4-102.4c14.628571-14.628571 36.571429-14.628571 51.2 0l117.028571 95.085715s7.314286 0 7.314286 7.314285l95.085714-95.085714c14.628571-14.628571 43.885714-14.628571 58.514286 0l109.714286 102.4 102.4-102.4c7.314286-7.314286 21.942857-14.628571 29.257143-14.628571 14.628571 0 21.942857 7.314286 29.257142 14.628571l87.771429 95.085714V519.314286c0-21.942857 14.628571-43.885714 43.885714-43.885715 21.942857 0 43.885714 14.628571 43.885715 43.885715v416.914285c0 36.571429-21.942857 65.828571-51.2 80.457143-36.571429 14.628571-65.828571 7.314286-87.771429-21.942857l-58.514286-65.828571-65.828571 65.828571c-29.257143 14.628571-51.2 29.257143-73.142857 29.257143"  /><path d="M658.285714 548.571429H292.571429c-21.942857 0-43.885714-14.628571-43.885715-43.885715 0-21.942857 14.628571-43.885714 43.885715-43.885714h365.714285c21.942857 0 43.885714 14.628571 43.885715 43.885714 0 29.257143-21.942857 43.885714-43.885715 43.885715m-365.714285-43.885715h365.714285m0-109.714285H292.571429c-21.942857 0-43.885714-14.628571-43.885715-43.885715 0-21.942857 14.628571-43.885714 43.885715-43.885714h365.714285c21.942857 0 43.885714 14.628571 43.885715 43.885714 0 21.942857-21.942857 43.885714-43.885715 43.885715M906.971429 453.485714c-21.942857 0-43.885714-14.628571-43.885715-43.885714v-36.571429c0-21.942857 14.628571-43.885714 43.885715-43.885714 21.942857 0 43.885714 14.628571 43.885714 43.885714v36.571429c0 29.257143-21.942857 43.885714-43.885714 43.885714"  /></svg>