<?xml version="1.0" standalone="no"?><!DOCTYPE svg PUBLIC "-//W3C//DTD SVG 1.1//EN" "http://www.w3.org/Graphics/SVG/1.1/DTD/svg11.dtd"><svg t="1565581388473" class="icon" viewBox="0 0 1024 1024" version="1.1" xmlns="http://www.w3.org/2000/svg" p-id="7956" xmlns:xlink="http://www.w3.org/1999/xlink" width="48" height="48"><defs><style type="text/css"></style></defs><path d="M512 1024c283.306667 0 512-228.693333 512-512S795.306667 0 512 0 0 228.693333 0 512s228.693333 512 512 512z" fill="#39B1FF" p-id="7957"></path><path d="M443.733333 515.413333c0-5.12-5.12-8.533333-10.24-8.533333-34.133333 0-61.44-29.013333-61.44-64.853333s27.306667-66.56 61.44-66.56c5.12 0 10.24-3.413333 10.24-8.533334s-5.12-8.533333-10.24-8.533333c-44.373333 0-80.213333 37.546667-80.213333 83.626667 0 30.72 15.36 58.026667 39.253333 71.68-47.786667 15.36-85.333333 64.853333-85.333333 124.586666 0 6.826667 3.413333 10.24 10.24 10.24 5.12 0 10.24-5.12 10.24-8.533333 0-63.146667 47.786667-116.053333 109.226667-116.053333 1.706667 0 6.826667-5.12 6.826666-8.533334" fill="#FFFFFF" p-id="7958"></path><path d="M551.253333 517.12c-44.373333 0-80.213333-34.133333-80.213333-80.213333 0-44.373333 35.84-80.213333 80.213333-80.213334S631.466667 392.533333 631.466667 436.906667s-35.84 80.213333-80.213334 80.213333m47.786667 6.826667c30.72-15.36 51.2-49.493333 51.2-85.333334 0-52.906667-44.373333-97.28-98.986667-97.28-54.613333 0-98.986667 44.373333-98.986666 97.28 0 37.546667 22.186667 69.973333 52.906666 85.333334-64.853333 20.48-112.64 80.213333-112.64 150.186666 0 5.12 5.12 8.533333 10.24 8.533334s10.24-5.12 10.24-8.533334c0-76.8 63.146667-138.24 139.946667-138.24h5.12c76.8 0 139.946667 63.146667 139.946667 138.24 0 5.12 5.12 8.533333 10.24 8.533334s10.24-5.12 10.24-8.533334c-5.12-71.68-52.906667-131.413333-119.466667-150.186666" fill="#FFFFFF" p-id="7959"></path></svg>