<?xml version="1.0" standalone="no"?><!DOCTYPE svg PUBLIC "-//W3C//DTD SVG 1.1//EN" "http://www.w3.org/Graphics/SVG/1.1/DTD/svg11.dtd"><svg t="1567666874422" class="icon" viewBox="0 0 1024 1024" version="1.1" xmlns="http://www.w3.org/2000/svg" p-id="7398" xmlns:xlink="http://www.w3.org/1999/xlink" width="128" height="128"><defs><style type="text/css"></style></defs><path d="M519.314286 914.285714h394.971428c21.942857 0 36.571429-14.628571 36.571429-36.571428V234.057143c0-21.942857-14.628571-36.571429-36.571429-36.571429H482.742857L314.514286 87.771429c-7.314286-7.314286-14.628571 0-14.628572 0-7.314286 0-7.314286 0-7.314285 14.628571v636.342857c0 21.942857 7.314286 36.571429 29.257142 51.2l197.485715 124.342857z m394.971428 73.142857H497.371429l-219.428572-138.971428c-36.571429-21.942857-58.514286-65.828571-58.514286-109.714286V102.4c0-36.571429 14.628571-65.828571 43.885715-80.457143C292.571429 0 321.828571 0 351.085714 14.628571l153.6 95.085715h409.6c58.514286 0 109.714286 51.2 109.714286 117.028571v636.342857c0 73.142857-51.2 124.342857-109.714286 124.342857z" p-id="7399"></path><path d="M497.371429 190.171429l7.314285-80.457143h-7.314285v80.457143z m7.314285 797.257142H109.714286c-58.514286 0-109.714286-51.2-109.714286-117.028571V234.057143c0-65.828571 51.2-117.028571 109.714286-117.028572h146.285714v80.457143h-146.285714c-21.942857-7.314286-36.571429 14.628571-36.571429 36.571429v636.342857c0 21.942857 14.628571 36.571429 36.571429 36.571429h394.971428v80.457142z" p-id="7400"></path><path d="M475.428571 950.857143h73.142858V153.6h-73.142858z" p-id="7401"></path></svg>