<?xml version="1.0" standalone="no"?><!DOCTYPE svg PUBLIC "-//W3C//DTD SVG 1.1//EN" "http://www.w3.org/Graphics/SVG/1.1/DTD/svg11.dtd"><svg t="1563528995433" class="icon" viewBox="0 0 1024 1024" version="1.1" xmlns="http://www.w3.org/2000/svg" p-id="3102" xmlns:xlink="http://www.w3.org/1999/xlink" width="48" height="48"><defs><style type="text/css"></style></defs><path d="M921.6 409.6l-47.78666667-211.62666667c-6.82666667-27.30666667-20.48-40.96-40.96-47.78666666L614.4 102.4h-13.65333333c-13.65333333-6.82666667-27.30666667 0-40.96 13.65333333L116.05333333 559.78666667c-13.65333333 13.65333333-20.48 27.30666667-20.48 40.96 0 20.48 6.82666667 34.13333333 20.48 47.78666666L375.46666667 907.94666667c20.48 20.48 61.44 20.48 88.74666666 0l443.73333334-443.73333334c13.65333333-13.65333333 20.48-34.13333333 13.65333333-54.61333333m-409.6 546.13333333c-27.30666667 20.48-54.61333333 34.13333333-88.74666667 34.13333334s-61.44-13.65333333-88.74666666-34.13333334l-266.24-266.24c-20.48-20.48-34.13333333-54.61333333-34.13333334-88.74666666s13.65333333-61.44 34.13333334-88.74666667L512 68.26666667c34.13333333-27.30666667 75.09333333-40.96 116.05333333-34.13333334l211.62666667 47.78666667c47.78666667 13.65333333 81.92 47.78666667 95.57333333 95.57333333l54.61333334 218.45333334c6.82666667 40.96 0 88.74666667-34.13333334 116.05333333L512 955.73333333z" p-id="3103"></path><path d="M423.25333333 996.69333333c-34.13333333 0-68.26666667-13.65333333-95.57333333-40.96l-259.41333333-259.41333333c-27.30666667-27.30666667-40.96-61.44-40.96-95.57333333 0-34.13333333 13.65333333-68.26666667 40.96-95.57333334L512 68.26666667C539.30666667 34.13333333 587.09333333 20.48 634.88 27.30666667l211.62666667 47.78666666c47.78666667 13.65333333 88.74666667 47.78666667 95.57333333 95.57333334l47.78666667 218.45333333c13.65333333 47.78666667 0 88.74666667-34.13333334 122.88L512 955.73333333c-20.48 27.30666667-54.61333333 40.96-88.74666667 40.96z m177.49333334-955.73333333c-34.13333333 0-61.44 13.65333333-81.92 34.13333333L75.09333333 518.82666667c-20.48 20.48-34.13333333 54.61333333-34.13333333 81.92 0 34.13333333 13.65333333 61.44 34.13333333 81.92l259.41333334 259.41333333c20.48 20.48 54.61333333 34.13333333 81.92 34.13333333 34.13333333 0 61.44-13.65333333 81.92-34.13333333l443.73333333-443.73333333c27.30666667-27.30666667 40.96-68.26666667 34.13333333-109.22666667l-47.78666666-211.62666667c-6.82666667-40.96-40.96-75.09333333-88.74666667-81.92l-211.62666667-54.61333333h-27.30666666zM423.25333333 935.25333333c-20.48 0-34.13333333-6.82666667-47.78666666-20.48L109.22666667 648.53333333c-13.65333333-13.65333333-20.48-27.30666667-20.48-47.78666666 0-20.48 6.82666667-34.13333333 20.48-47.78666667l443.73333333-443.73333333c13.65333333-13.65333333 40.96-20.48 61.44-20.48l211.62666667 47.78666666c27.30666667 13.65333333 47.78666667 34.13333333 54.61333333 54.61333334l47.78666667 211.62666666c6.82666667 20.48 0 47.78666667-20.48 61.44l-443.73333334 443.73333334c-6.82666667 20.48-27.30666667 27.30666667-40.96 27.30666666zM600.74666667 102.4c-13.65333333 0-27.30666667 6.82666667-34.13333334 20.48L122.88 566.61333333c-13.65333333 6.82666667-20.48 20.48-20.48 34.13333334s6.82666667 27.30666667 13.65333333 40.96L375.46666667 907.94666667c20.48 20.48 54.61333333 20.48 75.09333333 0l443.73333333-443.73333334c20.48-20.48 27.30666667-34.13333333 20.48-54.61333333l-47.78666666-211.62666667c-6.82666667-20.48-20.48-34.13333333-40.96-40.96l-211.62666667-47.78666666C607.57333333 102.4 607.57333333 102.4 600.74666667 102.4z" p-id="3104"></path><path d="M641.70666667 382.29333333c-6.82666667-6.82666667-20.48-13.65333333-27.30666667-13.65333333-13.65333333 0-20.48 6.82666667-27.30666667 13.65333333-6.82666667 6.82666667-13.65333333 13.65333333-13.65333333 27.30666667 0 6.82666667 6.82666667 20.48 13.65333333 27.30666667 13.65333333 13.65333333 40.96 13.65333333 54.61333334 0 6.82666667-6.82666667 6.82666667-20.48 6.82666666-27.30666667 0-13.65333333 0-20.48-6.82666666-27.30666667M614.4 512c-27.30666667 0-54.61333333-13.65333333-75.09333333-34.13333333-13.65333333-20.48-27.30666667-40.96-27.30666667-68.26666667s13.65333333-54.61333333 27.30666667-75.09333333c40.96-34.13333333 109.22666667-34.13333333 143.36 0 20.48 20.48 34.13333333 47.78666667 34.13333333 75.09333333 0 27.30666667-13.65333333 54.61333333-27.30666667 75.09333333-20.48 13.65333333-47.78666667 27.30666667-75.09333333 27.30666667" p-id="3105"></path></svg>