<?xml version="1.0" standalone="no"?><!DOCTYPE svg PUBLIC "-//W3C//DTD SVG 1.1//EN" "http://www.w3.org/Graphics/SVG/1.1/DTD/svg11.dtd"><svg class="icon" width="200px" height="200.00px" viewBox="0 0 1024 1024" version="1.1" xmlns="http://www.w3.org/2000/svg"><path d="M820.794 438.311c-17.078 0-30.925-13.847-30.925-30.925V257.938c0-13.318-10.834-24.156-24.152-24.156H619.39c-17.078 0-30.925-13.847-30.925-30.925s13.847-30.925 30.925-30.925h146.327c47.422 0 86.002 38.581 86.002 86.006v149.449c0 17.077-13.847 30.924-30.925 30.924zM765.717 855.407H254.249c-47.429 0-86.01-38.581-86.01-86.002V257.938c0-47.425 38.581-86.006 86.01-86.006H463.98c17.078 0 30.925 13.847 30.925 30.925s-13.847 30.925-30.925 30.925H254.249c-13.318 0-24.16 10.838-24.16 24.156v511.467c0 13.318 10.842 24.152 24.16 24.152h511.467c13.318 0 24.152-10.834 24.152-24.152V559.666c0-17.078 13.847-30.925 30.925-30.925s30.925 13.847 30.925 30.925v209.739c0.001 47.422-38.58 86.002-86.001 86.002z" fill="#ffffff" /><path d="M449.228 683.924a30.76 30.76 0 0 1-19.298-6.78c-13.333-10.668-15.5-30.125-4.824-43.465l342.966-428.704c10.668-13.337 30.132-15.504 43.465-4.832 13.333 10.668 15.5 30.132 4.824 43.465L473.396 672.32c-6.108 7.633-15.093 11.604-24.168 11.604z" fill="#ffffff" /></svg>