<?xml version="1.0" standalone="no"?><!DOCTYPE svg PUBLIC "-//W3C//DTD SVG 1.1//EN" "http://www.w3.org/Graphics/SVG/1.1/DTD/svg11.dtd"><svg class="icon" width="200px" height="200.00px" viewBox="0 0 1024 1024" version="1.1" xmlns="http://www.w3.org/2000/svg"><path d="M763.37 814.23c0 28.63-24.49 51.94-54.54 51.94h-393.5c-30.12-0.06-54.52-23.28-54.58-51.94V262.68h502.58v551.55h0.04zM369.98 169.42c0-6 4.89-10.66 11.2-10.66h262.49c6.31 0 11.2 4.65 11.2 10.66v31.3H369.95v-31.3h0.03z m557.2 31.3h-207.2v-31.3c-0.1-40.06-34.21-72.52-76.31-72.62H381.18c-42.11 0.08-76.23 32.54-76.31 72.62v31.3H96.97c-18.18 0-32.91 14.02-32.91 31.32s14.73 31.32 32.91 31.32h98v550.88c0 63.28 53.9 114.57 120.4 114.57h393.46c66.5 0 120.4-51.3 120.4-114.57V262.68h98c18.14 0 32.85-14 32.85-31.26v-0.04c-0.02-16.95-14.47-30.68-32.29-30.67-0.2 0-0.4 0-0.61 0.01zM512.07 772.27c18.14 0.02 32.87-13.96 32.89-31.23V407.87c0-17.3-14.73-31.32-32.91-31.32-18.18 0-32.91 14.02-32.91 31.32v333.06c-0.04 17.27 14.63 31.3 32.78 31.33 0.06 0.01 0.11 0.01 0.15 0.01z m-153.29 0c18.14 0.02 32.87-13.96 32.89-31.23V407.87c0-17.29-14.73-31.3-32.89-31.3-18.17 0-32.89 14.01-32.89 31.3v333.06c0.67 17.34 15.38 31.33 32.85 31.33h0.04z m306.59 0c18.14 0.04 32.89-13.93 32.93-31.19V407.87c0-17.3-14.73-31.32-32.91-31.32s-32.91 14.02-32.91 31.32v333.06c-0.04 17.27 14.63 31.3 32.78 31.33 0.03 0.01 0.07 0.01 0.11 0.01z" fill="#ffffff" /></svg>