<?xml version="1.0" standalone="no"?><!DOCTYPE svg PUBLIC "-//W3C//DTD SVG 1.1//EN" "http://www.w3.org/Graphics/SVG/1.1/DTD/svg11.dtd"><svg class="icon" width="200px" height="200.00px" viewBox="0 0 1024 1024" version="1.1" xmlns="http://www.w3.org/2000/svg"><path d="M751.808 851.875H259.517c-51.331 0-93.097-41.766-93.097-93.097V266.491c0-51.335 41.766-93.097 93.097-93.097h317.346c17.227 0 31.195 13.968 31.195 31.195s-13.968 31.195-31.195 31.195H259.517c-16.93 0-30.707 13.773-30.707 30.707v492.287c0 16.93 13.777 30.707 30.707 30.707h492.291c16.93 0 30.707-13.777 30.707-30.707V435.621c0-17.227 13.968-31.195 31.195-31.195s31.195 13.968 31.195 31.195v323.157c0 51.331-41.766 93.097-93.097 93.097z" fill="#ffffff" /><path d="M352.82 693.129c-8.301 0-16.58-3.29-22.718-9.809-11.812-12.536-11.218-32.284 1.325-44.096L792.325 205.13c12.543-11.82 32.284-11.218 44.096 1.318 11.812 12.543 11.218 32.284-1.325 44.096L374.197 684.645a31.076 31.076 0 0 1-21.377 8.484z" fill="#ffffff" /></svg>