<?xml version="1.0" standalone="no"?><!DOCTYPE svg PUBLIC "-//W3C//DTD SVG 1.1//EN" "http://www.w3.org/Graphics/SVG/1.1/DTD/svg11.dtd"><svg t="1561345730107" class="icon" viewBox="0 0 1024 1024" version="1.1" xmlns="http://www.w3.org/2000/svg" p-id="2038" xmlns:xlink="http://www.w3.org/1999/xlink" width="128" height="128"><defs><style type="text/css"></style></defs><path d="M671.288889 402.48888933H347.022222V260.26666633c0-73.955556 73.955556-136.533333 159.288889-136.533333s159.288889 62.577778 159.288889 136.533333v142.222223z m-119.466667 307.2V817.77777733c0 5.688889-5.688889 5.688889-5.688889 5.688889h-56.888889c-5.688889 0-5.688889-5.688889-5.688888-5.688889v-108.088888c-28.444444-11.377778-51.2-39.822222-51.2-68.266667 0-45.511111 39.822222-79.644444 79.644444-79.644445s79.644444 39.822222 79.644444 79.644445c0 34.133333-17.066667 56.888889-39.822222 68.266667z m295.822222-307.2h-73.955555V265.95555533C773.688889 123.73333333 654.222222 21.33333333 512 21.33333333S250.311111 123.73333333 250.311111 265.95555533v130.844445H176.355556C136.533333 396.80000033 113.777778 425.24444433 113.777778 459.37777733V931.55555533c0 39.822222 28.444444 62.577778 62.577778 62.577778h671.288888c39.822222 0 62.577778-28.444444 62.577778-62.577778V465.06666633c0-39.822222-22.755556-62.577778-62.577778-62.577777z" p-id="2039"></path></svg>