<?xml version="1.0" standalone="no"?><!DOCTYPE svg PUBLIC "-//W3C//DTD SVG 1.1//EN" "http://www.w3.org/Graphics/SVG/1.1/DTD/svg11.dtd"><svg t="1563247947570" class="icon" viewBox="0 0 1044 1024" version="1.1" xmlns="http://www.w3.org/2000/svg" p-id="3042" xmlns:xlink="http://www.w3.org/1999/xlink" width="130.5" height="128"><defs><style type="text/css"></style></defs><path d="M449.306122 0L0 426.318367v587.232653L1034.44898 0z" fill="#436B85" p-id="3043"></path><path d="M234.057143 486.922449l31.346939 33.436735-81.502041 79.412245 10.448979 10.448979 89.861225-87.771428 41.795918 41.795918-12.538775 12.538775-6.269388-6.269387-79.412245 75.232653 6.269388 6.269388-12.538776 12.538775-83.591836-85.681633 96.130612-91.95102z m-16.718367 148.37551l79.412244-75.232653-16.718367-16.718367-79.412245 75.232653 16.718368 16.718367z m-43.885715-45.97551l71.053061-68.963265-12.538775-12.538776-71.053061 68.963265 12.538775 12.538776z m62.693878-144.195918l29.257143 29.257142-12.538776 10.44898-18.808163-18.808163-117.028572 112.848979 18.808164 18.808164-10.44898 12.538775-29.257143-29.257143 64.783674-62.693877c-6.269388-2.089796-10.44898-4.179592-14.628572-6.269388l10.44898-12.538776h-2.089796c-2.089796-16.718367-6.269388-33.436735-14.628571-50.155102l14.628571-10.448979c2.089796 4.179592 4.179592 8.359184 6.269388 14.628571l48.065306-45.97551 10.448979 10.44898L188.081633 447.216327c8.359184 2.089796 14.628571 2.089796 20.897959 4.179591l-6.269388 14.628572c-8.359184-2.089796-16.718367-6.269388-27.167347-6.269388l-10.448979 10.44898 6.269387 25.077551-14.628571 4.179591c6.269388 0 10.44898 2.089796 16.718367 6.269388l62.693878-60.604081z m-142.106123 91.95102c2.089796 10.44898 4.179592 20.897959 4.179592 31.346939l-16.718367 4.179592c0-18.808163-4.179592-37.616327-10.44898-56.42449l12.538776-8.359184c2.089796 4.179592 4.179592 10.44898 6.269387 14.628572l43.885715-41.795919 10.448979 10.44898-27.167347 27.167347c8.359184 0 14.628571 2.089796 22.987756 4.179592l-6.269388 14.628571c-8.359184-4.179592-18.808163-6.269388-29.257143-8.359184l-10.44898 8.359184z m185.991837-211.069388l81.502041-77.322449 73.142857 77.322449-33.436735 33.436735 18.808164 18.808163 37.616326-35.52653 10.44898 10.448979-37.616327 35.526531 20.897959 20.897959 43.885715-41.795918 10.448979 10.448979-100.310204 96.130612-10.448979-10.448979 43.885714-41.795918-20.897959-20.89796-37.616327 35.526531-10.448979-10.44898 37.616326-35.52653-18.808163-18.808164-33.436735 31.346939-75.232653-77.322449z m133.746939 0l-20.897959-22.987755-22.987755 22.987755 20.897959 22.987755 22.987755-22.987755z m-35.526531 33.436735l-20.897959-22.987755-22.987755 22.987755 20.897959 22.987755 22.987755-22.987755z m-54.334694-10.44898l22.987755-22.987755-20.897959-22.987755-22.987755 22.987755 20.897959 22.987755z m14.628572-56.424489l20.897959 22.987755 22.987755-22.987755-20.897959-22.987756-22.987755 22.987756z m-62.693878 146.285714l18.808163-16.718367-37.616326-39.706123-20.897959 18.808163-10.44898-10.448979 52.244898-50.155102 10.44898 10.448979-20.897959 18.808164 37.616326 39.706122 18.808163-16.718367 10.44898 10.448979-18.808163 16.718368 35.52653 37.616326c4.179592-8.359184 8.359184-16.718367 10.44898-25.077551l10.448979 12.538776c-8.359184 20.897959-20.897959 41.795918-33.436734 62.693877l-14.628572-8.359184c6.269388-8.359184 12.538776-16.718367 16.718368-25.077551l-39.706123-41.795918-18.808163 16.718367-6.269388-10.448979z m292.571429-286.302041l60.604081 62.693878-12.538775 10.448979-48.065306-50.155102-87.771429 85.681633 50.155102 52.244898-12.538775 10.448979-60.604082-62.693877 110.759184-108.669388z m-154.644898 43.885714l91.95102-87.771428 39.706123 41.795918-91.951021 87.771429-39.706122-41.795919z m110.759184-45.97551l-18.808164-20.897959-68.963265 66.873469 18.808163 20.89796 68.963266-66.87347z m4.179591 83.591837l12.538776-10.44898c20.897959 27.167347 31.346939 48.065306 31.346939 64.783674 2.089796 18.808163-12.538776 43.885714-39.706123 77.322449l-14.628571-6.269388c25.077551-27.167347 37.616327-50.155102 37.616326-66.873469 0-18.808163-8.359184-37.616327-27.167347-58.514286z m52.244898 20.897959c27.167347-14.628571 54.334694-27.167347 79.412245-35.526531l2.089796 16.718368c-29.257143 8.359184-56.42449 18.808163-81.502041 33.436734v-14.628571z" fill="#FFFFFF" p-id="3044"></path></svg>