<?xml version="1.0" standalone="no"?><!DOCTYPE svg PUBLIC "-//W3C//DTD SVG 1.1//EN" "http://www.w3.org/Graphics/SVG/1.1/DTD/svg11.dtd"><svg t="1567585694857" class="icon" viewBox="0 0 1024 1024" version="1.1" xmlns="http://www.w3.org/2000/svg" p-id="8810" xmlns:xlink="http://www.w3.org/1999/xlink" width="48" height="48"><defs><style type="text/css"></style></defs><path d="M887.467 85.333H136.533c-28.16 0-51.2 23.04-51.2 51.2v750.934c0 28.16 23.04 51.2 51.2 51.2h750.934c28.16 0 51.2-23.04 51.2-51.2V136.533c0-28.16-23.04-51.2-51.2-51.2zM870.4 870.4H153.6V153.6h716.8v716.8z" p-id="8811"></path><path d="M477.867 362.667h-204.8c-18.774 0-34.134-15.36-34.134-34.134s15.36-34.133 34.134-34.133h204.8c18.773 0 34.133 15.36 34.133 34.133s-15.36 34.134-34.133 34.134z m0 187.733h-204.8c-18.774 0-34.134-15.36-34.134-34.133s15.36-34.134 34.134-34.134h204.8c18.773 0 34.133 15.36 34.133 34.134S496.64 550.4 477.867 550.4z m0 187.733h-204.8c-18.774 0-34.134-15.36-34.134-34.133s15.36-34.133 34.134-34.133h204.8C496.64 669.867 512 685.227 512 704s-15.36 34.133-34.133 34.133z m212.906-343.466c-13.226 13.226-34.986 13.226-48.213 0l-48.213-48.214c-13.227-13.226-13.227-34.986 0-48.213 13.226-13.227 34.986-13.227 48.213 0l48.213 48.213c13.227 13.654 13.227 34.987 0 48.214z"  p-id="8812"></path><path d="M775.253 310.187l-84.48 84.48c-13.226 13.226-34.986 13.226-48.213 0-13.227-13.227-13.227-34.987 0-48.214l84.48-84.48c13.227-13.226 34.987-13.226 48.213 0 13.227 13.654 13.227 34.987 0 48.214z m-84.48 459.946c-13.226 13.227-34.986 13.227-48.213 0l-48.213-48.213c-13.227-13.227-13.227-34.987 0-48.213 13.226-13.227 34.986-13.227 48.213 0l48.213 48.213c13.227 13.653 13.227 34.987 0 48.213z"  p-id="8813"></path><path d="M775.253 685.653l-84.48 84.48c-13.226 13.227-34.986 13.227-48.213 0-13.227-13.226-13.227-34.986 0-48.213l84.48-84.48c13.227-13.227 34.987-13.227 48.213 0 13.227 13.653 13.227 34.987 0 48.213zM744.96 576.427c-13.227 13.226-34.987 13.226-48.213 0l-72.534-72.534c-13.226-13.226-13.226-34.986 0-48.213 13.227-13.227 34.987-13.227 48.214 0l72.533 72.533c13.227 13.227 13.227 34.987 0 48.214z"  p-id="8814"></path><path d="M624.213 576.427c-13.226-13.227-13.226-34.987 0-48.214l72.534-72.533c13.226-13.227 34.986-13.227 48.213 0 13.227 13.227 13.227 34.987 0 48.213l-72.533 72.534a33.493 33.493 0 0 1-48.214 0z" p-id="8815"></path></svg>
