<?xml version="1.0" standalone="no"?><!DOCTYPE svg PUBLIC "-//W3C//DTD SVG 1.1//EN" "http://www.w3.org/Graphics/SVG/1.1/DTD/svg11.dtd"><svg class="icon" width="200px" height="200.00px" viewBox="0 0 1024 1024" version="1.1" xmlns="http://www.w3.org/2000/svg"><path d="M380.342857 131.657143c-51.2 29.257143-87.771429 80.457143-102.4 138.971428L256 438.857143c-14.628571 109.714286-43.885714 212.114286-95.085714 299.885714V731.428571c0 7.314286-7.314286 7.314286 0 14.628572 0 7.314286 0 7.314286 7.314285 14.628571 7.314286 14.628571 29.257143 21.942857 43.885715 21.942857h607.085714c14.628571 0 36.571429-7.314286 43.885714-21.942857 7.314286-7.314286 7.314286-21.942857 0-29.257143-43.885714-87.771429-73.142857-182.857143-87.771428-292.571428v-7.314286l-29.257143-160.914286c-14.628571-58.514286-43.885714-109.714286-95.085714-138.971428-43.885714-29.257143-87.771429-43.885714-138.971429-43.885714s-95.085714 14.628571-131.657143 43.885714zM212.114286 870.4c-51.2 0-95.085714-21.942857-117.028572-65.828571-14.628571-14.628571-21.942857-36.571429-21.942857-58.514286s7.314286-43.885714 14.628572-58.514286c36.571429-80.457143 65.828571-168.228571 80.457142-263.314286v-7.314285l29.257143-168.228572c14.628571-80.457143 65.828571-153.6 131.657143-197.485714C380.342857 21.942857 446.171429 0 512 0c65.828571 0 131.657143 21.942857 182.857143 58.514286 65.828571 43.885714 117.028571 117.028571 131.657143 197.485714l29.257143 168.228571c14.628571 102.4 43.885714 190.171429 80.457142 270.628572v-7.314286c7.314286 21.942857 14.628571 43.885714 14.628572 58.514286 0 21.942857-7.314286 43.885714-14.628572 58.514286-21.942857 36.571429-65.828571 65.828571-117.028571 65.828571H212.114286zM563.2 1024H460.8c-21.942857 0-43.885714-21.942857-43.885714-43.885714s21.942857-43.885714 43.885714-43.885715h102.4c21.942857 0 43.885714 21.942857 43.885714 43.885715s-21.942857 43.885714-43.885714 43.885714z"  /><path d="M263.314286 380.342857c-21.942857 0-43.885714-21.942857-43.885715-43.885714s21.942857-43.885714 43.885715-43.885714h497.371428c21.942857 0 43.885714 21.942857 43.885715 43.885714s-21.942857 43.885714-43.885715 43.885714H263.314286z"  /></svg>