<?xml version="1.0" standalone="no"?><!DOCTYPE svg PUBLIC "-//W3C//DTD SVG 1.1//EN" "http://www.w3.org/Graphics/SVG/1.1/DTD/svg11.dtd"><svg t="1567666865292" class="icon" viewBox="0 0 1194 1024" version="1.1" xmlns="http://www.w3.org/2000/svg" p-id="7018" xmlns:xlink="http://www.w3.org/1999/xlink" width="149.25" height="128"><defs><style type="text/css"></style></defs><path d="M0 153.6C0 68.266667 68.266667 0 145.066667 0h896c85.333333 0 145.066667 68.266667 145.066666 145.066667V768c0 42.666667-17.066667 76.8-42.666666 102.4-25.6 25.6-68.266667 42.666667-102.4 42.666667H349.866667c-51.2 0-119.466667 17.066667-162.133334 42.666666l-17.066666 8.533334c-85.333333 42.666667-162.133333-8.533333-162.133334-102.4V153.6z m102.4 0v725.333333c0 17.066667 0 17.066667 17.066667 8.533334l17.066666-8.533334c59.733333-25.6 145.066667-51.2 213.333334-51.2h699.733333c25.6 0 51.2-25.6 51.2-51.2V153.6c0-25.6-25.6-51.2-51.2-51.2H145.066667c-25.6 0-42.666667 25.6-42.666667 51.2z" p-id="7019"></path><path d="M348.074667 424.106667c34.133333 0 51.2 17.066667 51.2 51.2 0 34.133333-17.066667 51.2-51.2 51.2-34.133333 0-51.2-17.066667-51.2-51.2 0-34.133333 17.066667-51.2 51.2-51.2M595.541333 424.106667c34.133333 0 51.2 17.066667 51.2 51.2 0 34.133333-17.066667 51.2-51.2 51.2s-51.2-17.066667-51.2-51.2c0-34.133333 17.066667-51.2 51.2-51.2M843.008 424.106667c34.133333 0 51.2 17.066667 51.2 51.2 0 34.133333-17.066667 51.2-51.2 51.2-34.133333 0-51.2-17.066667-51.2-51.2 0-34.133333 17.066667-51.2 51.2-51.2" p-id="7020"></path></svg>