<?xml version="1.0" standalone="no"?><!DOCTYPE svg PUBLIC "-//W3C//DTD SVG 1.1//EN" "http://www.w3.org/Graphics/SVG/1.1/DTD/svg11.dtd"><svg t="1561615745662" class="icon" viewBox="0 0 1024 1024" version="1.1" xmlns="http://www.w3.org/2000/svg" p-id="2542" xmlns:xlink="http://www.w3.org/1999/xlink" width="128" height="128"><defs><style type="text/css"></style></defs><path d="M841.142857 1024h-658.285714C80.457143 1024 0 943.542857 0 841.142857v-658.285714C0 80.457143 80.457143 0 182.857143 0h658.285714C943.542857 0 1024 80.457143 1024 182.857143v658.285714c0 102.4-80.457143 182.857143-182.857143 182.857143z m-658.285714-950.857143C124.342857 73.142857 73.142857 124.342857 73.142857 182.857143v658.285714c0 58.514286 51.2 109.714286 109.714286 109.714286h658.285714c58.514286 0 109.714286-51.2 109.714286-109.714286v-658.285714c0-58.514286-51.2-109.714286-109.714286-109.714286h-658.285714z" p-id="2543"></path><path d="M263.314286 468.114286h504.685714v87.771428H263.314286z" p-id="2544"></path></svg>