<?xml version="1.0" standalone="no"?><!DOCTYPE svg PUBLIC "-//W3C//DTD SVG 1.1//EN" "http://www.w3.org/Graphics/SVG/1.1/DTD/svg11.dtd"><svg t="1560231859131" class="icon" style="" viewBox="0 0 1024 1024" version="1.1" xmlns="http://www.w3.org/2000/svg" p-id="1184" xmlns:xlink="http://www.w3.org/1999/xlink" width="128" height="128"><defs><style type="text/css"></style></defs><path d="M785.92 0H232.96C186.88 0 151.04 35.84 151.04 81.92v834.56c0 46.08 35.84 81.92 81.92 81.92h558.08c46.08 0 81.92-35.84 81.92-81.92V81.92C867.84 35.84 832 0 785.92 0zM232.96 81.92h558.08V665.6H232.96V81.92z m552.96 834.56H232.96v-174.08h558.08v174.08h-5.12z m-240.64-128H478.72c-20.48 0-40.96 15.36-40.96 40.96s15.36 40.96 40.96 40.96h66.56c20.48 0 40.96-15.36 40.96-40.96s-15.36-40.96-40.96-40.96z" p-id="1185"></path></svg>
