<?xml version="1.0" standalone="no"?><!DOCTYPE svg PUBLIC "-//W3C//DTD SVG 1.1//EN" "http://www.w3.org/Graphics/SVG/1.1/DTD/svg11.dtd"><svg t="1571822397831" class="icon" viewBox="0 0 1024 1024" version="1.1" xmlns="http://www.w3.org/2000/svg" p-id="8026" xmlns:xlink="http://www.w3.org/1999/xlink" width="48" height="48"><defs><style type="text/css"></style></defs><path d="M336.457143 490.057143c0-80.457143 65.828571-153.6 153.6-153.6 80.457143 0 153.6 65.828571 153.6 153.6 0 80.457143-65.828571 153.6-153.6 153.6-80.457143-7.314286-153.6-73.142857-153.6-153.6m373.028571 0c0-117.028571-95.085714-219.428571-219.428571-219.428572-117.028571 0-219.428571 95.085714-219.428572 219.428572 0 117.028571 95.085714 219.428571 219.428572 219.428571 124.342857-7.314286 219.428571-102.4 219.428571-219.428571" p-id="8027"></path><path d="M402.285714 833.828571c29.257143 0 58.514286 7.314286 95.085715 7.314286 29.257143 0 58.514286 0 80.457142-7.314286v7.314286l51.2 124.342857H351.085714l51.2-131.657143zM138.971429 416.914286C138.971429 219.428571 299.885714 65.828571 490.057143 65.828571c197.485714 0 351.085714 160.914286 351.085714 351.085715 0 197.485714-160.914286 351.085714-351.085714 351.085714S138.971429 614.4 138.971429 416.914286z m636.342857 541.257143H694.857143l-58.514286-146.285715c160.914286-58.514286 277.942857-212.114286 277.942857-394.971428C906.971429 190.171429 724.114286 0 490.057143 0S73.142857 190.171429 73.142857 416.914286c0 175.542857 109.714286 329.142857 270.628572 387.657143l-58.514286 146.285714h-58.514286c-14.628571 0-21.942857 7.314286-29.257143 14.628571-7.314286 7.314286-7.314286 21.942857 0 29.257143 7.314286 21.942857 14.628571 29.257143 29.257143 29.257143h548.571429c14.628571 0 21.942857-7.314286 29.257143-14.628571 7.314286-7.314286 7.314286-21.942857 0-29.257143-7.314286-14.628571-21.942857-21.942857-29.257143-21.942857z" p-id="8028"></path><path d="M446.171429 190.171429c0 14.628571 7.314286 29.257143 14.628571 36.571428 7.314286 7.314286 21.942857 14.628571 36.571429 14.628572 14.628571-7.314286 21.942857-7.314286 36.571428-21.942858 7.314286-7.314286 14.628571-21.942857 14.628572-36.571428s-7.314286-29.257143-14.628572-36.571429c-14.628571-7.314286-21.942857-7.314286-36.571428-7.314285s-29.257143 7.314286-36.571429 14.628571c-7.314286 7.314286-14.628571 21.942857-14.628571 36.571429" p-id="8029"></path></svg>