<?xml version="1.0" standalone="no"?><!DOCTYPE svg PUBLIC "-//W3C//DTD SVG 1.1//EN" "http://www.w3.org/Graphics/SVG/1.1/DTD/svg11.dtd"><svg t="1561377804086" class="icon" viewBox="0 0 1024 1024" version="1.1" xmlns="http://www.w3.org/2000/svg" p-id="2534" xmlns:xlink="http://www.w3.org/1999/xlink" width="128" height="128"><defs><style type="text/css"></style></defs><path d="M931.352381 204.8v750.933333c0 39.009524-29.257143 68.266667-68.266667 68.266667H141.409524C102.4 1024 73.142857 989.866667 73.142857 955.733333V68.266667C73.142857 29.257143 102.4 0 141.409524 0h594.895238l195.047619 204.8z" fill="#25B864" p-id="2535"></path><path d="M419.352381 380.342857c-24.380952 9.752381-43.885714 34.133333-43.885714 53.638095V633.904762s-14.628571-9.752381-48.761905-4.876191c-48.761905 4.87619-87.771429 39.009524-87.771429 78.019048 0 34.133333 39.009524 58.514286 87.771429 53.638095 48.761905-9.752381 87.771429-39.009524 87.771428-78.019047v-170.666667c0-14.628571 19.504762-24.380952 19.504762-24.380952L609.52381 438.857143s19.504762-4.87619 19.504761 9.752381V585.142857s-19.504762-9.752381-48.761904-4.87619c-48.761905 4.87619-87.771429 39.009524-87.771429 73.142857s39.009524 58.514286 87.771429 53.638095c48.761905-4.87619 87.771429-39.009524 87.771428-73.142857V355.961905c0-24.380952-19.504762-39.009524-43.885714-29.257143L419.352381 380.342857z" fill="#FFFFFF" p-id="2536"></path><path d="M931.352381 204.8h-131.657143c-34.133333 0-68.266667-29.257143-68.266667-68.266667V0l199.92381 204.8z" fill="#79D4A0" p-id="2537"></path></svg>