<?xml version="1.0" standalone="no"?><!DOCTYPE svg PUBLIC "-//W3C//DTD SVG 1.1//EN" "http://www.w3.org/Graphics/SVG/1.1/DTD/svg11.dtd"><svg t="1596011438808" class="icon" viewBox="0 0 1024 1024" version="1.1" xmlns="http://www.w3.org/2000/svg" p-id="38701" xmlns:xlink="http://www.w3.org/1999/xlink" width="128" height="128"><defs><style type="text/css"></style></defs><path d="M950.857143 512c0-241.371429-197.485714-438.857143-438.857143-438.857143S73.142857 270.628571 73.142857 512s197.485714 438.857143 438.857143 438.857143 438.857143-197.485714 438.857143-438.857143M0 512c0-285.257143 226.742857-512 512-512 277.942857 0 512 226.742857 512 512s-226.742857 512-512 512c-277.942857 0-512-226.742857-512-512" p-id="38702"></path><path d="M431.542857 512c0 7.314286 0 14.628571-7.314286 21.942857l-36.571428 87.771429L658.285714 512 387.657143 402.285714l36.571428 95.085715s7.314286 7.314286 7.314286 14.628571M299.885714 658.285714c0-7.314286 0-14.628571 7.314286-21.942857L358.4 512l-58.514286-131.657143c-7.314286-14.628571 0-36.571429 14.628572-51.2 14.628571-14.628571 36.571429-21.942857 58.514285-14.628571l358.4 146.285714c21.942857 14.628571 29.257143 29.257143 29.257143 51.2 0 21.942857-14.628571 43.885714-29.257143 51.2l-358.4 146.285714c-21.942857 7.314286-43.885714 0-58.514285-14.628571-14.628571-7.314286-14.628571-21.942857-14.628572-36.571429" p-id="38703"></path></svg>