<?xml version="1.0" standalone="no"?><!DOCTYPE svg PUBLIC "-//W3C//DTD SVG 1.1//EN" "http://www.w3.org/Graphics/SVG/1.1/DTD/svg11.dtd"><svg t="1565943355128" class="icon" viewBox="0 0 1024 1024" version="1.1" xmlns="http://www.w3.org/2000/svg" p-id="5047" xmlns:xlink="http://www.w3.org/1999/xlink" width="48" height="48"><defs><style type="text/css"></style></defs><path d="M0 446.171429V124.342857C0 7.314286 65.828571 0 124.342857 0h512c95.085714 0 131.657143 36.571429 131.657143 124.342857v65.828572c0 51.2-65.828571 43.885714-65.828571 0v-58.514286c0-43.885714-14.628571-65.828571-65.828572-65.828572h-512c-51.2 0-58.514286 7.314286-58.514286 65.828572v636.342857c0 36.571429 21.942857 65.828571 65.828572 65.828571h124.342857c36.571429 0 43.885714 65.828571 0 65.828572H102.4c-43.885714 0-80.457143-29.257143-95.085714-73.142857-7.314286-14.628571-7.314286-29.257143-7.314286-36.571429V446.171429" p-id="5048"></path><path d="M258.121143 381.659429c51.2 0 43.885714 65.828571 0 65.828571h-65.828572c-51.2 0-43.885714-65.828571 0-65.828571h65.828572m314.514286-190.171429c51.2 0 43.885714 65.828571 0 65.828571h-380.342858c-51.2 0-43.885714-65.828571 0-65.828571h380.342858m65.828571 190.171429c-138.971429 0-256 117.028571-256 256s117.028571 256 256 256 256-109.714286 256-256c0-138.971429-117.028571-256-256-256m0 577.828571c-175.542857 0-314.514286-138.971429-314.514286-321.828571 0-175.542857 146.285714-321.828571 321.828572-321.828572 175.542857 0 314.514286 146.285714 314.514285 321.828572-7.314286 175.542857-146.285714 321.828571-321.828571 321.828571" p-id="5049"></path><path d="M575.049143 523.044571l7.314286 7.314286 51.2 51.2 51.2-51.2 7.314285-7.314286 14.628572-14.628571c14.628571-14.628571 36.571429-14.628571 51.2 0 14.628571 14.628571 14.628571 36.571429 0 51.2l-73.142857 73.142857 80.457142 80.457143c14.628571 14.628571 14.628571 36.571429 0 51.2-14.628571 14.628571-36.571429 14.628571-51.2 0l-21.942857-21.942857s-7.314286 0-7.314285-7.314286l-51.2-51.2-51.2 51.2-7.314286 7.314286-21.942857 21.942857c-14.628571 14.628571-36.571429 14.628571-51.2 0-14.628571-14.628571-14.628571-36.571429 0-51.2l80.457143-80.457143-80.457143-80.457143c-14.628571-14.628571-14.628571-36.571429 0-51.2 14.628571-14.628571 36.571429-14.628571 51.2 0l21.942857 21.942857z" p-id="5050"></path></svg>