<?xml version="1.0" standalone="no"?><!DOCTYPE svg PUBLIC "-//W3C//DTD SVG 1.1//EN" "http://www.w3.org/Graphics/SVG/1.1/DTD/svg11.dtd"><svg class="icon" width="200px" height="200.00px" viewBox="0 0 1024 1024" version="1.1" xmlns="http://www.w3.org/2000/svg"><path d="M941.79314 476.445849H547.554151V82.20686c211.720938 21.902166 372.336823 182.51805 394.238989 394.238989M511.050541 1.898918c-7.300722 0-21.902166 7.300722-29.202888 14.601444s-7.300722 14.601444-7.300722 21.902166V512.949459c0 7.300722 7.300722 21.902166 14.601444 29.202888 0 7.300722 14.601444 7.300722 21.902166 7.300722h474.546931c7.300722 0 21.902166-7.300722 29.202888-14.601444 0 0 7.300722-14.601444 7.300722-21.902166 0-284.728159-226.322382-511.050541-511.050541-511.050541"  /><path d="M992.898194 607.858845c-21.902166-7.300722-43.804332 7.300722-51.105054 29.202888-58.405776 189.818772-226.322382 313.931047-423.441877 313.931047C277.427437 950.99278 73.00722 753.873285 73.00722 505.648737c0-197.119494 124.112274-365.036101 313.931047-423.441877 29.202888-7.300722 36.50361-29.202888 29.202888-51.105054C408.840433 9.19964 386.938267-5.401804 365.036101 1.898918 146.01444 74.906138 0 272.025632 0 505.648737 0 790.376895 233.623105 1024 518.351263 1024c233.623105 0 430.742599-146.01444 496.449097-365.036101 14.601444-21.902166 0-43.804332-21.902166-51.105054"  /></svg>