<?xml version="1.0" standalone="no"?><!DOCTYPE svg PUBLIC "-//W3C//DTD SVG 1.1//EN" "http://www.w3.org/Graphics/SVG/1.1/DTD/svg11.dtd"><svg t="1567666868402" class="icon" viewBox="0 0 1194 1024" version="1.1" xmlns="http://www.w3.org/2000/svg" p-id="7145" xmlns:xlink="http://www.w3.org/1999/xlink" width="149.25" height="128"><defs><style type="text/css"></style></defs><path d="M290.133333 93.866667c-102.4 0-187.733333 85.333333-187.733333 196.266666v443.733334c0 102.4 85.333333 196.266667 187.733333 196.266666h622.933334c102.4 0 187.733333-85.333333 187.733333-196.266666V290.133333c0-102.4-85.333333-196.266667-187.733333-196.266666H290.133333zM904.533333 1024H290.133333C128 1024 0 896 0 733.866667V290.133333C0 128 128 0 290.133333 0h622.933334C1066.666667 0 1194.666667 128 1194.666667 290.133333v443.733334c0 162.133333-128 290.133333-290.133334 290.133333z" p-id="7146"></path><path d="M742.4 486.4z m0 51.2zM571.733333 426.666667v170.666666l128-85.333333-128-85.333333z m-25.6 290.133333c-8.533333 0-25.6 0-34.133333-8.533333-25.6-17.066667-34.133333-34.133333-34.133333-59.733334V375.466667c0-25.6 8.533333-51.2 34.133333-59.733334 17.066667-17.066667 42.666667-8.533333 68.266667 0l213.333333 136.533334c17.066667 8.533333 25.6 34.133333 25.6 59.733333 0 25.6-8.533333 51.2-34.133333 59.733333L571.733333 708.266667c-8.533333 8.533333-17.066667 8.533333-25.6 8.533333z" p-id="7147"></path></svg>