<?xml version="1.0" standalone="no"?><!DOCTYPE svg PUBLIC "-//W3C//DTD SVG 1.1//EN" "http://www.w3.org/Graphics/SVG/1.1/DTD/svg11.dtd"><svg class="icon" width="200px" height="200.00px" viewBox="0 0 1024 1024" version="1.1" xmlns="http://www.w3.org/2000/svg"><path d="M848.457143 943.542857H160.914286c-7.314286 0-14.628571-7.314286-14.628572-7.314286V87.771429c0-7.314286 7.314286-7.314286 14.628572-7.314286h468.114285v182.857143c0 36.571429 29.257143 58.514286 58.514286 58.514285h168.228572v614.4c7.314286 7.314286 0 7.314286-7.314286 7.314286z m-7.314286-687.542857H687.542857V80.457143l153.6 175.542857zM716.8 0H146.285714C109.714286 0 73.142857 36.571429 73.142857 73.142857v877.714286c0 36.571429 36.571429 73.142857 73.142857 73.142857h716.8c43.885714 0 73.142857-29.257143 73.142857-73.142857V256L716.8 0z"  /><path d="M746.057143 702.171429c0 21.942857-14.628571 36.571429-36.571429 36.571428H314.514286c-21.942857 0-36.571429-14.628571-36.571429-36.571428s14.628571-36.571429 36.571429-36.571429h394.971428c21.942857 0 36.571429 14.628571 36.571429 36.571429m0-197.485715c0 21.942857-14.628571 36.571429-36.571429 36.571429H314.514286c-21.942857 7.314286-36.571429-14.628571-36.571429-36.571429s14.628571-36.571429 36.571429-36.571428h394.971428c21.942857 0 36.571429 14.628571 36.571429 36.571428M563.2 314.514286c0 21.942857-14.628571 36.571429-36.571429 36.571428H314.514286c-21.942857 0-43.885714-14.628571-43.885715-36.571428s21.942857-43.885714 43.885715-43.885715h212.114285c21.942857 0 36.571429 21.942857 36.571429 43.885715"  /></svg>