<?xml version="1.0" standalone="no"?><!DOCTYPE svg PUBLIC "-//W3C//DTD SVG 1.1//EN" "http://www.w3.org/Graphics/SVG/1.1/DTD/svg11.dtd"><svg t="1590041737051" class="icon" viewBox="0 0 1024 1024" version="1.1" xmlns="http://www.w3.org/2000/svg" p-id="18710" xmlns:xlink="http://www.w3.org/1999/xlink" width="128" height="128"><defs><style type="text/css"></style></defs><path d="M680.228571 358.4H336.457143c-21.942857 0-36.571429 14.628571-36.571429 36.571429s14.628571 43.885714 36.571429 43.885714h336.457143c21.942857 0 36.571429-14.628571 36.571428-36.571429 7.314286-21.942857-14.628571-43.885714-29.257143-43.885714m0 190.171429H336.457143c-21.942857 0-36.571429 14.628571-36.571429 36.571428s14.628571 36.571429 36.571429 36.571429h336.457143c21.942857 0 36.571429-14.628571 36.571428-36.571429 7.314286-21.942857-14.628571-36.571429-29.257143-36.571428m-190.171428 190.171428H336.457143c-21.942857 0-36.571429 14.628571-36.571429 36.571429s14.628571 36.571429 36.571429 36.571428h153.6c21.942857 0 36.571429-14.628571 36.571428-36.571428s-14.628571-36.571429-36.571428-36.571429" p-id="18711"></path><path d="M863.085714 833.828571c0 65.828571-51.2 109.714286-109.714285 109.714286H263.314286c-65.828571 0-109.714286-51.2-109.714286-109.714286V263.314286c0-65.828571 51.2-109.714286 109.714286-109.714286H292.571429c14.628571 43.885714 58.514286 73.142857 102.4 73.142857h226.742857c51.2 0 87.771429-29.257143 102.4-73.142857h29.257143c65.828571 0 109.714286 51.2 109.714285 109.714286v570.514285zM394.971429 80.457143h226.742857c21.942857 0 36.571429 14.628571 36.571428 36.571428s-14.628571 36.571429-36.571428 36.571429H394.971429c-21.942857 0-36.571429-14.628571-36.571429-36.571429s14.628571-36.571429 36.571429-36.571428z m358.4 0h-29.257143C709.485714 36.571429 672.914286 0 621.714286 0H394.971429C343.771429 0 307.2 29.257143 292.571429 73.142857h-29.257143C160.914286 80.457143 73.142857 160.914286 73.142857 263.314286v563.2C73.142857 936.228571 160.914286 1024 263.314286 1024h490.057143c102.4 0 190.171429-87.771429 190.171428-190.171429V263.314286c0-102.4-87.771429-182.857143-190.171428-182.857143z" p-id="18712"></path></svg>