<?xml version="1.0" standalone="no"?><!DOCTYPE svg PUBLIC "-//W3C//DTD SVG 1.1//EN" "http://www.w3.org/Graphics/SVG/1.1/DTD/svg11.dtd"><svg t="1563525020607" class="icon" viewBox="0 0 1024 1024" version="1.1" xmlns="http://www.w3.org/2000/svg" p-id="3442" xmlns:xlink="http://www.w3.org/1999/xlink" width="128" height="128"><defs><style type="text/css"></style></defs><path d="M672.168171 0c-76.322981 31.801242-273.490683 12.720497-318.012422 57.242236-69.962733 63.602484-63.602484 178.086957-69.962733 267.130435-108.124224-12.720497 12.720497 159.006211 44.521739 190.807453 38.161491 38.161491 69.962733 57.242236 69.962733 120.844721-12.720497 120.84472-235.329193 120.84472-305.291926 190.807453-133.565217 139.925466 286.21118 190.807453 394.335404 197.167702 76.322981 0 546.981366-50.881988 457.937888-171.726708-82.68323-114.484472-330.732919-108.124224-330.732919-203.52795 0-57.242236 38.161491-95.403727 76.322981-133.565218 31.801242-31.801242 146.285714-203.52795 44.521739-184.447205 19.080745-152.645963-50.881988-203.52795-63.602484-330.732919" p-id="3443"></path></svg>