<?xml version="1.0" standalone="no"?><!DOCTYPE svg PUBLIC "-//W3C//DTD SVG 1.1//EN" "http://www.w3.org/Graphics/SVG/1.1/DTD/svg11.dtd"><svg t="1565943097962" class="icon" viewBox="0 0 1024 1024" version="1.1" xmlns="http://www.w3.org/2000/svg" p-id="4892" xmlns:xlink="http://www.w3.org/1999/xlink" width="48" height="48"><defs><style type="text/css"></style></defs><path d="M40.82119111 479.97496889c0-133.19054222-0.12288-183.18108445-0.12288-316.37276444 0-115.45258667 64.08874667-122.97329778 125.70510222-122.97329778h502.82154667c96.85674667 0 126.80874667 32.95914667 126.80874667 125.70282666v62.85198222c0 49.56387555-63.05450667 43.88408889-63.05450667 0V166.33173333c0-46.55559111-15.14268445-62.85084445-63.75537778-62.85084444H166.40227555c-52.04878222 0-62.85198222 7.05763555-62.85198222 62.85084444v628.51640889c0 34.44963555 18.85525333 62.85198222 62.85198222 62.85198223 76.23566222 0 49.47285333 0.02958222 125.70624 0 38.42275555 0 41.24672 62.85198222 0 62.85198222s-72.48896 0.50062222-149.39704888 0.19342222c-45.35978667-0.18545778-82.92465778-27.04952889-96.30492445-68.63303111-3.74556445-11.63150222-5.34072889-24.49066667-5.34072889-36.79573333-0.36750222-132.73088-0.24462222-202.61091555-0.24462222-335.34179556" p-id="4893"></path><path d="M668.60828445 983.37109333c-173.33361778-0.03072-313.64664889-140.55765333-313.6466489-314.16547555 0-173.60896 140.98773333-314.32135111 314.62855112-314.07445333 173.64309333 0.24462222 313.89468445 141.10947555 313.71036444 315.02563555-0.18204445 173.21073778-140.86485333 313.24615111-314.69226666 313.21429333m0.86016-565.32536888c-137.79512889-0.30833778-251.04042667 112.44430222-251.3464889 250.3623111-0.3072 138.28664889 111.89475555 251.37379555 249.81162667 251.77543112 138.47210667 0.36864 252.02346667-111.73888 252.33066667-249.22680889 0.36864-139.48472889-111.77073778-252.57528889-250.79580444-252.91093333m-63.09546667-189.28298667c50.08497778 0.03072 43.21052445 63.69166222 0 63.69166222h-377.11644445c-47.13927111 0-45.17432889-63.69166222 0-63.69166222 123.74016-0.03072 328.99413333-0.03072 377.11644445 0zM292.10851555 417.31640889c50.08611555 0.03185778 43.21166222 63.6928 0 63.6928h-62.85312c-47.13927111 0-45.17432889-63.6928 0-63.6928 123.74129778-0.03072 14.73194667-0.03072 62.85312 0z" p-id="4894"></path><path d="M823.18449778 552.07253333c-14.21767111-14.21994667-37.27132445-14.21994667-51.48899556 0L614.57180445 709.19509333l-48.00398223-48.00398222c-14.21994667-14.21767111-37.27132445-14.21767111-51.49127111 0-14.21767111 14.21880889-14.21767111 37.27246222 0 51.49127111l73.74848 73.74848c7.10997333 7.10883555 16.42723555 10.66325333 25.74563556 10.66325333s18.63566222-3.55441778 25.74563555-10.66325333a36.89130667 36.89130667 0 0 0 2.73294223-3.06631111 36.75477333 36.75477333 0 0 0 3.05948444-2.72725333l177.07576889-177.07576889c14.21880889-14.21767111 14.21880889-37.27132445 0-51.48899556z" p-id="4895"></path></svg>