<?xml version="1.0" standalone="no"?><!DOCTYPE svg PUBLIC "-//W3C//DTD SVG 1.1//EN" "http://www.w3.org/Graphics/SVG/1.1/DTD/svg11.dtd"><svg t="1565581380487" class="icon" viewBox="0 0 1024 1024" version="1.1" xmlns="http://www.w3.org/2000/svg" p-id="7726" xmlns:xlink="http://www.w3.org/1999/xlink" width="48" height="48"><defs><style type="text/css"></style></defs><path d="M512 1024c283.306667 0 512-228.693333 512-512S795.306667 0 512 0 0 228.693333 0 512s228.693333 512 512 512z" fill="#FDB33A" p-id="7727"></path><path d="M523.946667 494.933333h-129.706667c-5.12 0-8.533333-3.413333-8.533333-8.533333s3.413333-8.533333 8.533333-8.533333h129.706667c5.12 0 8.533333 3.413333 8.533333 8.533333s-3.413333 8.533333-8.533333 8.533333m59.733333-71.68H394.24c-5.12 0-8.533333-3.413333-8.533333-8.533333s3.413333-8.533333 8.533333-8.533333h189.44c5.12 0 8.533333 3.413333 8.533333 8.533333 0 3.413333-3.413333 8.533333-8.533333 8.533333" fill="#FFFFFF" p-id="7728"></path><path d="M471.04 716.8h-109.226667c-30.72 0-54.613333-25.6-54.613333-54.613333V361.813333c0-30.72 23.893333-54.613333 54.613333-54.613333h245.76c30.72 0 54.613333 23.893333 54.613334 54.613333v102.4c0 5.12-3.413333 8.533333-8.533334 8.533334s-8.533333-3.413333-8.533333-8.533334v-102.4c0-20.48-17.066667-37.546667-37.546667-37.546666H361.813333C341.333333 324.266667 324.266667 341.333333 324.266667 361.813333v300.373334c0 20.48 17.066667 37.546667 37.546666 37.546666h109.226667c5.12 0 8.533333 3.413333 8.533333 8.533334s-3.413333 8.533333-8.533333 8.533333" fill="#FFFFFF" p-id="7729"></path><path d="M604.16 515.413333c-52.906667 0-95.573333 44.373333-95.573333 98.986667 0 54.613333 42.666667 98.986667 95.573333 98.986667 52.906667 0 95.573333-44.373333 95.573333-98.986667 0-54.613333-42.666667-98.986667-95.573333-98.986667m0 215.04c-61.44 0-110.933333-51.2-110.933333-116.053333 0-63.146667 49.493333-116.053333 110.933333-116.053333s110.933333 51.2 110.933333 116.053333c1.706667 63.146667-47.786667 116.053333-110.933333 116.053333M465.92 563.2h-68.266667c-5.12 0-8.533333-3.413333-8.533333-8.533333s3.413333-8.533333 8.533333-8.533334h68.266667c5.12 0 8.533333 3.413333 8.533333 8.533334s-3.413333 8.533333-8.533333 8.533333" fill="#FFFFFF" p-id="7730"></path><path d="M602.453333 645.12c-1.706667 0-3.413333 0-5.12-1.706667l-25.6-25.6c-3.413333-3.413333-3.413333-8.533333 0-11.946666 3.413333-3.413333 8.533333-3.413333 11.946667 0l25.6 25.6c3.413333 3.413333 3.413333 8.533333 0 11.946666-1.706667 0-5.12 1.706667-6.826667 1.706667" fill="#FFFFFF" p-id="7731"></path><path d="M602.453333 645.12c-1.706667 0-3.413333 0-5.12-1.706667-3.413333-3.413333-3.413333-8.533333 0-11.946666l42.666667-44.373334c3.413333-3.413333 8.533333-3.413333 11.946667 0 3.413333 3.413333 3.413333 8.533333 0 11.946667l-42.666667 44.373333c-1.706667 0-5.12 1.706667-6.826667 1.706667" fill="#FFFFFF" p-id="7732"></path></svg>