<?xml version="1.0" standalone="no"?><!DOCTYPE svg PUBLIC "-//W3C//DTD SVG 1.1//EN"
    "http://www.w3.org/Graphics/SVG/1.1/DTD/svg11.dtd">
<svg t="1578997213794" class="icon" viewBox="0 0 1024 1024" version="1.1" xmlns="http://www.w3.org/2000/svg"
     p-id="12951" xmlns:xlink="http://www.w3.org/1999/xlink" width="48" height="48">
    <defs>
        <style type="text/css"></style>
    </defs>
    <path
        d="M513.4336 12.4928c278.528 0 503.808 225.28 503.808 503.808s-225.28 503.808-503.808 503.808-503.808-225.28-503.808-503.808c-4.096-278.528 225.28-503.808 503.808-503.808z m0 73.728c-237.568 0-434.176 192.512-434.176 434.176 0 237.568 192.512 434.176 434.176 434.176 237.568 0 434.176-192.512 434.176-434.176-4.096-241.664-196.608-434.176-434.176-434.176z m-143.36 241.664c32.768 12.288 61.44 40.96 73.728 73.728 8.192 20.48 12.288 40.96 12.288 61.44v8.192l294.912 114.688c16.384 8.192 24.576 24.576 20.48 40.96v4.096l-28.672 69.632c-4.096 12.288-20.48 24.576-32.768 24.576-4.096 0-8.192 0-12.288-4.096-16.384-8.192-24.576-20.48-20.48-36.864-4.096 4.096-12.288 4.096-20.48 4.096-4.096 0-8.192 0-12.288-4.096-16.384-8.192-24.576-24.576-20.48-40.96v-4.096l8.192-24.576-204.8-77.824c-12.288 16.384-32.768 32.768-53.248 40.96-16.384 8.192-36.864 12.288-53.248 12.288s-32.768-4.096-49.152-8.192c-69.632-28.672-106.496-106.496-77.824-176.128 12.288-32.768 40.96-61.44 73.728-73.728 32.768-16.384 69.632-16.384 102.4-4.096z m-49.152 61.44c-8.192 0-16.384 0-24.576 4.096-16.384 8.192-28.672 20.48-32.768 36.864-12.288 32.768 4.096 69.632 36.864 81.92 16.384 8.192 32.768 4.096 49.152 0 16.384-8.192 28.672-20.48 32.768-36.864 8.192-16.384 4.096-32.768 0-49.152-8.192-16.384-20.48-28.672-36.864-32.768-8.192 0-16.384-4.096-24.576-4.096z"
        p-id="12952"></path>
</svg>
