<?xml version="1.0" standalone="no"?><!DOCTYPE svg PUBLIC "-//W3C//DTD SVG 1.1//EN" "http://www.w3.org/Graphics/SVG/1.1/DTD/svg11.dtd"><svg t="1560231876776" class="icon" style="" viewBox="0 0 1216 1024" version="1.1" xmlns="http://www.w3.org/2000/svg" p-id="1350" xmlns:xlink="http://www.w3.org/1999/xlink" width="152" height="128"><defs><style type="text/css"></style></defs><path d="M1132.124224 0H76.322981C31.801242 0 0 31.801242 0 76.322981v636.024845c0 44.521739 31.801242 76.322981 76.322981 76.322981h483.378882v146.285715H362.534161c-25.440994 0-44.521739 19.080745-44.521739 44.521739 0 25.440994 19.080745 44.521739 44.521739 44.521739h483.378882c25.440994 0 44.521739-19.080745 44.52174-44.521739 0-25.440994-19.080745-44.521739-44.52174-44.521739h-197.167701v-146.285715h483.378882c44.521739 0 76.322981-31.801242 76.322981-76.322981v-636.024845c0-44.521739-31.801242-76.322981-76.322981-76.322981z m-6.360249 82.68323v623.304348H89.043478V82.68323h1036.720497z" p-id="1351"></path></svg>
