<?xml version="1.0" standalone="no"?><!DOCTYPE svg PUBLIC "-//W3C//DTD SVG 1.1//EN" "http://www.w3.org/Graphics/SVG/1.1/DTD/svg11.dtd"><svg t="1561377807466" class="icon" viewBox="0 0 1024 1024" version="1.1" xmlns="http://www.w3.org/2000/svg" p-id="2662" xmlns:xlink="http://www.w3.org/1999/xlink" width="128" height="128"><defs><style type="text/css"></style></defs><path d="M931.352381 199.92381V926.47619c0 34.133333-29.257143 63.390476-68.266667 68.266667H141.409524C107.27619 994.742857 73.142857 965.485714 73.142857 926.47619V68.266667C73.142857 29.257143 102.4 0 141.409524 0h594.895238l195.047619 199.92381z" fill="#FF5562" p-id="2663"></path><path d="M931.352381 199.92381h-131.657143c-34.133333 0-68.266667-29.257143-68.266667-68.266667V0l199.92381 199.92381z" fill="#FFBBC0" p-id="2664"></path><path d="M672.914286 585.142857c-14.628571 0-24.380952 0-39.009524 4.876191 14.628571 9.752381 29.257143 9.752381 43.885714 9.752381 9.752381 0 19.504762 0 29.257143-4.876191 4.87619-4.87619 0-9.752381-34.133333-9.752381z m-199.92381-78.019047c-14.628571 34.133333-29.257143 68.266667-48.761905 102.4h4.876191v4.87619l102.4-29.257143h4.87619c-24.380952-29.257143-48.761905-53.638095-63.390476-78.019047zM463.238095 287.695238h-9.752381c-9.752381 29.257143-4.87619 53.638095 4.876191 78.019048 9.752381-24.380952 9.752381-53.638095 4.87619-78.019048z m-199.923809 448.609524c24.380952-9.752381 43.885714-24.380952 53.638095-43.885714-19.504762 9.752381-39.009524 24.380952-53.638095 43.885714z m419.352381-92.647619c-39.009524-4.87619-78.019048-19.504762-112.152381-43.885714-58.514286 14.628571-117.028571 34.133333-175.542857 58.514285C346.209524 736.304762 302.32381 780.190476 268.190476 780.190476c-9.752381 0-14.628571 0-24.380952-4.87619-14.628571-9.752381-24.380952-24.380952-24.380953-43.885715 0-14.628571 4.87619-48.761905 146.285715-112.152381 34.133333-58.514286 58.514286-121.904762 78.019047-185.295238-19.504762-34.133333-58.514286-121.904762-29.257143-165.790476 9.752381-14.628571 24.380952-24.380952 43.885715-24.380952 14.628571 0 29.257143 4.87619 39.009524 19.504762 19.504762 29.257143 19.504762 82.895238-4.876191 165.790476 24.380952 43.885714 53.638095 82.895238 92.647619 121.904762 29.257143-4.87619 63.390476-9.752381 92.647619-9.752381 68.266667 0 78.019048 34.133333 78.019048 53.638095 0 48.761905-48.761905 48.761905-73.142857 48.761905z" fill="#FFFFFF" p-id="2665"></path></svg>