<?xml version="1.0" standalone="no"?><!DOCTYPE svg PUBLIC "-//W3C//DTD SVG 1.1//EN" "http://www.w3.org/Graphics/SVG/1.1/DTD/svg11.dtd"><svg t="1561797934747" class="icon" viewBox="0 0 1024 1024" version="1.1" xmlns="http://www.w3.org/2000/svg" p-id="2608" xmlns:xlink="http://www.w3.org/1999/xlink" width="32" height="32"><defs><style type="text/css"></style></defs><path d="M849.92 641.706667h-13.653333c-34.133333-75.093333-109.226667-129.706667-197.973334-129.706667H378.88c-116.053333 0-211.626667 95.573333-211.626667 211.626667V1024h81.92v-300.373333c0-68.266667 54.613333-129.706667 129.706667-129.706667h259.413333c68.266667 0 129.706667 54.613333 129.706667 129.706667V1024H856.746667v-300.373333l-6.826667-81.92zM515.413333 430.08c116.053333 0 211.626667-95.573333 211.626667-211.626667C727.04 102.4 631.466667 6.826667 515.413333 6.826667 399.36 6.826667 303.786667 102.4 303.786667 218.453333c0 109.226667 95.573333 211.626667 211.626666 211.626667m0-341.333333c68.266667 0 129.706667 54.613333 129.706667 129.706666 0 68.266667-54.613333 129.706667-129.706667 129.706667-68.266667 0-129.706667-54.613333-129.706666-129.706667 0-75.093333 61.44-129.706667 129.706666-129.706666" p-id="2609"></path></svg>