<?xml version="1.0" standalone="no"?><!DOCTYPE svg PUBLIC "-//W3C//DTD SVG 1.1//EN" "http://www.w3.org/Graphics/SVG/1.1/DTD/svg11.dtd"><svg t="1566469511675" class="icon" viewBox="0 0 1024 1024" version="1.1" xmlns="http://www.w3.org/2000/svg" p-id="6065" xmlns:xlink="http://www.w3.org/1999/xlink" width="48" height="48"><defs><style type="text/css"></style></defs><path d="M912 880H112a48 48 0 0 1-48-48V192a48 48 0 0 1 48-48h800a48 48 0 0 1 48 48v640a48 48 0 0 1-48 48z m-16-640c0-26.512-5.44-32-32-32H160c-26.512 0-32 5.488-32 32v544c0 26.512 5.488 32 32 32h704c26.56 0 32-5.488 32-32V240zM480 640c1.136 0 256-653.104 352 112H192s101.952-457.264 288-112zM320 416.24a64 64 0 1 1 64-64 64 64 0 0 1-64 64z"  p-id="6066"></path></svg>
