<?xml version="1.0" standalone="no"?><!DOCTYPE svg PUBLIC "-//W3C//DTD SVG 1.1//EN" "http://www.w3.org/Graphics/SVG/1.1/DTD/svg11.dtd"><svg t="1560782300858" class="icon" style="" viewBox="0 0 1024 1024" version="1.1" xmlns="http://www.w3.org/2000/svg" p-id="3049" xmlns:xlink="http://www.w3.org/1999/xlink" width="128" height="128"><defs><style type="text/css"></style></defs><path d="M512 1024c-281.6 0-512-230.4-512-512s230.4-512 512-512 512 230.4 512 512-230.4 512-512 512z m0-64c249.6 0 448-204.8 448-448 0-249.6-204.8-448-448-448-249.6 0-448 198.4-448 448s198.4 448 448 448z" p-id="3050"></path><path d="M710.4 486.4c25.6 12.8 25.6 44.8 0 57.6l-294.4 192c-25.6 12.8-44.8 6.4-44.8-25.6V320c0-32 19.2-38.4 44.8-25.6l294.4 192z" p-id="3051"></path></svg>