<?xml version="1.0" standalone="no"?><!DOCTYPE svg PUBLIC "-//W3C//DTD SVG 1.1//EN" "http://www.w3.org/Graphics/SVG/1.1/DTD/svg11.dtd"><svg t="1561526824257" class="icon" viewBox="0 0 1024 1024" version="1.1" xmlns="http://www.w3.org/2000/svg" p-id="2444" xmlns:xlink="http://www.w3.org/1999/xlink" width="128" height="128"><defs><style type="text/css"></style></defs><path d="M550.4 473.6v-435.2C550.4 15.36 532.48 0 512 0c-23.04 0-38.4 17.92-38.4 38.4v432.64H40.96c-23.04 0-38.4 17.92-38.4 38.4 0 23.04 17.92 38.4 38.4 38.4h432.64v432.64c0 23.04 17.92 38.4 38.4 38.4 23.04 0 38.4-17.92 38.4-38.4V550.4h432.64c23.04 0 38.4-17.92 38.4-38.4 0-23.04-17.92-38.4-38.4-38.4H550.4z" p-id="2445"></path></svg>