<?xml version="1.0" standalone="no"?><!DOCTYPE svg PUBLIC "-//W3C//DTD SVG 1.1//EN" "http://www.w3.org/Graphics/SVG/1.1/DTD/svg11.dtd"><svg class="icon" width="200px" height="200.00px" viewBox="0 0 1024 1024" version="1.1" xmlns="http://www.w3.org/2000/svg"><path d="M816.37376 194.9696h-498.0736c-15.72864 0-27.52512 11.79648-27.52512 27.52512v530.8416c0 11.79648-13.1072 20.97152-28.83584 20.97152s-28.83584-10.48576-28.83584-20.97152v-524.288c0-14.41792-10.48576-27.52512-24.90368-28.83584-15.72864-1.31072-30.14656 11.79648-30.14656 27.52512v525.59872c0 41.94304 38.01088 74.71104 83.88608 74.71104l555.74528 1.31072c7.86432 0 14.41792-2.62144 19.6608-7.86432 5.24288-5.24288 7.86432-11.79648 7.86432-19.6608V221.184c-1.31072-14.41792-13.1072-26.2144-28.83584-26.2144z m-27.52512 580.64896l-446.95552-1.31072c2.62144-6.5536 3.93216-13.1072 3.93216-20.97152v-504.6272h443.02336v526.90944c1.31072 0 0 0 0 0z m0 0"  /><path d="M453.30432 383.71328h238.55104c15.72864 0 27.52512-11.79648 27.52512-27.52512 0-14.41792-11.79648-27.52512-27.52512-27.52512H453.30432c-15.72864 0-27.52512 11.79648-27.52512 27.52512 0 14.41792 11.79648 27.52512 27.52512 27.52512z m0 116.65408h238.55104c15.72864 0 27.52512-11.79648 27.52512-27.52512 0-14.41792-11.79648-27.52512-27.52512-27.52512H453.30432c-15.72864 0-27.52512 11.79648-27.52512 27.52512s11.79648 27.52512 27.52512 27.52512z m127.13984 62.91456H451.9936c-15.72864 0-27.52512 11.79648-27.52512 27.52512 0 14.41792 11.79648 27.52512 27.52512 27.52512h128.45056c15.72864 0 27.52512-11.79648 27.52512-27.52512s-11.79648-27.52512-27.52512-27.52512z m0 0"  /></svg>