<?xml version="1.0" standalone="no"?><!DOCTYPE svg PUBLIC "-//W3C//DTD SVG 1.1//EN" "http://www.w3.org/Graphics/SVG/1.1/DTD/svg11.dtd"><svg class="icon" width="200px" height="200.00px" viewBox="0 0 1024 1024" version="1.1" xmlns="http://www.w3.org/2000/svg"><path d="M826.24512 738.9184h-50.59584V260.2496c0-14.47936-11.73504-26.2144-26.2144-26.2144H590.31552c-14.47936 0-26.2144 11.73504-26.2144 26.2144v70.51264h-131.072c-14.47936 0-26.2144 11.73504-26.2144 26.2144v63.70304h-131.072c-14.47936 0-26.2144 11.73504-26.2144 26.2144V738.9184h-52.4288c-14.47936 0-26.2144 11.73504-26.2144 26.2144s11.73504 26.2144 26.2144 26.2144h629.1456c14.47936 0 26.2144-11.73504 26.2144-26.2144s-11.73504-26.2144-26.2144-26.2144zM299.85792 472.84224h104.8576V738.9184h-104.8576V472.84224z m157.2864-26.2144v-63.4368h106.9568V738.9184h-104.8576l-2.0992-292.29056zM616.52992 738.9184V286.45376h104.8576V738.9184h-104.8576z m0 0" /></svg>