<?xml version="1.0" standalone="no"?><!DOCTYPE svg PUBLIC "-//W3C//DTD SVG 1.1//EN" "http://www.w3.org/Graphics/SVG/1.1/DTD/svg11.dtd"><svg t="1561377812811" class="icon" viewBox="0 0 1024 1024" version="1.1" xmlns="http://www.w3.org/2000/svg" p-id="2918" xmlns:xlink="http://www.w3.org/1999/xlink" width="128" height="128"><defs><style type="text/css"></style></defs><path d="M931.352381 199.92381V926.47619c0 34.133333-29.257143 63.390476-68.266667 68.266667H141.409524C107.27619 994.742857 73.142857 965.485714 73.142857 926.47619V68.266667C73.142857 29.257143 102.4 0 141.409524 0h594.895238l195.047619 199.92381z" fill="#FF6A4D" p-id="2919"></path><path d="M375.466667 736.304762c-14.628571 0-29.257143-9.752381-29.257143-29.257143v-141.409524c0-14.628571 9.752381-29.257143 29.257143-29.257143h180.419047c43.885714 0 82.895238-34.133333 82.895238-82.895238 0-43.885714-34.133333-82.895238-82.895238-82.895238H375.466667c-14.628571 0-29.257143-9.752381-29.257143-29.257143 0-14.628571 9.752381-29.257143 29.257143-29.257143h180.419047c73.142857 0 136.533333 58.514286 136.533334 136.533334 0 34.133333-14.628571 68.266667-39.009524 97.523809-24.380952 24.380952-58.514286 39.009524-97.52381 39.009524H404.72381v117.028572c0 19.504762-14.628571 34.133333-29.257143 34.133333" fill="#FFFFFF" p-id="2920"></path><path d="M931.352381 199.92381h-131.657143c-34.133333 0-68.266667-29.257143-68.266667-68.266667V0l199.92381 199.92381z" fill="#FFB5A6" p-id="2921"></path></svg>