<?xml version="1.0" encoding="UTF-8"?>
<svg width="36px" height="36px" viewBox="0 0 36 36" version="1.1" xmlns="http://www.w3.org/2000/svg" xmlns:xlink="http://www.w3.org/1999/xlink">
    <!-- Generator: Sketch 49.3 (51167) - http://www.bohemiancoding.com/sketch -->
    <title>练习</title>
    <desc>Created with Sketch.</desc>
    <defs></defs>
    <g id="8月2日上线" stroke="none" stroke-width="1" fill="none" fill-rule="evenodd">
        <g id="互动现场" transform="translate(-234.000000, -326.000000)">
            <g id="练习" transform="translate(234.000000, 326.000000)">
                <rect id="Rectangle-11-Copy" fill="#25B864" x="0" y="0" width="36" height="36" rx="1"></rect>
                <g id="Page-1" transform="translate(8.000000, 8.000000)" fill="#FFFFFF">
                    <polygon id="Fill-1" points="19 0 0 0.0134207402 0 20 8.76854277 20 8.76854277 18.5714585 1.47442204 18.5714585 1.47442204 1.41297236 17.541643 1.41297236 17.541643 10.0580496 19 10.0580496 19 0.0134207402"></polygon>
                    <path d="M5.83481326,5.45237313 L14.3170403,5.45237313 L14.3170403,4 L5.83481326,4 L5.83481326,5.45237313 Z M3,5.44339453 L4.40526296,5.44339453 L4.40526296,4 L3,4 L3,5.44339453 Z M5.83481326,9.81903938 L14.3170403,9.81903938 L14.3170403,8.36652419 L5.83481326,8.36652419 L5.83481326,9.81903938 Z M3,9.80994713 L4.40526296,9.80994713 L4.40526296,8.36652419 L3,8.36652419 L3,9.80994713 Z M13.8855667,17.9429071 L11.0861886,15.069728 L10.0859267,16.0971521 L13.8855667,20 L20,13.719529 L18.9997104,12.6921048 L13.8855667,17.9429071 Z M5.83481326,14.1991167 L8.67396946,14.1991167 L8.67396946,12.7467152 L5.83481326,12.7467152 L5.83481326,14.1991167 Z M3,14.1901381 L4.40526296,14.1901381 L4.40526296,12.7467152 L3,12.7467152 L3,14.1901381 Z" id="Fill-2"></path>
                </g>
            </g>
        </g>
    </g>
</svg>