<?xml version="1.0" standalone="no"?><!DOCTYPE svg PUBLIC "-//W3C//DTD SVG 1.1//EN" "http://www.w3.org/Graphics/SVG/1.1/DTD/svg11.dtd"><svg t="1587555713221" class="icon" viewBox="0 0 1024 1024" version="1.1" xmlns="http://www.w3.org/2000/svg" p-id="11861" xmlns:xlink="http://www.w3.org/1999/xlink" width="200" height="200"><defs><style type="text/css"></style></defs><path d="M848.457143 885.028571c0 7.314286-7.314286 21.942857-21.942857 21.942858H190.171429c-7.314286 0-21.942857-7.314286-21.942858-21.942858v-804.571428c0-7.314286 7.314286-21.942857 21.942858-21.942857h636.342857c7.314286 0 21.942857 7.314286 21.942857 21.942857v804.571428zM826.514286 0H190.171429C146.285714 0 109.714286 36.571429 109.714286 80.457143v804.571428c0 43.885714 36.571429 80.457143 80.457143 80.457143h636.342857c43.885714 0 80.457143-36.571429 80.457143-80.457143v-804.571428c0-43.885714-36.571429-80.457143-80.457143-80.457143z" p-id="11862"></path><path d="M731.428571 219.428571h-292.571428c-14.628571 0-29.257143 14.628571-29.257143 29.257143s14.628571 29.257143 29.257143 29.257143h292.571428c14.628571 0 29.257143-14.628571 29.257143-29.257143S746.057143 219.428571 731.428571 219.428571m0 234.057143h-292.571428c-14.628571 0-29.257143 14.628571-29.257143 29.257143s14.628571 29.257143 29.257143 29.257143h292.571428c14.628571 0 29.257143-14.628571 29.257143-29.257143s-14.628571-29.257143-29.257143-29.257143m0 226.742857h-292.571428c-14.628571 0-29.257143 14.628571-29.257143 29.257143s14.628571 29.257143 29.257143 29.257143h292.571428c14.628571 0 29.257143-14.628571 29.257143-29.257143s-14.628571-29.257143-29.257143-29.257143M256 248.685714c0 29.257143 21.942857 51.2 51.2 51.2 29.257143 0 51.2-21.942857 51.2-51.2 0-29.257143-21.942857-51.2-51.2-51.2-29.257143 0-51.2 21.942857-51.2 51.2M256 482.742857c0 29.257143 21.942857 51.2 51.2 51.2 29.257143 0 51.2-21.942857 51.2-51.2 0-29.257143-21.942857-51.2-51.2-51.2-29.257143 0-51.2 21.942857-51.2 51.2M256 709.485714c0 29.257143 21.942857 51.2 51.2 51.2 29.257143 0 51.2-21.942857 51.2-51.2 0-29.257143-21.942857-51.2-51.2-51.2-29.257143 7.314286-51.2 29.257143-51.2 51.2" p-id="11863"></path></svg>