<?xml version="1.0" standalone="no"?><!DOCTYPE svg PUBLIC "-//W3C//DTD SVG 1.1//EN" "http://www.w3.org/Graphics/SVG/1.1/DTD/svg11.dtd"><svg t="1571822420090" class="icon" viewBox="0 0 1024 1024" version="1.1" xmlns="http://www.w3.org/2000/svg" p-id="8605" xmlns:xlink="http://www.w3.org/1999/xlink" width="48" height="48"><defs><style type="text/css"></style></defs><path d="M753.371429 314.514286c14.628571 14.628571 14.628571 36.571429 0 51.2L468.114286 687.542857c-14.628571 14.628571-36.571429 14.628571-51.2 0-14.628571-14.628571-14.628571-36.571429 0-51.2l285.257143-321.828571c7.314286-7.314286 14.628571-14.628571 21.942857-14.628572 14.628571 0 21.942857 7.314286 29.257143 14.628572zM980.114286 43.885714l-175.542857 950.857143c0 14.628571-7.314286 21.942857-21.942858 21.942857-7.314286 7.314286-21.942857 7.314286-29.257142 0l-248.685715-146.285714c-7.314286-7.314286-21.942857-7.314286-29.257143 0l-204.8 87.771429c-14.628571 7.314286-21.942857 0-36.571428-7.314286-7.314286-7.314286-14.628571-21.942857-14.628572-29.257143l29.257143-190.171429c0-14.628571 0-21.942857-14.628571-29.257142l-219.428572-160.914286C7.314286 533.942857 0 519.314286 0 512c0-14.628571 7.314286-21.942857 21.942857-29.257143L936.228571 14.628571c14.628571-7.314286 29.257143-7.314286 36.571429 0 7.314286 0 14.628571 14.628571 7.314286 29.257143z m-80.457143 51.2l-804.571429 409.6 175.542857 131.657143c29.257143 21.942857 43.885714 58.514286 43.885715 95.085714l-14.628572 131.657143 146.285715-58.514285c29.257143-14.628571 65.828571-7.314286 95.085714 7.314285l204.8 117.028572 153.6-833.828572z" p-id="8606"></path></svg>