<?xml version="1.0" standalone="no"?><!DOCTYPE svg PUBLIC "-//W3C//DTD SVG 1.1//EN" "http://www.w3.org/Graphics/SVG/1.1/DTD/svg11.dtd"><svg t="1564101702903" class="icon" viewBox="0 0 1024 1024" version="1.1" xmlns="http://www.w3.org/2000/svg" p-id="6431" xmlns:xlink="http://www.w3.org/1999/xlink" width="48" height="48"><defs><style type="text/css"></style></defs><path d="M192 384h128V256H192v128zM64 960h384V576H64v384z m64-320h256v256H128V640z m64 192h128V704H192v128z m320-704v384h384V128H512z m320 320H576V192h256v256z m0 256H704V576H512v384h64V704h64v64h256V576h-64v128zM64 512h384V128H64v384z m64-320h256v256H128V192z m640 64H640v128h128V256z m64 704h64V832h-64v128z m-128 0h64V832h-64v128z" p-id="6432"></path></svg>