<?xml version="1.0" standalone="no"?><!DOCTYPE svg PUBLIC "-//W3C//DTD SVG 1.1//EN" "http://www.w3.org/Graphics/SVG/1.1/DTD/svg11.dtd"><svg t="1573612700355" class="icon" viewBox="0 0 1117 1024" version="1.1" xmlns="http://www.w3.org/2000/svg" p-id="8848" xmlns:xlink="http://www.w3.org/1999/xlink" width="139.625" height="128"><defs><style type="text/css"></style></defs><path d="M290.133333 290.133333v375.466667l76.8-68.266667c25.6-17.066667 59.733333-17.066667 76.8 0l76.8 68.266667V290.133333H290.133333z m25.6 443.733334c-25.6 25.6-59.733333 17.066667-85.333333 0-8.533333-8.533333-17.066667-25.6-17.066667-42.666667V273.066667c0-34.133333 25.6-59.733333 59.733334-59.733334h256c34.133333 0 59.733333 25.6 59.733333 59.733334v418.133333c0 34.133333-25.6 59.733333-59.733333 59.733333-17.066667 0-25.6-8.533333-42.666667-17.066666l-85.333333-76.8-85.333334 76.8zM1109.333333 631.466667c0 8.533333 0 17.066667-8.533333 25.6-34.133333 42.666667-51.2 85.333333-51.2 128s17.066667 85.333333 51.2 128c17.066667 25.6 0 59.733333-25.6 59.733333h-938.666667c-76.8 0-136.533333-59.733333-136.533333-136.533333V742.4c0-42.666667 17.066667-76.8 51.2-102.4-25.6-25.6-42.666667-59.733333-42.666667-102.4V443.733333c0-42.666667 17.066667-76.8 51.2-102.4-25.6-25.6-51.2-59.733333-51.2-102.4V145.066667C8.533333 68.266667 68.266667 8.533333 145.066667 8.533333h938.666666c25.6 0 42.666667 34.133333 25.6 59.733334-34.133333 42.666667-51.2 85.333333-51.2 128s17.066667 85.333333 51.2 128c8.533333 8.533333 8.533333 17.066667 8.533334 17.066666 0 8.533333 0 17.066667-8.533334 25.6-34.133333 42.666667-51.2 85.333333-51.2 128s17.066667 85.333333 51.2 128v8.533334z m-972.8 34.133333c-34.133333 0-68.266667 34.133333-68.266666 68.266667v93.866666c0 34.133333 34.133333 68.266667 68.266666 68.266667h870.4c-17.066667-34.133333-25.6-76.8-25.6-119.466667 0-42.666667 8.533333-76.8 25.6-110.933333h-341.333333c-8.533333 0-25.6-8.533333-34.133333-17.066667-8.533333-8.533333-8.533333-25.6 0-34.133333 8.533333-8.533333 17.066667-17.066667 34.133333-17.066667h341.333333c-17.066667-34.133333-25.6-76.8-25.6-119.466666 0-42.666667 8.533333-76.8 25.6-110.933334h-341.333333c-8.533333 0-25.6-8.533333-34.133333-17.066666-8.533333-8.533333-8.533333-25.6 0-34.133334 8.533333-8.533333 17.066667-17.066667 34.133333-17.066666h341.333333c-17.066667-34.133333-25.6-76.8-25.6-119.466667 0-42.666667 8.533333-76.8 25.6-110.933333H136.533333c-34.133333 0-68.266667 34.133333-68.266666 68.266666v93.866667c0 34.133333 34.133333 68.266667 68.266666 68.266667 17.066667 0 25.6 0 34.133334 17.066666s8.533333 25.6 0 34.133334c-8.533333 8.533333-17.066667 17.066667-34.133334 17.066666-34.133333 0-68.266667 34.133333-68.266666 68.266667v93.866667c0 34.133333 34.133333 68.266667 68.266666 68.266666 17.066667 0 25.6 0 34.133334 17.066667s8.533333 25.6 0 34.133333-17.066667 25.6-34.133334 17.066667z" p-id="8849"></path></svg>