<?xml version="1.0" standalone="no"?><!DOCTYPE svg PUBLIC "-//W3C//DTD SVG 1.1//EN" "http://www.w3.org/Graphics/SVG/1.1/DTD/svg11.dtd"><svg t="1561797994858" class="icon" viewBox="0 0 1024 1024" version="1.1" xmlns="http://www.w3.org/2000/svg" p-id="2720" xmlns:xlink="http://www.w3.org/1999/xlink" width="32" height="32"><defs><style type="text/css"></style></defs><path d="M828.049383 518.320988c0-176.987654-145.382716-322.37037-322.370371-322.370371S183.308642 341.333333 183.308642 518.320988c0 37.925926 6.320988 69.530864 18.962963 107.45679 18.962963-12.641975 44.246914-25.283951 69.530864-31.604938-6.320988-25.283951-12.641975-50.567901-12.641975-75.851852 0-139.061728 113.777778-252.839506 252.839506-252.839507s252.839506 113.777778 252.839506 252.839507-113.777778 252.839506-252.839506 252.839506c-25.283951 0-50.567901-6.320988-75.851852-12.641975-6.320988 25.283951-12.641975 50.567901-31.604938 69.530864 31.604938 12.641975 69.530864 18.962963 107.45679 18.962963 170.666667-6.320988 316.049383-151.703704 316.049383-328.691358m107.45679 31.604938c-18.962963 221.234568-202.271605 398.222222-429.827161 398.222222-240.197531 0-436.148148-195.950617-436.148148-436.148148C69.530864 271.802469 265.481481 75.851852 505.679012 75.851852c75.851852 0 145.382716 18.962963 208.592593 50.567901 18.962963-18.962963 37.925926-37.925926 56.888889-50.567901C695.308642 31.604938 606.814815 0 505.679012 0c-278.123457 0-505.679012 227.555556-505.679012 505.679012s227.555556 505.679012 505.679012 505.679013 499.358025-221.234568 505.679013-493.037037c-25.283951 18.962963-50.567901 31.604938-75.851852 31.604938M436.148148 518.320988c0-37.925926 31.604938-69.530864 69.530864-69.530865s69.530864 31.604938 69.530865 69.530865c0 37.925926-31.604938 69.530864-69.530865 69.530864S436.148148 556.246914 436.148148 518.320988m214.91358 0c0-82.17284-63.209877-145.382716-145.382716-145.382716-82.17284 0-145.382716 63.209877-145.382716 145.382716 0 82.17284 63.209877 145.382716 145.382716 145.382716 82.17284 0 145.382716-63.209877 145.382716-145.382716" p-id="2721"></path></svg>