<?xml version="1.0" standalone="no"?><!DOCTYPE svg PUBLIC "-//W3C//DTD SVG 1.1//EN" "http://www.w3.org/Graphics/SVG/1.1/DTD/svg11.dtd"><svg t="1572230977321" class="icon" viewBox="0 0 1024 1024" version="1.1" xmlns="http://www.w3.org/2000/svg" p-id="8231" xmlns:xlink="http://www.w3.org/1999/xlink" width="48" height="48"><defs><style type="text/css"></style></defs><path d="M139.5008 449.1008h136.1856v54.6432H162.176L105.5744 886.7264h814.0032l-57.6768-382.9824h-113.5104v-54.6432h158.8416l1.2288 6.6624 2.8992 15.8208v0.0384l67.6608 437.6256 4.1088 22.5792 1.728 9.5424H40.2368l1.7664-9.5808 4.128-22.5792 66.5856-437.5872 2.88-15.8208 1.2096-6.7008h22.6944z m220.5504 63.1488l164.1216 135.1296 263.2128-342.6816-168.4992-129.4272-258.8352 336.9792z m123.0912 150.9312l-136.4352-112.3392 6.24 128.448 130.1952-16.1088z m165.3888-526.5024l168.4992 129.4272 26.9184-35.04-168.4992-129.4272-26.9184 35.04z m37.2096-88.4928l207.0912 159.072 19.3344 14.8608-14.7648 19.2384-349.9584 455.5968-6.2976 8.1792-10.08 1.248-198.1824 24.4992-25.9776 3.2064-1.2672-26.2464-8.9088-183.5712-0.4416-8.9088 5.3952-7.008L651.6416 52.7552l14.8608-19.3536 19.2384 14.784z" p-id="8232"></path></svg>