<?xml version="1.0" standalone="no"?><!DOCTYPE svg PUBLIC "-//W3C//DTD SVG 1.1//EN" "http://www.w3.org/Graphics/SVG/1.1/DTD/svg11.dtd"><svg t="1564101747984" class="icon" viewBox="0 0 1024 1024" version="1.1" xmlns="http://www.w3.org/2000/svg" p-id="6656" xmlns:xlink="http://www.w3.org/1999/xlink" width="48" height="48"><defs><style type="text/css"></style></defs><path d="M453.900709 762.553191c58.099291 0 108.93617 29.049645 196.085107 94.411348l7.262411 7.262411c72.624113 50.836879 101.673759 72.624113 130.723404 72.624114 14.524823 0 21.787234-7.262411 29.049646-14.524823 7.262411-7.262411 14.524823-21.787234 14.524822-29.049645V130.723404c0-14.524823-7.262411-21.787234-14.524822-36.312056-7.262411-7.262411-14.524823-14.524823-29.049646-14.524823H163.404255c-21.787234 0-43.574468 21.787234-43.574468 43.574468v755.29078c0 21.787234 14.524823 43.574468 36.312057 43.574468s43.574468-7.262411 65.361702-29.049645c7.262411-7.262411 50.836879-43.574468 50.83688-43.574468 79.886525-58.099291 123.460993-87.148936 181.560283-87.148937m159.77305 167.035461c-50.836879-43.574468-108.93617-79.886525-159.77305-79.886524-43.574468 0-87.148936 43.574468-130.723404 79.886524-58.099291 43.574468-108.93617 87.148936-167.035461 87.148937-65.361702 0-116.198582-58.099291-116.198582-123.460993V123.460993C39.943262 58.099291 90.780142 0 156.141844 0h646.35461c29.049645 0 58.099291 14.524823 79.886525 36.312057 21.787234 21.787234 36.312057 50.836879 36.312056 87.148936v777.078014c0 65.361702-50.836879 116.198582-116.198581 123.460993-65.361702-7.262411-130.723404-50.836879-188.822695-94.411348" p-id="6657"></path><path d="M199.716312 479.319149c0-21.787234 21.787234-43.574468 50.836879-43.574468h312.283688c29.049645 0 50.836879 21.787234 50.83688 43.574468s-21.787234 43.574468-50.83688 43.574468H250.553191c-7.262411 0-21.787234-7.262411-36.312056-14.524823-7.262411-7.262411-14.524823-14.524823-14.524823-29.049645m0-203.347518c0-7.262411 7.262411-21.787234 14.524823-29.049645 7.262411-7.262411 21.787234-14.524823 36.312056-14.524823h450.269504c29.049645 0 50.836879 21.787234 50.836879 43.574468s-21.787234 43.574468-50.836879 43.574468H250.553191c-14.524823 0-29.049645-7.262411-36.312056-14.524822-7.262411-7.262411-14.524823-21.787234-14.524823-29.049646" p-id="6658"></path></svg>