<?xml version="1.0" standalone="no"?><!DOCTYPE svg PUBLIC "-//W3C//DTD SVG 1.1//EN" "http://www.w3.org/Graphics/SVG/1.1/DTD/svg11.dtd"><svg t="1567667616807" class="icon" viewBox="0 0 1118 1024" version="1.1" xmlns="http://www.w3.org/2000/svg" p-id="6664" xmlns:xlink="http://www.w3.org/1999/xlink" width="139.75" height="128"><defs><style type="text/css"></style></defs><path d="M677.415385 795.569231H456.861538c-15.753846 0-31.507692-15.753846-31.507692-31.507693s15.753846-31.507692 31.507692-31.507692h220.553847c15.753846 0 31.507692 15.753846 31.507692 31.507692 0 23.630769-15.753846 31.507692-31.507692 31.507693z m94.523077-149.661539H370.215385c-15.753846 0-31.507692-15.753846-31.507693-31.507692s15.753846-31.507692 31.507693-31.507692h401.723077c15.753846 0 31.507692 15.753846 31.507692 31.507692s-15.753846 31.507692-31.507692 31.507692z m259.938461-189.046154H102.4l55.138462 464.738462h819.2l55.138461-464.738462z m-866.461538-78.76923H960.984615V252.061538H606.523077c-7.876923 0-23.630769-7.876923-31.507692-15.753846L425.353846 78.769231H165.415385v299.323077z m-110.276923 0h31.507692V39.384615c0-23.630769 15.753846-39.384615 39.384615-39.384615h315.076923c15.753846 0 23.630769 7.876923 31.507693 15.753846l149.661538 157.538462h370.215385c23.630769 0 39.384615 15.753846 39.384615 39.384615v157.538462h31.507692c23.630769 0 39.384615 15.753846 39.384616 39.384615v7.876923l-70.892308 543.507692c0 15.753846-7.876923 23.630769-15.753846 31.507693-7.876923 7.876923-15.753846 15.753846-31.507692 15.753846h-866.461539c-7.876923 0-23.630769-7.876923-31.507692-7.876923-7.876923-7.876923-15.753846-15.753846-15.753846-31.507693l-70.892308-535.630769c15.753846-31.507692 31.507692-47.261538 55.138462-55.138461z" p-id="6665"></path></svg>