<?xml version="1.0" standalone="no"?><!DOCTYPE svg PUBLIC "-//W3C//DTD SVG 1.1//EN"
    "http://www.w3.org/Graphics/SVG/1.1/DTD/svg11.dtd">
<svg t="1577929066450" class="icon" viewBox="0 0 1024 1024" version="1.1" xmlns="http://www.w3.org/2000/svg"
     p-id="10038" xmlns:xlink="http://www.w3.org/1999/xlink" width="48" height="48">
    <defs>
        <style type="text/css"></style>
    </defs>
    <path
        d="M482.742857 607.085714v-51.2c0-21.942857 14.628571-36.571429 36.571429-36.571428s36.571429 14.628571 36.571428 36.571428v51.2c0 21.942857-14.628571 36.571429-36.571428 36.571429s-36.571429-14.628571-36.571429-36.571429z"
        p-id="10039"></path>
    <path
        d="M607.085714 409.6v-36.571429c0-51.2-51.2-87.771429-95.085714-87.771428-43.885714 0-87.771429 29.257143-87.771429 87.771428v36.571429h182.857143z m95.085715 270.628571V482.742857h-365.714286v190.171429l365.714286 7.314285z m-373.028572 73.142858c-43.885714 0-80.457143-36.571429-80.457143-73.142858V482.742857c0-43.885714 36.571429-73.142857 80.457143-73.142857h14.628572v-36.571429c0-102.4 87.771429-160.914286 168.228571-160.914285 80.457143 0 168.228571 65.828571 168.228571 160.914285v36.571429h14.628572c43.885714 0 80.457143 36.571429 80.457143 73.142857v197.485714c0 43.885714-36.571429 73.142857-80.457143 73.142858h-365.714286z"
        p-id="10040"></path>
    <path
        d="M512 1024c-65.828571 0-138.971429-14.628571-197.485714-36.571429-58.514286-29.257143-117.028571-65.828571-160.914286-109.714285-43.885714-43.885714-80.457143-102.4-109.714286-160.914286C14.628571 650.971429 0 577.828571 0 512s14.628571-138.971429 36.571429-197.485714c29.257143-65.828571 65.828571-117.028571 109.714285-160.914286C190.171429 109.714286 248.685714 73.142857 307.2 43.885714 373.028571 14.628571 438.857143 0 512 0c43.885714 0 87.771429 7.314286 124.342857 14.628571s80.457143 21.942857 117.028572 43.885715c43.885714 21.942857 87.771429 58.514286 124.342857 95.085714v-36.571429c0-14.628571 14.628571-29.257143 36.571428-29.257142s29.257143 14.628571 29.257143 36.571428l-14.628571 109.714286v14.628571c0 21.942857-21.942857 29.257143-36.571429 29.257143l-124.342857-21.942857c-14.628571 0-29.257143-21.942857-29.257143-36.571429s21.942857-29.257143 36.571429-29.257142l29.257143 7.314285c-73.142857-73.142857-182.857143-117.028571-292.571429-117.028571-248.685714 0-446.171429 204.8-431.542857 460.8 14.628571 219.428571 190.171429 402.285714 416.914286 409.6 248.685714 7.314286 453.485714-190.171429 453.485714-431.542857 0-14.628571 14.628571-36.571429 29.257143-36.571429 21.942857-14.628571 43.885714 7.314286 43.885714 29.257143 0 65.828571-14.628571 138.971429-36.571429 197.485714-29.257143 58.514286-65.828571 117.028571-109.714285 160.914286-43.885714 43.885714-102.4 80.457143-160.914286 109.714286-65.828571 29.257143-138.971429 43.885714-204.8 43.885714"
        p-id="10041"></path>
</svg>
