<?xml version="1.0" standalone="no"?><!DOCTYPE svg PUBLIC "-//W3C//DTD SVG 1.1//EN" "http://www.w3.org/Graphics/SVG/1.1/DTD/svg11.dtd"><svg t="1562227487350" class="icon" viewBox="0 0 1024 1024" version="1.1" xmlns="http://www.w3.org/2000/svg" p-id="2826" xmlns:xlink="http://www.w3.org/1999/xlink" width="48" height="48"><defs><style type="text/css"></style></defs><path d="M445.7196405 556.18690634a66.2803595 66.2803595 0 1 0 132.560719 0 66.2803595 66.2803595 0 0 0-132.560719 0"  p-id="2827"></path><path d="M953.86906337 717.60167519l-441.86906337 118.37672207-441.86906337-118.42090898v-411.15916347l441.86906337-118.42090898 441.86906337 118.42090898v411.20335038z m88.37381268-445.09470754a43.52410273 43.52410273 0 0 0-32.96343214-41.88918721l0.22093454-0.79536432-486.05596971-130.21881297-0.17674762 0.7069905c-3.71170014-0.97211193-7.29083955-2.25353221-11.26766112-2.25353222s-7.55596098 1.28142029-11.26766112 2.20934531l-0.17674762-0.66280359-486.05596971 130.21881297 0.22093454 0.79536432A43.52410273 43.52410273 0 0 0-18.24287605 272.50696765v476.68834556h0.48605596c-0.04418691 0.79536432-0.48605597 1.50235481-0.48605596 2.29771914 0 20.41435073 14.13981003 36.85187988 32.96343214 41.9333741l-0.22093454 0.75117743 486.05596971 130.21881297 0.22093453-0.7069905c3.66751323 1.01629885 7.24665264 2.20934532 11.22347421 2.20934531s7.55596098-1.19304647 11.22347421-2.20934531l0.22093453 0.7069905 486.05596971-130.21881297-0.22093454-0.75117743a43.61247655 43.61247655 0 0 0 32.96343214-41.977561c0-0.75117741-0.44186907-1.45816791-0.48605596-2.25353224H1042.24287605V272.50696765z"  p-id="2828"></path></svg>
