<?xml version="1.0" standalone="no"?><!DOCTYPE svg PUBLIC "-//W3C//DTD SVG 1.1//EN" "http://www.w3.org/Graphics/SVG/1.1/DTD/svg11.dtd"><svg t="1572230981852" class="icon" viewBox="0 0 1024 1024" version="1.1" xmlns="http://www.w3.org/2000/svg" p-id="8345" xmlns:xlink="http://www.w3.org/1999/xlink" width="48" height="48"><defs><style type="text/css"></style></defs><path d="M358.4 394.6496h182.6816c17.2032 0 30.9248-13.7216 30.9248-30.5152 0-16.9984-13.9264-30.5152-30.9248-30.5152H358.4c-17.2032 0-30.9248 13.7216-30.9248 30.5152 0 16.9984 13.9264 30.5152 30.9248 30.5152z m0 0M663.7568 496.64H357.9904c-16.7936 0-30.72 13.7216-30.72 30.5152 0 16.9984 13.7216 30.5152 30.72 30.5152h305.7664c16.7936 0 30.72-13.7216 30.72-30.5152s-13.7216-30.5152-30.72-30.5152z m0 0M663.7568 659.8656H357.9904c-16.7936 0-30.72 13.7216-30.72 30.5152 0 16.9984 13.7216 30.5152 30.72 30.5152h305.7664c16.7936 0 30.72-13.7216 30.72-30.5152 0-16.9984-13.7216-30.5152-30.72-30.5152z m0 0" fill="" p-id="8346"></path><path d="M781.312 527.1552c-14.7456 0-26.624 11.8784-26.624 26.624v269.9264c0 4.7104-2.6624 6.9632-3.2768 6.9632H270.336c-0.6144 0-3.2768-2.2528-3.2768-6.9632v-620.544c0-4.7104 2.6624-6.9632 3.2768-6.9632l326.656 0.8192 155.648 160.768c1.4336 1.4336 2.2528 3.6864 2.2528 6.144V397.312c0 14.7456 11.8784 26.624 26.624 26.624s26.624-11.8784 26.624-26.624v-33.5872c0-16.1792-6.3488-31.744-17.2032-43.008l-155.648-160.768c-10.6496-10.8544-24.576-16.9984-39.3216-16.9984H270.336c-31.1296 0-56.32 26.8288-56.32 60.0064v620.544c0 32.9728 25.1904 60.0064 56.32 60.0064h481.0752c31.1296 0 56.32-26.8288 56.32-60.0064V553.7792c0.2048-14.7456-11.6736-26.624-26.4192-26.624z" fill="" p-id="8347"></path></svg>