<?xml version="1.0" encoding="utf-8"?>
<!-- Generator: Adobe Illustrator 21.0.0, SVG Export Plug-In . SVG Version: 6.00 Build 0)  -->
<svg version="1.1" id="图层_1" xmlns="http://www.w3.org/2000/svg" xmlns:xlink="http://www.w3.org/1999/xlink" x="0px" y="0px"
	 viewBox="0 0 14 14" style="enable-background:new 0 0 14 14;" xml:space="preserve">
<title>Page 1</title>
<desc>Created with Sketch.</desc>
<g id="课程上传">
	<g id="组件" transform="translate(-288.000000, -242.000000)">
		<g id="Group-2" transform="translate(90.000000, 238.000000)">
			<g id="Page-1" transform="translate(198.000000, 4.000000)">
				<path id="Fill-1" class="st0" d="M5.8,6.3c-1.4,0-2.6-1.2-2.6-2.6C3.2,2.2,4.4,0.9,6,0.9c1.4,0,2.6,1.2,2.6,2.6
					C8.7,5.1,7.4,6.4,5.8,6.3L5.8,6.3z M10,8.7L10,8.7c0.1-0.1,0.2-0.2,0.2-0.3c0-0.1,0-0.3-0.1-0.4c0,0-0.1,0-0.1-0.1
					c-0.6-0.6-1.3-1-2.2-1.2c1-0.7,1.7-1.8,1.6-3.1C9.5,1.6,7.8,0,5.9,0c-2,0-3.6,1.6-3.6,3.6c0,1.3,0.6,2.4,1.6,3
					C3.1,6.9,2.3,7.3,1.7,7.9c-1.1,1-1.7,2.5-1.7,4c0,0.1,0,0.6,0,0.7c0,0,0,0,0,0c0,0,0,0,0,0c0,0.3,0.2,0.5,0.5,0.5
					c0.3,0,0.5-0.2,0.5-0.5c0,0,0,0,0,0l0,0c0-0.1,0-0.6,0-0.7c0-2.7,2.1-4.7,5-4.7c1.5,0,2.7,0.5,3.6,1.4C9.6,8.8,9.8,8.8,10,8.7
					L10,8.7z"/>
				<path id="Fill-3" class="st0" d="M13.5,9.8h-1.9V7.9c0-0.3-0.2-0.5-0.5-0.5c-0.3,0-0.5,0.2-0.5,0.5v1.9H8.7
					c-0.2,0-0.3,0.1-0.4,0.2c-0.1,0.2-0.1,0.3,0,0.5c0.1,0.2,0.2,0.2,0.4,0.2h1.9v1.9c0,0.3,0.2,0.5,0.5,0.5c0.3,0,0.5-0.2,0.5-0.5
					v-1.9h1.9c0.3,0,0.5-0.2,0.5-0.5C14,10.1,13.8,9.8,13.5,9.8"/>
			</g>
		</g>
	</g>
</g>
</svg>
