<?xml version="1.0" standalone="no"?><!DOCTYPE svg PUBLIC "-//W3C//DTD SVG 1.1//EN" "http://www.w3.org/Graphics/SVG/1.1/DTD/svg11.dtd"><svg class="icon" width="200px" height="185.84px" viewBox="0 0 1102 1024" version="1.1" xmlns="http://www.w3.org/2000/svg"><path d="M1000.369231 630.153846H94.523077l-7.876923-7.876923V94.523077c0-7.876923 7.876923-7.876923 7.876923-7.876923h905.846154c7.876923 0 7.876923 7.876923 7.876923 7.876923v519.876923c7.876923 7.876923 0 15.753846-7.876923 15.753846M0 39.384615v638.03077c0 23.630769 15.753846 39.384615 39.384615 39.384615h464.738462v173.292308H354.461538c-7.876923 0-7.876923 7.876923-7.876923 7.876923v70.892307c0 7.876923 7.876923 7.876923 7.876923 7.876924h393.846154c7.876923 0 7.876923-7.876923 7.876923-7.876924v-70.892307c0-7.876923-7.876923-7.876923-7.876923-7.876923H598.646154V716.8h464.738461c23.630769 0 39.384615-15.753846 39.384616-39.384615V39.384615c0-23.630769-15.753846-39.384615-39.384616-39.384615H39.384615C15.753846 0 0 15.753846 0 39.384615"  /><path d="M441.107692 401.723077H275.692308c-7.876923 0-7.876923 0-7.876923-7.876923v-70.892308s0-7.876923 7.876923-7.876923h157.538461c7.876923 0 7.876923 7.876923 7.876923 7.876923v78.769231m78.769231-173.292308H189.046154c-7.876923 0-7.876923 0-7.876923 7.876923v252.061539c0 7.876923 7.876923 7.876923 7.876923 7.876923h338.707692c7.876923 0 7.876923 0 7.876923-7.876923V236.307692c-7.876923-7.876923-7.876923-7.876923-15.753846-7.876923M630.153846 315.076923h283.569231c7.876923 0 7.876923-7.876923 7.876923-7.876923V236.307692c0-7.876923-7.876923-7.876923-7.876923-7.876923H630.153846c-7.876923 0-7.876923 0-7.876923 7.876923v70.892308s0 7.876923 7.876923 7.876923m0 173.292308h283.569231c7.876923 0 7.876923 0 7.876923-7.876923v-70.892308c0-7.876923-7.876923-7.876923-7.876923-7.876923H630.153846c-7.876923 0-7.876923 7.876923-7.876923 7.876923v70.892308c0 7.876923 0 7.876923 7.876923 7.876923"  /></svg>