<?xml version="1.0" standalone="no"?><!DOCTYPE svg PUBLIC "-//W3C//DTD SVG 1.1//EN" "http://www.w3.org/Graphics/SVG/1.1/DTD/svg11.dtd"><svg t="1566371986657" class="icon" viewBox="0 0 1024 1024" version="1.1" xmlns="http://www.w3.org/2000/svg" p-id="5366" xmlns:xlink="http://www.w3.org/1999/xlink" width="48" height="48"><defs><style type="text/css"></style></defs><path d="M543.3344 700.35911111L510.86222222 613.09155555H347.3408l-30.79964445 87.27893334h-64.85333333L394.35377778 336.384h69.60924444L609.84888889 700.35911111zM365.59075555 565.70311111h127.21493334l-64.64853334-173.10151111zM675.84 503.55768889v-71.87342222h-73.60284445V397.99466667H675.84v-71.8848h31.97155555v71.8848h73.5800889v33.70097778H707.81155555v71.87342222z" p-id="5367"></path><path d="M514.69653333 1001.10791111c-269.01617778 0-487.86773333-218.86293333-487.86773333-487.86773333S245.68035555 25.37244445 514.69653333 25.37244445s487.86773333 218.85155555 487.86773334 487.86773333-218.85155555 487.86773333-487.86773334 487.86773333z m0-915.38773333c-235.73617778 0-427.52 191.78382222-427.52 427.52s191.78382222 427.50862222 427.52 427.50862222 427.52-191.78382222 427.52-427.50862222-191.78382222-427.52-427.52-427.52z" p-id="5368"></path></svg>