<?xml version="1.0" standalone="no"?><!DOCTYPE svg PUBLIC "-//W3C//DTD SVG 1.1//EN" "http://www.w3.org/Graphics/SVG/1.1/DTD/svg11.dtd"><svg t="1566371982249" class="icon" viewBox="0 0 1024 1024" version="1.1" xmlns="http://www.w3.org/2000/svg" p-id="5253" xmlns:xlink="http://www.w3.org/1999/xlink" width="48" height="48"><defs><style type="text/css"></style></defs><path d="M902.99497156 237.71428531c-13.71428531-13.71428531-27.42857156-13.71428531-41.14285687-6.8571422-13.71428531 6.85714313-20.57142844 27.42857156-6.85714313 41.14285689 102.85714313 144 96 342.85714313-6.85714312 486.85714313s-294.85714313 198.85714313-466.28571375 144C210.42354313 848 93.85211469 690.28571469 93.85211469 512c0-185.14285687 123.42857156-342.85714313 294.85714218-397.71428531 13.71428531 0 20.57142844-13.71428531 20.57142844-20.57142938 0-13.71428531 0-20.57142844-6.85714218-27.42857062C395.5664 52.57142844 388.70925687 52.57142844 374.99497156 52.57142844c-233.14285687 68.57142844-377.14285687 308.57142844-336 548.57142843 48 240 267.42857156 411.42857156 514.28571375 384 246.85714313-20.57142844 438.85714313-226.28571469 438.85714313-473.14285687 0-96-34.28571469-192-89.14285688-274.28571469" p-id="5254"></path><path d="M594.42354313 546.28571469c6.85714313 0 13.71428531 6.85714313 27.42857156 6.8571422h61.71428531v75.42857155c0 6.85714313 0 20.57142844 6.85714313 20.57142845 6.85714313 6.85714313 13.71428531 6.85714313 20.57142843 6.85714311 13.71428531 0 20.57142844-6.85714313 27.42857157-13.71428531 0-6.85714313 6.85714313-20.57142844 6.85714218-27.42857156v-68.57142844h75.42857156c6.85714313 0 13.71428531 0 20.57142844-6.85714313 6.85714313-6.85714313 6.85714313-13.71428531 6.85714313-20.57142843 0-13.71428531-6.85714313-20.57142844-13.71428531-27.42857157-6.85714313 0-13.71428531-6.85714313-20.57142844-6.85714312h-61.71428625V409.14285687c0-6.85714313 0-13.71428531-6.85714313-20.57142843-13.71428531-6.85714313-27.42857156-6.85714313-34.28571375-6.85714313-13.71428531 0-20.57142844 6.85714313-27.42857156 13.71428625 0 6.85714313-6.85714313 13.71428531-6.85714313 20.57142844v68.57142844h-54.85714218c-6.85714313 0-20.57142844 0-27.42857156 6.85714312-13.71428531 6.85714313-20.57142844 13.71428531-13.71428626 27.42857157-6.85714313 13.71428531 0 20.57142844 13.71428626 27.42857156z m-212.57142844-137.14285782l41.14285687 123.42857157H340.70925687l41.14285782-123.42857157z m-27.42857156-96c-6.85714313 6.85714313-6.85714313 13.71428531-13.71428626 20.57142844L237.85211469 642.28571469c-6.85714313 13.71428531-6.85714313 27.42857156 0 41.14285687 6.85714313 6.85714313 13.71428531 13.71428531 27.42857062 13.71428531 6.85714313 0 13.71428531 0 20.57142938-6.85714218l13.71428531-13.71428625c0-6.85714313 6.85714313-6.85714313 6.85714311-13.71428533l6.8571422-13.71428624 20.57142938-48h116.57142842l27.42857158 68.57142844c0 6.85714313 6.85714313 13.71428531 13.71428531 20.57142938 6.85714313 6.85714313 13.71428531 6.85714313 20.57142844 6.85714218 13.71428531 0 20.57142844-6.85714313 27.42857156-13.71428531 6.85714313-6.85714313 6.85714313-20.57142844 0-27.42857156L416.13782844 333.71428531c0-6.85714313-6.85714313-13.71428531-13.71428531-20.57142842-13.71428531-6.85714313-34.28571469-6.85714313-48 0z m137.14285687-226.28571374s6.85714313 6.85714313 13.71428531 6.85714218h27.42857156c6.85714313 0 6.85714313-6.85714313 13.71428626-6.8571422 6.85714313-6.85714313 6.85714313-13.71428531 6.85714218-20.57142842 0-6.85714313 0-13.71428531-6.85714218-20.57142938C525.85211469 32 512.13782844 32 505.28068531 32h-6.85714218-6.85714313v6.85714313s-6.85714313 6.85714313-6.85714313 13.71428531v27.42857156s0 6.85714313 6.85714313 6.85714313z m137.14285687 27.42857156c48 13.71428531 96 41.14285687 137.14285782 68.57142842 13.71428531 13.71428531 34.28571469 6.85714313 48-6.85714311 13.71428531-13.71428531 6.85714313-34.28571469-6.85714313-48C758.99497156 100.57142844 704.13782844 73.14285687 649.28068531 52.57142844c-20.57142844-6.85714313-34.28571469 6.85714313-41.14285687 20.57142843-6.85714313 20.57142844 0 34.28571469 20.57142843 41.14285782z" p-id="5255"></path></svg>