<?xml version="1.0" standalone="no"?><!DOCTYPE svg PUBLIC "-//W3C//DTD SVG 1.1//EN" "http://www.w3.org/Graphics/SVG/1.1/DTD/svg11.dtd"><svg t="1572493483361" class="icon" viewBox="0 0 1024 1024" version="1.1" xmlns="http://www.w3.org/2000/svg" p-id="8736" xmlns:xlink="http://www.w3.org/1999/xlink" width="48" height="48"><defs><style type="text/css"></style></defs><path d="M995.84 294.912c-86.528-0.512-167.936 3.072-252.416 23.04-87.552 20.48-173.056 49.664-257.536 80.384-152.064 55.808-300.032 122.368-449.536 184.32 3.072-1.024 14.848 0.512 16.896 0.512h40.96c15.36 0 43.52 5.12 57.856-0.512 135.168-55.296 267.776-115.2 404.48-167.424 78.848-30.208 158.208-57.856 239.616-80.896 36.352-10.24 73.216-19.456 110.08-26.624 16.896-3.072 33.28-5.632 50.176-8.192 7.68-1.024 15.872-2.048 23.552-2.56 5.12-0.512 10.24-1.024 14.848-1.024 2.56 0 5.12 0 6.656-0.512h14.336c22.528 0-16.896-0.512-19.968-0.512zM737.28 482.304c-121.344 1.024-235.008 40.448-346.112 87.552-132.608 56.32-259.584 124.416-390.144 185.344 2.56-1.024 15.36 0.512 16.896 0.512h40.96c14.336 0 44.544 5.632 57.856-0.512 121.856-56.832 240.64-119.296 363.52-173.568 103.936-46.08 223.744-97.28 338.432-98.304 19.456 0 19.456-0.512 0-1.024H737.28z" p-id="8737"></path></svg>