<?xml version="1.0" standalone="no"?><!DOCTYPE svg PUBLIC "-//W3C//DTD SVG 1.1//EN" "http://www.w3.org/Graphics/SVG/1.1/DTD/svg11.dtd"><svg t="1567666886519" class="icon" viewBox="0 0 1103 1024" version="1.1" xmlns="http://www.w3.org/2000/svg" p-id="7906" xmlns:xlink="http://www.w3.org/1999/xlink" width="137.875" height="128"><defs><style type="text/css"></style></defs><path d="M465.74592 960.984615c47.261538 47.261538 118.153846 47.261538 165.415385 0l433.230769-480.492307c39.384615-47.261538 47.261538-118.153846 23.630769-173.292308l-110.276923-212.676923C954.115151 39.384615 891.099766 0 828.084382 0h-551.384616c-63.015385 0-126.030769 39.384615-149.661538 94.523077L16.761305 307.2c-31.507692 55.138462-15.753846 133.907692 23.630769 173.292308l425.353846 480.492307z m63.015385-55.138461l-433.23077-472.615385c-15.753846-23.630769-23.630769-63.015385-7.876923-86.646154l110.276923-212.676923c7.876923-31.507692 47.261538-55.138462 78.769231-55.138461h559.261539c31.507692 0 63.015385 23.630769 78.76923 47.261538L1025.007458 338.707692c15.753846 23.630769 7.876923 63.015385-7.876923 86.646154l-433.230769 480.492308c-23.630769 15.753846-39.384615 15.753846-55.138461 0z" p-id="7907"></path><path d="M434.238228 204.8h236.307692c23.630769 0 39.384615 15.753846 39.384615 39.384615s-15.753846 39.384615-39.384615 39.384616h-236.307692c-23.630769 0-39.384615-15.753846-39.384616-39.384616s15.753846-39.384615 39.384616-39.384615" p-id="7908"></path></svg>