<?xml version="1.0" standalone="no"?><!DOCTYPE svg PUBLIC "-//W3C//DTD SVG 1.1//EN" "http://www.w3.org/Graphics/SVG/1.1/DTD/svg11.dtd"><svg t="1565580813932" class="icon" viewBox="0 0 1102 1024" version="1.1" xmlns="http://www.w3.org/2000/svg" p-id="7386" xmlns:xlink="http://www.w3.org/1999/xlink" width="51.65625" height="48"><defs><style type="text/css"></style></defs><path d="M1047.630769 858.584615h-189.046154c-15.753846 0-31.507692-15.753846-31.507692-31.507692s15.753846-31.507692 31.507692-31.507692h173.292308V70.892308H70.892308V787.692308h173.292307c15.753846 0 31.507692 15.753846 31.507693 31.507692 0 7.876923 0 15.753846-7.876923 23.630769-7.876923 7.876923-15.753846 7.876923-23.63077 7.876923H55.138462c-31.507692 0-55.138462-23.630769-55.138462-55.138461V47.261538C0 23.630769 23.630769 0 55.138462 0h992.492307c15.753846 0 23.630769 7.876923 39.384616 15.753846 7.876923 7.876923 15.753846 23.630769 15.753846 39.384616v756.184615c0 23.630769-23.630769 47.261538-55.138462 47.261538" p-id="7387"></path><path d="M409.6 527.753846c-7.876923 0-15.753846 0-23.630769-7.876923-15.753846-15.753846-15.753846-39.384615 0-47.261538 94.523077-94.523077 236.307692-94.523077 330.830769 0 15.753846 15.753846 15.753846 39.384615 0 47.261538-7.876923 0-15.753846 7.876923-23.630769 7.876923s-15.753846 0-23.630769-7.876923c-63.015385-63.015385-165.415385-63.015385-228.43077 0-15.753846 0-23.630769 7.876923-31.507692 7.876923z m-31.507692 401.723077h346.584615V716.8H378.092308v212.676923z m346.584615 70.892308H378.092308c-15.753846 0-39.384615-7.876923-47.261539-23.630769-15.753846-15.753846-23.630769-31.507692-23.630769-47.261539V716.8c0-15.753846 7.876923-39.384615 23.630769-47.261538 15.753846-15.753846 31.507692-23.630769 47.261539-23.63077h346.584615c15.753846 0 39.384615 7.876923 47.261539 23.63077 15.753846 15.753846 23.630769 31.507692 23.630769 47.261538v212.676923c0 15.753846-7.876923 39.384615-23.630769 47.261539-7.876923 15.753846-31.507692 23.630769-47.261539 23.630769z" p-id="7388"></path><path d="M850.707692 417.476923c-7.876923 0-15.753846 0-23.630769-7.876923-149.661538-149.661538-393.846154-149.661538-543.507692 0-15.753846 15.753846-39.384615 15.753846-47.261539 0-23.630769-15.753846-23.630769-39.384615-7.876923-55.138462 181.169231-173.292308 464.738462-173.292308 645.907693 0 7.876923 7.876923 7.876923 15.753846 7.876923 23.63077 0 7.876923 0 15.753846-7.876923 23.630769-7.876923 7.876923-15.753846 15.753846-23.63077 15.753846" p-id="7389"></path></svg>