<?xml version="1.0" standalone="no"?><!DOCTYPE svg PUBLIC "-//W3C//DTD SVG 1.1//EN" "http://www.w3.org/Graphics/SVG/1.1/DTD/svg11.dtd"><svg t="1559547471343" class="icon" style="" viewBox="0 0 1024 1024" version="1.1" xmlns="http://www.w3.org/2000/svg" p-id="2511" xmlns:xlink="http://www.w3.org/1999/xlink" width="128" height="128"><defs><style type="text/css"></style></defs><path d="M716.8 806.4l198.4 198.4c25.6 25.6 64 25.6 89.6 0s25.6-64 0-89.6l-198.4-198.4C864 640 896 550.4 896 448c0-249.6-198.4-448-448-448S0 198.4 0 448s198.4 448 448 448c102.4 0 192-32 268.8-89.6zM448 768c-179.2 0-320-140.8-320-320s140.8-320 320-320 320 140.8 320 320-140.8 320-320 320z" p-id="2512"></path></svg>
