<?xml version="1.0" standalone="no"?><!DOCTYPE svg PUBLIC "-//W3C//DTD SVG 1.1//EN" "http://www.w3.org/Graphics/SVG/1.1/DTD/svg11.dtd"><svg t="1562741381206" class="icon" viewBox="0 0 1024 1024" version="1.1" xmlns="http://www.w3.org/2000/svg" p-id="2920" xmlns:xlink="http://www.w3.org/1999/xlink" width="128" height="128"><defs><style type="text/css"></style></defs><path d="M1002.366197 432.676056l-7.211267-28.84507-79.323944-28.845071c-7.211268-21.633803-14.422535-43.267606-28.845071-64.901408l36.056339-79.323944-14.422536-21.633802c-28.84507-43.267606-72.112676-79.323944-115.380281-115.380282l-21.633803-14.422535-79.323944 36.056338c-21.633803-7.211268-43.267606-21.633803-64.901408-28.845071L598.535211 7.211268l-28.84507-7.211268c-14.422535 7.211268-36.056338 7.211268-64.901409 7.211268-21.633803 0-50.478873 0-79.323943 7.211267l-28.845071 7.211268-28.84507 79.323943c-21.633803 7.211268-43.267606 14.422535-57.690141 21.633803l-79.323944-36.056338-21.633802 14.422535c-43.267606 28.84507-79.323944 72.112676-115.380282 115.380282l-14.422535 21.633803 36.056338 79.323944c-7.211268 14.422535-14.422535 36.056338-21.633803 57.69014l-79.323944 28.845071-7.211267 28.84507C0 461.521127 0 490.366197 0 512c0 21.633803 0 50.478873 7.211268 79.323944l7.211267 28.84507 79.323944 28.845071c7.211268 21.633803 14.422535 43.267606 28.84507 64.901408l-36.056338 79.323944 14.422535 21.633802c14.422535 21.633803 36.056338 43.267606 50.478874 64.901409 14.422535 14.422535 36.056338 36.056338 57.690141 50.478873l21.633802 14.422535 79.323944-36.056338c21.633803 7.211268 43.267606 21.633803 64.901408 28.845071l28.845071 79.323943 28.84507 7.211268c21.633803-7.211268 50.478873-7.211268 72.112676-7.211268s50.478873 0 79.323944-7.211267l28.84507-7.211268 28.845071-79.323943c21.633803-7.211268 43.267606-14.422535 64.901408-28.845071l79.323944 36.056338 21.633803-14.422535c21.633803-14.422535 43.267606-36.056338 57.690141-50.478873 21.633803-21.633803 36.056338-36.056338 50.478873-64.901409l14.422535-21.633803-36.056338-79.323943c7.211268-21.633803 21.633803-43.267606 28.845071-64.901409l79.323943-28.84507 7.211268-28.845071V512c0-21.633803 0-50.478873-7.211268-79.323944z m-72.112676 79.323944v50.478873l-36.056338 14.422535-43.267606 7.211268-7.211267 36.056338c-7.211268 21.633803-14.422535 43.267606-21.633803 57.690141l-14.422535 28.84507 36.056338 72.112676c-7.211268 14.422535-21.633803 21.633803-28.845071 36.056338-7.211268 7.211268-21.633803 21.633803-36.056338 28.845071l-72.112676-36.056338-28.84507 14.422535c-21.633803 7.211268-36.056338 21.633803-57.690141 21.633803l-43.267606 14.422535-14.422535 36.056338-14.422535 36.056338H461.521127l-14.422535-36.056338-14.422536-36.056338-36.056338-7.211268c-21.633803-7.211268-43.267606-14.422535-57.690141-21.633802l-28.84507-14.422536-36.056338 14.422536-36.056338 21.633802c-14.422535-7.211268-21.633803-21.633803-36.056338-28.84507-7.211268-7.211268-21.633803-21.633803-28.84507-36.056338l36.056338-72.112676-14.422536-28.84507c-7.211268-21.633803-21.633803-36.056338-21.633802-57.690141L158.647887 584.112676l-72.112676-21.633803v-43.267605-43.267606l72.112676-21.633803 7.211268-36.056338c7.211268-28.84507 14.422535-50.478873 28.84507-72.112676l14.422536-28.84507-14.422536-36.056338-21.633802-36.056338 64.901408-64.901409 72.112676 36.056338 28.84507-14.422535c21.633803-14.422535 43.267606-21.633803 57.690141-28.84507l36.056338-7.211268 14.422536-36.056338 14.422535-36.056338h86.535211l21.633803 72.112676 36.056338 7.211268c21.633803 7.211268 43.267606 14.422535 57.690141 21.633802l28.84507 14.422536 72.112676-36.056338 72.112676 72.112676-36.056338 72.112676 14.422535 28.84507c7.211268 21.633803 21.633803 36.056338 21.633803 57.690141l14.422535 36.056338 36.056338 14.422535 36.056339 14.422535c7.211268 14.422535 7.211268 28.84507 7.211267 43.267606zM504.788732 317.295775C396.619718 317.295775 310.084507 403.830986 310.084507 512S396.619718 706.704225 504.788732 706.704225 699.492958 620.169014 699.492958 512 612.957746 317.295775 504.788732 317.295775z m79.323944 274.028169c-21.633803 21.633803-50.478873 36.056338-79.323944 36.056338-28.84507 0-57.690141-14.422535-79.323943-36.056338-21.633803-21.633803-36.056338-50.478873-36.056338-79.323944 0-28.84507 14.422535-57.690141 36.056338-79.323944 21.633803-21.633803 50.478873-36.056338 79.323943-36.056338 28.84507 0 57.690141 14.422535 79.323944 36.056338 21.633803 21.633803 36.056338 50.478873 36.056338 79.323944 0 28.84507-14.422535 57.690141-36.056338 79.323944z" p-id="2921"></path></svg>