<?xml version="1.0" standalone="no"?><!DOCTYPE svg PUBLIC "-//W3C//DTD SVG 1.1//EN" "http://www.w3.org/Graphics/SVG/1.1/DTD/svg11.dtd"><svg t="1559533139360" class="icon" style="" viewBox="0 0 1203 1024" version="1.1" xmlns="http://www.w3.org/2000/svg" p-id="2265" xmlns:xlink="http://www.w3.org/1999/xlink" width="150.375" height="128"><defs><style type="text/css"></style></defs><path d="M50.77686 101.553719h1091.702479c25.38843 0 50.77686-25.38843 50.776859-50.776859s-25.38843-50.77686-50.776859-50.77686H50.77686c-25.38843 0-50.77686 25.38843-50.77686 50.77686 0 33.85124 25.38843 50.77686 50.77686 50.776859z m1083.239669 321.586777H389.289256c-25.38843 0-50.77686 25.38843-50.776859 50.776859s25.38843 50.77686 50.776859 50.77686h744.727273c25.38843 0 50.77686-25.38843 50.776859-50.77686s-25.38843-50.77686-50.776859-50.776859z m0 499.305785H50.77686c-25.38843 0-50.77686 25.38843-50.77686 50.776859s25.38843 50.77686 50.77686 50.77686h1083.239669c25.38843 0 50.77686-25.38843 50.776859-50.77686s-25.38843-50.77686-50.776859-50.776859zM177.719008 651.636364c8.46281 8.46281 25.38843 16.92562 33.85124 16.925619 8.46281 0 25.38843-8.46281 33.85124-16.925619 16.92562-16.92562 16.92562-50.77686 0-67.70248L118.479339 456.991736l126.942149-118.479339c16.92562-16.92562 16.92562-50.77686 0-67.70248-16.92562-16.92562-50.77686-16.92562-67.70248 0L16.92562 423.140496c-8.46281 8.46281-16.92562 16.92562-16.92562 33.85124s8.46281 25.38843 16.92562 33.851239l160.793388 160.793389z" p-id="2266" fill="#ffffff"></path></svg>