<?xml version="1.0" encoding="UTF-8"?>
<svg width="36px" height="36px" viewBox="0 0 36 36" version="1.1" xmlns="http://www.w3.org/2000/svg" xmlns:xlink="http://www.w3.org/1999/xlink">
    <!-- Generator: Sketch 49.3 (51167) - http://www.bohemiancoding.com/sketch -->
    <title>报名</title>
    <desc>Created with Sketch.</desc>
    <defs></defs>
    <g id="8月2日上线" stroke="none" stroke-width="1" fill="none" fill-rule="evenodd">
        <g id="互动现场" transform="translate(-455.000000, -432.000000)">
            <g id="Group-2-Copy-3" transform="translate(433.000000, 420.000000)">
                <g id="报名" transform="translate(20.000000, 10.000000)">
                    <rect id="Rectangle-11" fill="#25B864" x="2" y="2" width="36" height="36" rx="1"></rect>
                    <g id="Page-1" transform="translate(11.000000, 10.000000)" fill="#FFFFFF">
                        <path d="M14.9972696,19.973258 L2.14249657,19.973258 C0.961215798,19.973258 -1.67379494e-05,19.0135143 -1.67379494e-05,17.8340912 L-1.67379494e-05,3.57316475 C-1.67379494e-05,2.39385299 0.961215798,1.43410935 2.14249657,1.43410935 L12.1405759,1.43410935 C12.5354799,1.43410935 12.8547563,1.75355968 12.8547563,2.14709997 C12.8547563,2.54072382 12.5354799,2.86017414 12.1405759,2.86017414 L2.14249657,2.86017414 C1.74898738,2.86017414 1.42828827,3.18026509 1.42828827,3.57316475 L1.42828827,17.8340912 C1.42828827,18.2277429 1.74898738,18.5471653 2.14249657,18.5471653 L14.9972696,18.5471653 C15.3913925,18.5471653 15.7113384,18.2277429 15.7113384,17.8340912 L15.7113384,6.42540574 C15.7113384,6.03175404 16.0306427,5.71233157 16.4255188,5.71233157 C16.8204228,5.71233157 17.1396155,6.03175404 17.1396155,6.42540574 L17.1396155,17.8340912 C17.1396155,19.0135143 16.178383,19.973258 14.9972696,19.973258" id="Fill-1"></path>
                        <path d="M12.1704957,12.7962085 L3.56110916,12.7962085 C3.16502564,12.7962085 2.8436019,12.477404 2.8436019,12.0829179 C2.8436019,11.6883481 3.16502564,11.3695157 3.56110916,11.3695157 L12.1704957,11.3695157 C12.5672238,11.3695157 12.8880029,11.6883481 12.8880029,12.0829179 C12.8880029,12.477404 12.5672238,12.7962085 12.1704957,12.7962085 M7.86587247,8.5161858 L3.56110916,8.5161858 C3.16502564,8.5161858 2.8436019,8.19660104 2.8436019,7.80278366 C2.8436019,7.40899415 3.16502564,7.08940939 3.56110916,7.08940939 L7.86587247,7.08940939 C8.26181586,7.08940939 8.5832396,7.40899415 8.5832396,7.80278366 C8.5832396,8.19660104 8.26181586,8.5161858 7.86587247,8.5161858 M10.8252746,8.5161858 C10.6350099,8.51629726 10.4524242,8.44108937 10.3180983,8.30708613 C10.0375076,8.02821227 10.0375076,7.57738291 10.3180983,7.29850905 L17.4480219,0.209238992 C17.7286126,-0.0697463306 18.1820642,-0.0697463306 18.4625428,0.209238992 C18.7431335,0.488084989 18.7431335,0.938942212 18.4625428,1.21792753 L11.3325911,8.30708613 C11.1926881,8.44696891 11.0089814,8.5161858 10.8252746,8.5161858" id="Fill-4"></path>
                    </g>
                </g>
            </g>
        </g>
    </g>
</svg>