<?xml version="1.0" standalone="no"?><!DOCTYPE svg PUBLIC "-//W3C//DTD SVG 1.1//EN" "http://www.w3.org/Graphics/SVG/1.1/DTD/svg11.dtd"><svg t="1565581384326" class="icon" viewBox="0 0 1024 1024" version="1.1" xmlns="http://www.w3.org/2000/svg" p-id="7843" xmlns:xlink="http://www.w3.org/1999/xlink" width="48" height="48"><defs><style type="text/css"></style></defs><path d="M512 1024c283.306667 0 512-228.693333 512-512S795.306667 0 512 0 0 228.693333 0 512s228.693333 512 512 512z" fill="#FF7F48" p-id="7844"></path><path d="M430.08 571.733333c-1.706667-1.706667-3.413333-3.413333-3.413333-6.826666 0-1.706667 0-5.12 1.706666-6.826667 3.413333-3.413333 8.533333-3.413333 13.653334 0l42.666666 37.546667c3.413333 3.413333 10.24 3.413333 13.653334 0l78.506666-85.333334c3.413333-3.413333 8.533333-3.413333 13.653334 0 1.706667 1.706667 3.413333 3.413333 3.413333 6.826667 0 1.706667 0 5.12-1.706667 6.826667l-78.506666 85.333333c-10.24 11.946667-27.306667 11.946667-39.253334 1.706667l-44.373333-39.253334z m250.88-104.106666H343.04v167.253333c0 25.6 20.48 46.08 47.786667 46.08h244.053333c25.6 0 47.786667-20.48 47.786667-46.08v-167.253333h-1.706667z m-64.853333-119.466667h18.773333c17.066667 0 34.133333 6.826667 46.08 18.773333 11.946667 11.946667 18.773333 29.013333 18.773333 46.08v221.866667c0 17.066667-6.826667 34.133333-18.773333 46.08-11.946667 11.946667-29.013333 18.773333-46.08 18.773333H389.12c-17.066667 0-34.133333-6.826667-46.08-18.773333-11.946667-11.946667-18.773333-29.013333-18.773333-46.08v-221.866667c0-17.066667 6.826667-34.133333 18.773333-46.08 11.946667-11.946667 29.013333-18.773333 46.08-18.773333h18.773333v-13.653333c0-5.12 3.413333-8.533333 10.24-8.533334 1.706667 0 5.12 1.706667 6.826667 3.413334 1.706667 1.706667 3.413333 3.413333 3.413333 6.826666v13.653334H597.333333v-13.653334c0-5.12 3.413333-8.533333 10.24-8.533333 1.706667 0 5.12 1.706667 6.826667 3.413333 1.706667 1.706667 3.413333 3.413333 3.413333 6.826667v10.24h-1.706666z m-20.48 17.066667H426.666667v23.893333c0 1.706667-1.706667 5.12-3.413334 6.826667-1.706667 1.706667-3.413333 3.413333-6.826666 3.413333-1.706667 0-5.12-1.706667-6.826667-3.413333-1.706667-1.706667-3.413333-3.413333-3.413333-6.826667v-23.893333h-18.773334c-25.6 0-47.786667 20.48-47.786666 46.08v37.546666h337.92v-37.546666c0-25.6-20.48-46.08-47.786667-46.08h-18.773333v23.893333c0 1.706667-1.706667 5.12-3.413334 6.826667-1.706667 1.706667-3.413333 3.413333-6.826666 3.413333-1.706667 0-5.12-1.706667-6.826667-3.413333-1.706667-1.706667-3.413333-3.413333-3.413333-6.826667v-23.893333z" fill="#FFFFFF" p-id="7845"></path></svg>