<?xml version="1.0" encoding="UTF-8"?>
<svg width="36px" height="36px" viewBox="0 0 36 36" version="1.1" xmlns="http://www.w3.org/2000/svg" xmlns:xlink="http://www.w3.org/1999/xlink">
    <!-- Generator: Sketch 49.3 (51167) - http://www.bohemiancoding.com/sketch -->
    <title>签到</title>
    <desc>Created with Sketch.</desc>
    <defs></defs>
    <g id="8月2日上线" stroke="none" stroke-width="1" fill="none" fill-rule="evenodd">
        <g id="互动现场" transform="translate(-264.000000, -193.000000)">
            <g id="签到" transform="translate(264.000000, 193.000000)">
                <rect id="Rectangle-11" fill="#42B3FF" x="0" y="0" width="36" height="36" rx="1"></rect>
                <path d="M13.1708149,21.577336 C12.9617133,21.3931023 12.9418271,21.074459 13.1264259,20.8656235 C13.3110248,20.6568175 13.6302997,20.6370001 13.8395492,20.8213224 L16.1607067,22.8662331 C16.3676184,23.0479268 16.6821585,23.030738 16.8678227,22.8273367 L21.1263804,18.159356 C21.3151519,17.9583765 21.6307277,17.945795 21.8348577,18.1313281 C22.0390173,18.3167136 22.0562402,18.6314288 21.8733577,18.837813 L17.6152439,23.5058233 C17.0581922,24.1165882 16.1130922,24.1681547 15.4925642,23.6217741 L13.1708149,21.577336 Z M27,16 L9,16 L9,24.6087188 C9,25.9294272 10.1193421,27 11.4999528,27 L24.49993,27 C25.8806579,27 27,25.9294272 27,24.6087188 L27,16 Z M23.4999502,9.23460827 L24.4999385,9.23460827 C25.4281789,9.23460827 26.3184213,9.59878704 26.9748458,10.246994 C27.6311531,10.8953167 28,11.7745714 28,12.6913262 L28,24.5432531 C28,25.4600368 27.6311531,26.3392626 26.9748458,26.9876143 C26.3184213,27.6358212 25.4281789,28 24.4999385,28 L11.4999443,28 C10.571704,28 9.68149086,27.6358212 9.02515425,26.9876143 C8.36872975,26.3392626 8,25.4600368 8,24.5432531 L8,12.6913262 C8,11.7745714 8.36872975,10.8953167 9.02515425,10.246994 C9.68149086,9.59878704 10.571704,9.23460827 11.4999443,9.23460827 L12.5000498,9.23460827 L12.5000498,8.49380858 C12.5000498,8.22109407 12.7238775,8 13.0000293,8 C13.2761811,8 13.5000088,8.22109407 13.5000088,8.49380858 L13.5000088,9.23460827 L22.4999912,9.23460827 L22.4999912,8.49380858 C22.4999912,8.22109407 22.7238189,8 22.9999707,8 C23.2761225,8 23.4999502,8.22109407 23.4999502,8.49380858 L23.4999502,9.23460827 Z M22.4999854,10 L13.5000146,10 L13.5000146,11.1110373 C13.5000146,11.3565369 13.2761873,11.5556033 13.0000358,11.5556033 C12.7238844,11.5556033 12.500057,11.3565369 12.500057,11.1110373 L12.500057,10 L11.4999528,10 C10.1193421,10 9,10.9948892 9,12.2222049 L9,14 L27,14 L27,12.2222049 C27,10.9948892 25.8806579,10 24.49993,10 L23.499943,10 L23.499943,11.1110373 C23.499943,11.3565369 23.2761156,11.5556033 22.9999642,11.5556033 C22.7238127,11.5556033 22.4999854,11.3565369 22.4999854,11.1110373 L22.4999854,10 Z" id="Fill-1" stroke="#FFFFFF" stroke-width="0.2" fill="#FFFFFF"></path>
            </g>
        </g>
    </g>
</svg>