<?xml version="1.0" standalone="no"?><!DOCTYPE svg PUBLIC "-//W3C//DTD SVG 1.1//EN"
    "http://www.w3.org/Graphics/SVG/1.1/DTD/svg11.dtd">
<svg t="1584497656042" class="icon" viewBox="0 0 1024 1024" version="1.1" xmlns="http://www.w3.org/2000/svg"
     p-id="13533" xmlns:xlink="http://www.w3.org/1999/xlink" width="48" height="48">
    <defs>
        <style type="text/css"></style>
    </defs>
    <path
        d="M970.752 487.424c-27.648 0-49.664 22.016-49.664 49.664v291.328c0 51.2-40.448 89.6-91.648 89.6h-272.896c-27.648 0-51.2 22.016-51.2 51.2 0 27.648 22.016 51.2 51.2 51.2h272.896c97.28 0 176.128-71.68 188.928-164.864 2.048-3.584 2.048-9.216 2.048-12.8v-306.176c0-27.136-22.016-49.152-49.664-49.152M461.824 3.584H194.048C96.768 3.584 17.92 75.264 5.12 168.448c-1.536 3.584-1.536 9.216-1.536 12.8V496.64c0 27.648 22.016 49.664 49.664 49.664 27.136-0.512 49.152-22.528 49.152-49.664V194.56c0-51.2 40.448-89.6 91.648-89.6h265.728c27.648 0 51.2-22.016 51.2-51.2 0-30.208-22.016-50.176-49.152-50.176M371.712 613.888l-318.976 2.048c-27.648 0-49.664 22.016-49.664 51.2 0 27.648 22.016 49.664 49.664 49.664h188.928L25.6 932.352a50.176 50.176 0 0 0-14.848 34.816c0.512 27.136 22.528 49.152 49.664 49.664 12.8 0 25.6-5.632 34.816-14.848l227.328-225.28v192.512c0 27.648 22.016 49.664 49.664 49.664s49.664-22.016 49.664-49.664v-306.176c0-12.8-5.632-25.6-14.848-34.816-7.68-9.216-20.48-14.336-35.328-14.336m245.76-220.16c9.216 9.216 22.016 14.848 34.816 14.848l318.976-2.048c27.648 0 49.664-22.016 49.664-51.2 0-27.648-22.016-49.664-51.2-49.664h-188.928l218.112-216.064c9.216-9.216 14.848-22.016 14.848-34.816s-5.632-25.6-14.848-34.816c-18.432-18.432-51.2-18.432-71.68 0l-225.28 225.28V54.784c0-27.648-22.016-49.664-49.664-49.664s-49.664 22.016-49.664 49.664v304.128c0 12.8 3.584 25.6 14.848 34.816"
        p-id="13534"></path>
</svg>
