<?xml version="1.0" standalone="no"?><!DOCTYPE svg PUBLIC "-//W3C//DTD SVG 1.1//EN" "http://www.w3.org/Graphics/SVG/1.1/DTD/svg11.dtd"><svg t="1652263169001" class="icon" viewBox="0 0 1024 1024" version="1.1" xmlns="http://www.w3.org/2000/svg" p-id="3890" width="128" height="128" xmlns:xlink="http://www.w3.org/1999/xlink"><defs><style type="text/css">@font-face { font-family: "feedback-iconfont"; src: url("//at.alicdn.com/t/font_1031158_u69w8yhxdu.woff2?t=1630033759944") format("woff2"), url("//at.alicdn.com/t/font_1031158_u69w8yhxdu.woff?t=1630033759944") format("woff"), url("//at.alicdn.com/t/font_1031158_u69w8yhxdu.ttf?t=1630033759944") format("truetype"); }
</style></defs><path d="M667.6 324.6c2.3-5.3 3.4-11.1 3.4-17.4 0-8-2.9-14.7-8.6-20.3-5.7-5.5-13.1-8.3-22.2-8.3-6.4 0-11.9 1.3-16.5 3.8-4.5 2.4-8.4 5.7-11.6 9.7-3.1 3.9-6.3 8.6-9.6 14.2l-9.3 15.9-78.8 129.9-88.1-137.8c-7.7-12.5-14.3-21.6-20.1-27.2-5.7-5.6-13.2-8.4-22.5-8.4-9.1 0-16.5 2.9-22.2 8.6-5.7 5.7-8.6 13.3-8.6 22.7 0 5.3 1 10.1 3 14.4 2 4.4 6.3 11.6 12.8 21.8L450.2 474h-34.6c-25.8 0-38.7 8.4-38.7 25.1 0 17.1 12.9 25.6 38.7 25.6H477v57.2h-61.4c-25.8 0-38.7 8.6-38.7 25.6 0 16.7 12.9 25.1 38.7 25.1H477v57.7c0 36.9 12.4 55.3 37.4 55.3 24.5 0 36.8-18.4 36.8-55.3v-57.7h61.6c25.6 0 38.5-8.3 38.5-25.1 0-17-12.8-25.6-38.5-25.6h-61.6v-57.2h61.6c25.6 0 38.5-8.5 38.5-25.6 0-16.7-12.8-25.1-38.5-25.1h-34.6l78.5-129.4c5-8 8.6-14.7 10.9-20z" p-id="3891"></path><path d="M512 64.2C265.1 64.2 64.2 265.1 64.2 512S265.1 959.8 512 959.8 959.8 758.9 959.8 512 758.9 64.2 512 64.2z m0 832.6c-212.2 0-384.8-172.6-384.8-384.8 0-212.2 172.6-384.8 384.8-384.8S896.8 299.8 896.8 512c0 212.2-172.6 384.8-384.8 384.8z" p-id="3892"></path></svg>