<?xml version="1.0" standalone="no"?><!DOCTYPE svg PUBLIC "-//W3C//DTD SVG 1.1//EN" "http://www.w3.org/Graphics/SVG/1.1/DTD/svg11.dtd"><svg t="1566387860878" class="icon" viewBox="0 0 1024 1024" version="1.1" xmlns="http://www.w3.org/2000/svg" p-id="5335" xmlns:xlink="http://www.w3.org/1999/xlink" width="128" height="128"><defs><style type="text/css"></style></defs><path d="M148.736 105.984v812.032a41.984 41.984 0 1 1-83.968 0V105.984a41.984 41.984 0 0 1 83.968 0z m-42.069333 770.048h809.728a41.984 41.984 0 1 1 0 83.968H106.666667a41.984 41.984 0 1 1 0-83.968zM371.797333 331.093333v432.810667a41.984 41.984 0 1 1-83.968 0V331.178667a41.984 41.984 0 0 1 83.968 0zM819.2 179.541333v584.533334a41.984 41.984 0 1 1-83.968 0v-584.533334a41.984 41.984 0 1 1 83.968 0z m-224.853333 298.666667v285.866667a41.984 41.984 0 1 1-83.968 0v-285.866667a42.069333 42.069333 0 0 1 83.968 0z" p-id="5336"></path></svg>