<?xml version="1.0" standalone="no"?><!DOCTYPE svg PUBLIC "-//W3C//DTD SVG 1.1//EN" "http://www.w3.org/Graphics/SVG/1.1/DTD/svg11.dtd"><svg t="1596011281316" class="icon" viewBox="0 0 1026 1024" version="1.1" xmlns="http://www.w3.org/2000/svg" p-id="38421" xmlns:xlink="http://www.w3.org/1999/xlink" width="128.25" height="128"><defs><style type="text/css"></style></defs><path d="M952.32 512c0-242.834286-197.485714-439.588571-439.588571-439.588571S73.142857 269.897143 73.142857 512c0 242.834286 197.485714 439.588571 439.588572 439.588571 242.102857 0 439.588571-196.754286 439.588571-439.588571M0 512c0-282.331429 229.668571-512 512-512s512 229.668571 512 512-229.668571 512-512 512-512-229.668571-512-512" p-id="38422"></path><path d="M767.268571 366.445714H659.748571c19.748571-26.331429 39.497143-58.514286 58.514286-96.548571l-57.051428-21.211429c-17.554286 42.422857-38.034286 81.188571-62.171429 117.76h-219.428571l37.302857-19.017143c-18.285714-32.914286-38.765714-62.902857-58.514286-89.965714l-50.468571 24.868572c19.748571 24.868571 39.497143 52.662857 57.782857 84.114285H261.12v141.897143h54.857143V419.84h396.434286v88.502857h55.588571V366.445714zM356.205714 456.411429v49.005714h236.251429l-36.571429 17.554286c-17.554286 8.045714-38.765714 17.554286-62.171428 27.794285v44.617143H262.582857v52.662857h231.131429v70.217143c0 14.628571-6.582857 21.942857-19.017143 21.942857-24.868571 0-48.274286-0.731429-68.754286-1.462857l13.165714 50.468572h74.605715c36.571429 0 55.588571-17.554286 55.588571-51.931429V648.045714h217.965714v-52.662857H549.302857v-20.48c45.348571-21.942857 86.308571-45.348571 123.611429-68.754286v-49.737142H356.205714z m141.897143-210.651429c19.017143 28.525714 38.034286 59.977143 55.588572 95.085714L503.954286 365.714286c-17.554286-35.84-35.84-67.291429-55.588572-95.085715l49.737143-24.868571z" p-id="38423"></path></svg>