<?xml version="1.0" standalone="no"?><!DOCTYPE svg PUBLIC "-//W3C//DTD SVG 1.1//EN" "http://www.w3.org/Graphics/SVG/1.1/DTD/svg11.dtd"><svg t="1571822407847" class="icon" viewBox="0 0 1024 1024" version="1.1" xmlns="http://www.w3.org/2000/svg" p-id="8258" xmlns:xlink="http://www.w3.org/1999/xlink" width="48" height="48"><defs><style type="text/css"></style></defs><path d="M493.714286 768L588.8 863.085714h-58.514286v124.342857h-73.142857v-124.342857h-58.514286l95.085715-95.085714zM237.714286 563.2h548.571428V512H237.714286v51.2z m0-95.085714h548.571428v-51.2H237.714286v51.2z m0 197.485714h548.571428v-51.2H237.714286v51.2z m146.285714-599.771429l-219.428571 212.114286h219.428571V65.828571zM881.371429 1024H654.628571v-58.514286h197.485715V58.514286H442.514286v241.371428c0 14.628571-14.628571 29.257143-29.257143 29.257143H135.314286v629.028572h204.8v65.828571H98.742857c-14.628571 0-29.257143-14.628571-29.257143-29.257143V292.571429c0-7.314286 0-14.628571 7.314286-21.942858l7.314286-7.314285L340.114286 14.628571c7.314286-7.314286 14.628571-14.628571 29.257143-14.628571h512c14.628571 0 29.257143 14.628571 29.257142 29.257143v965.485714c0 14.628571-14.628571 29.257143-29.257142 29.257143z" p-id="8259"></path></svg>