<?xml version="1.0" standalone="no"?><!DOCTYPE svg PUBLIC "-//W3C//DTD SVG 1.1//EN" "http://www.w3.org/Graphics/SVG/1.1/DTD/svg11.dtd"><svg t="1567666856304" class="icon" viewBox="0 0 1024 1024" version="1.1" xmlns="http://www.w3.org/2000/svg" p-id="6634" xmlns:xlink="http://www.w3.org/1999/xlink" width="128" height="128"><defs><style type="text/css"></style></defs><path d="M460.8 87.771429L146.285714 270.628571c-21.942857 14.628571-29.257143 36.571429-29.257143 58.514286v358.4c0 21.942857 14.628571 51.2 36.571429 58.514286l314.514286 182.857143c21.942857 14.628571 51.2 14.628571 73.142857 0l314.514286-182.857143c21.942857-14.628571 36.571429-36.571429 36.571428-58.514286V329.142857c0-21.942857-14.628571-51.2-36.571428-58.514286L533.942857 87.771429c-21.942857-7.314286-51.2-7.314286-73.142857 0M497.371429 1024c-29.257143 0-51.2-7.314286-73.142858-21.942857L109.714286 819.2c-43.885714-29.257143-73.142857-73.142857-73.142857-131.657143V329.142857c0-51.2 29.257143-102.4 73.142857-131.657143L424.228571 14.628571c43.885714-29.257143 102.4-29.257143 146.285715 0l314.514285 182.857143c43.885714 29.257143 73.142857 73.142857 73.142858 131.657143v358.4c0 51.2-29.257143 102.4-73.142858 131.657143l-314.514285 182.857143c-21.942857 14.628571-43.885714 21.942857-73.142857 21.942857" p-id="6635"></path><path d="M497.371429 431.542857c-43.885714 0-80.457143 36.571429-80.457143 80.457143 0 43.885714 36.571429 80.457143 80.457143 80.457143 43.885714 0 80.457143-36.571429 80.457142-80.457143 0-43.885714-36.571429-80.457143-80.457142-80.457143m0 234.057143c-87.771429 0-153.6-73.142857-153.6-153.6 0-87.771429 73.142857-153.6 153.6-153.6 87.771429 0 153.6 73.142857 153.6 153.6 0 87.771429-65.828571 153.6-153.6 153.6" p-id="6636"></path></svg>