<?xml version="1.0" standalone="no"?><!DOCTYPE svg PUBLIC "-//W3C//DTD SVG 1.1//EN" "http://www.w3.org/Graphics/SVG/1.1/DTD/svg11.dtd"><svg t="1596011274762" class="icon" viewBox="0 0 1025 1024" version="1.1" xmlns="http://www.w3.org/2000/svg" p-id="38143" xmlns:xlink="http://www.w3.org/1999/xlink" width="128.125" height="128"><defs><style type="text/css"></style></defs><path d="M951.588571 512c0-242.834286-197.485714-439.588571-439.588571-439.588571S72.411429 269.165714 72.411429 512s197.485714 439.588571 439.588571 439.588571c242.834286 0 439.588571-196.754286 439.588571-439.588571M0 512c0-282.331429 229.668571-512 512-512s512 229.668571 512 512-229.668571 512-512 512-512-229.668571-512-512" p-id="38144"></path><path d="M262.582857 331.337143v311.588571h53.394286V331.337143h-53.394286z m99.474286-78.994286v283.062857c-1.462857 100.937143-34.377143 174.08-98.742857 220.891429l41.691428 36.571428c71.68-54.125714 108.251429-139.702857 109.714286-256.731428V252.342857h-52.662857z m83.382857 19.017143h329.874286v52.662857h-137.508572v65.828572h124.342857v284.525714c0 37.302857-16.822857 56.32-49.737142 56.32h-40.96l-14.628572-54.125714 38.034286 2.925714c9.508571 0 13.897143-5.851429 13.897143-16.822857V441.782857h-70.948572v349.622857h-53.394285V441.782857h-70.948572v290.377143h-53.394286V389.851429h124.342858v-65.828572h-138.971429v-52.662857z" p-id="38145"></path></svg>