<?xml version="1.0" standalone="no"?><!DOCTYPE svg PUBLIC "-//W3C//DTD SVG 1.1//EN" "http://www.w3.org/Graphics/SVG/1.1/DTD/svg11.dtd"><svg t="1563529944729" class="icon" viewBox="0 0 1024 1024" version="1.1" xmlns="http://www.w3.org/2000/svg" p-id="3216" xmlns:xlink="http://www.w3.org/1999/xlink" width="48" height="48"><defs><style type="text/css"></style></defs><path d="M512 958.171429C263.314286 958.171429 65.828571 760.685714 65.828571 512S263.314286 65.828571 512 65.828571c248.685714 0 446.171429 197.485714 446.171429 446.171429s-204.8 446.171429-446.171429 446.171429M512 0C226.742857 0 0 226.742857 0 512s226.742857 512 512 512 512-226.742857 512-512-226.742857-512-512-512" p-id="3217"></path><path d="M453.485714 768c0 29.257143 21.942857 51.2 51.2 51.2 29.257143 0 51.2-21.942857 51.2-51.2 0-29.257143-21.942857-51.2-51.2-51.2-29.257143 7.314286-51.2 29.257143-51.2 51.2m226.742857-336.457143c-14.628571 14.628571-29.257143 36.571429-58.514285 65.828572l-58.514286 58.514285c-7.314286 7.314286-14.628571 21.942857-21.942857 43.885715 0 7.314286 0 21.942857-7.314286 36.571428v14.628572c0 7.314286-7.314286 7.314286-14.628571 7.314285h-36.571429c-14.628571 0-21.942857 0-21.942857-14.628571v-14.628572c0-14.628571 0-29.257143 7.314286-43.885714 0-21.942857 14.628571-36.571429 21.942857-51.2 7.314286-14.628571 29.257143-36.571429 51.2-58.514286 29.257143-29.257143 43.885714-51.2 51.2-58.514285 14.628571-7.314286 14.628571-29.257143 14.628571-51.2 0-21.942857-7.314286-51.2-29.257143-65.828572-14.628571-21.942857-43.885714-29.257143-73.142857-29.257143-65.828571 0-102.4 36.571429-109.714285 117.028572 0 7.314286-7.314286 14.628571-14.628572 14.628571h-43.885714c-7.314286 0-14.628571-7.314286-14.628572-14.628571 0-29.257143 7.314286-58.514286 14.628572-73.142857 7.314286-21.942857 14.628571-43.885714 36.571428-58.514286 14.628571-14.628571 43.885714-29.257143 58.514286-36.571429 29.257143-7.314286 51.2-14.628571 73.142857-14.628571 51.2 0 95.085714 14.628571 131.657143 43.885714 36.571429 29.257143 51.2 73.142857 51.2 117.028572 0 29.257143 0 43.885714-7.314286 65.828571" p-id="3218"></path></svg>