<?xml version="1.0" standalone="no"?><!DOCTYPE svg PUBLIC "-//W3C//DTD SVG 1.1//EN" "http://www.w3.org/Graphics/SVG/1.1/DTD/svg11.dtd"><svg t="1562555608086" class="icon" viewBox="0 0 1024 1024" version="1.1" xmlns="http://www.w3.org/2000/svg" p-id="5294" xmlns:xlink="http://www.w3.org/1999/xlink" width="128" height="128"><defs><style type="text/css"></style></defs><path d="M512 1024C230.4 1024 0 793.6 0 512S230.4 0 512 0s512 230.4 512 512-230.4 512-512 512z m0-987.428571C248.685714 36.571429 36.571429 248.685714 36.571429 512s212.114286 475.428571 475.428571 475.428571 475.428571-212.114286 475.428571-475.428571S775.314286 36.571429 512 36.571429z" fill="#CCCCCC" p-id="5295"></path><path d="M720.457143 384c7.314286-7.314286 7.314286-21.942857 0-29.257143l-128-128c-7.314286-7.314286-21.942857-7.314286-29.257143 0l-263.314286 263.314286v157.257143h157.257143l263.314286-263.314286z m-142.628572-113.371429l98.742858 98.742858-54.857143 54.857142-98.742857-98.742857 54.857142-54.857143z m-237.714285 332.8v-98.742857l149.942857-149.942857 98.742857 98.742857-149.942857 149.942857H340.114286zM256 731.428571h512v-43.885714H256V731.428571z" fill="#CCCCCC" p-id="5296"></path></svg>