<?xml version="1.0" standalone="no"?><!DOCTYPE svg PUBLIC "-//W3C//DTD SVG 1.1//EN" "http://www.w3.org/Graphics/SVG/1.1/DTD/svg11.dtd"><svg t="1561377791827" class="icon" viewBox="0 0 1024 1024" version="1.1" xmlns="http://www.w3.org/2000/svg" p-id="2278" xmlns:xlink="http://www.w3.org/1999/xlink" width="128" height="128"><defs><style type="text/css"></style></defs><path d="M931.352381 199.92381V926.47619c0 34.133333-29.257143 63.390476-68.266667 68.266667H141.409524C107.27619 994.742857 73.142857 965.485714 73.142857 926.47619V68.266667C73.142857 29.257143 102.4 0 141.409524 0h594.895238l195.047619 199.92381z" fill="#D6D6D6" p-id="2279"></path><path d="M477.866667 243.809524c43.885714 0 78.019048 9.752381 107.27619 34.133333 29.257143 24.380952 39.009524 58.514286 39.009524 97.52381 0 34.133333-9.752381 63.390476-24.380952 82.895238-4.87619 9.752381-24.380952 24.380952-58.514286 53.638095-9.752381 14.628571-19.504762 24.380952-29.257143 39.009524-9.752381 14.628571-9.752381 29.257143-9.752381 43.885714v9.752381H429.104762v-9.752381c0-24.380952 4.87619-48.761905 14.628571-63.390476 9.752381-19.504762 34.133333-48.761905 78.019048-82.895238l9.752381-14.628572c14.628571-14.628571 19.504762-34.133333 19.504762-48.761904 0-24.380952-4.87619-43.885714-19.504762-53.638096-14.628571-19.504762-34.133333-24.380952-58.514286-24.380952-29.257143 0-53.638095 9.752381-68.266666 29.257143-9.752381 14.628571-14.628571 39.009524-14.628572 68.266667H316.952381c0-48.761905 14.628571-87.771429 43.885714-117.028572 29.257143-29.257143 68.266667-43.885714 117.028572-43.885714z m-9.752381 399.847619c14.628571 0 24.380952 4.87619 34.133333 14.628571 9.752381 9.752381 14.628571 19.504762 14.628571 34.133334s-4.87619 24.380952-14.628571 34.133333c-9.752381 9.752381-19.504762 14.628571-34.133333 14.628571-14.628571 0-24.380952-4.87619-34.133334-14.628571-14.628571-9.752381-19.504762-19.504762-19.504762-34.133333 0-14.628571 4.87619-24.380952 14.628572-34.133334 9.752381-9.752381 24.380952-14.628571 39.009524-14.628571z" fill="#FFFFFF" p-id="2280"></path><path d="M931.352381 199.92381h-131.657143c-34.133333 0-68.266667-29.257143-68.266667-68.266667V0l199.92381 199.92381z" fill="#EEEEEE" p-id="2281"></path></svg>