<?xml version="1.0" standalone="no"?><!DOCTYPE svg PUBLIC "-//W3C//DTD SVG 1.1//EN" "http://www.w3.org/Graphics/SVG/1.1/DTD/svg11.dtd"><svg t="1594624046962" class="icon" viewBox="0 0 1024 1024" version="1.1" xmlns="http://www.w3.org/2000/svg" p-id="15744" xmlns:xlink="http://www.w3.org/1999/xlink" width="128" height="128"><defs><style type="text/css"></style></defs><path d="M905.846154 976.738462l-86.646154-55.138462c0-165.415385-133.907692-283.569231-307.2-283.569231s-307.2 118.153846-307.2 283.569231H118.153846C118.153846 708.923077 283.569231 551.384615 512 551.384615s393.846154 157.538462 393.846154 362.338462M512 78.769231C409.6 78.769231 322.953846 157.538462 322.953846 259.938462c0 102.4 86.646154 181.169231 189.046154 181.16923 102.4 0 189.046154-78.769231 189.046154-181.16923C701.046154 165.415385 614.4 78.769231 512 78.769231m0 448.984615c-149.661538 0-267.815385-118.153846-267.815385-259.938461C244.184615 118.153846 362.338462 0 512 0s267.815385 118.153846 267.815385 259.938462c0 149.661538-118.153846 267.815385-267.815385 267.815384" fill="#999999" p-id="15745"></path></svg>