<?xml version="1.0" encoding="utf-8"?>
<!-- Generator: Adobe Illustrator 21.0.0, SVG Export Plug-In . SVG Version: 6.00 Build 0)  -->
<svg version="1.1" id="图层_1" xmlns="http://www.w3.org/2000/svg" xmlns:xlink="http://www.w3.org/1999/xlink" x="0px" y="0px"
	 viewBox="0 0 14 14" style="enable-background:new 0 0 14 14;" xml:space="preserve">
<title>Fill 1</title>
<desc>Created with Sketch.</desc>
<g id="后台框架">
	<g id="新建群组3" transform="translate(-25.000000, -76.000000)">
		<g id="Group-8" transform="translate(25.000000, 76.000000)">
			<path id="Fill-1" class="st0" d="M9.9,8.2C9.5,8.1,9,8,8.6,7.9c0.7-0.6,1.1-1.4,1.1-2.4V3.2C9.7,1.4,8.3,0,6.5,0
				C4.8,0,3.4,1.4,3.4,3.2v2.3c0,1,0.5,1.9,1.2,2.4C4.1,8,3.6,8.2,3.2,8.3C2.4,8.5,1.7,8.8,1,9.1c-0.6,0.2-1,0.8-1,1.4V13l0,0.1
				C0.2,13.6,0.7,14,1.2,14h10.9c0.6,0,1.1-0.5,1.2-1.1l0-2.4c0-0.6-0.4-1.2-1-1.4C12.3,9.1,11.3,8.6,9.9,8.2z M4.4,3.1
				c0-1.2,1-2.1,2.1-2.1c1.2,0,2.1,0.9,2.1,2.1v2.5c0,1.2-1,2.1-2.1,2.1c-1.2,0-2.1-0.9-2.1-2.1V3.1z M12.4,12.9l-11.5,0
				c0,0,0,0,0,0v-2.4c0-0.1,0.1-0.3,0.2-0.3c0,0,1.4-0.6,3-1C5,8.9,5.9,8.8,6.7,8.8c0.7,0,1.5,0.1,2.3,0.3c1.1,0.3,2.2,0.6,3.2,1.1
				c0.1,0,0.2,0.2,0.2,0.3V12.9L12.4,12.9z"/>
		</g>
	</g>
</g>
</svg>
