<?xml version="1.0" standalone="no"?><!DOCTYPE svg PUBLIC "-//W3C//DTD SVG 1.1//EN" "http://www.w3.org/Graphics/SVG/1.1/DTD/svg11.dtd"><svg t="1564101753056" class="icon" viewBox="0 0 1024 1024" version="1.1" xmlns="http://www.w3.org/2000/svg" p-id="6769" xmlns:xlink="http://www.w3.org/1999/xlink" width="48" height="48"><defs><style type="text/css"></style></defs><path d="M860.16 832.853333c-109.226667 6.826667-218.453333 34.133333-334.506667 81.92v-341.333333c102.4-54.613333 218.453333-81.92 334.506667-88.746667v348.16z m-402.773333 81.92c-116.053333-47.786667-225.28-75.093333-341.333334-81.92V484.693333c116.053333 0 232.106667 27.306667 341.333334 88.746667v341.333333z m484.693333-314.026666h-20.48v-136.533334c0-13.653333-6.826667-20.48-13.653333-27.306666-6.826667-6.826667-20.48-6.826667-34.133334-6.826667-129.706667 0-259.413333 34.133333-382.293333 95.573333-122.88-68.266667-252.586667-95.573333-382.293333-95.573333-13.653333 0-27.306667 0-34.133334 6.826667-6.826667 6.826667-13.653333 13.653333-13.653333 27.306666v136.533334H40.96c-13.653333 0-20.48 6.826667-20.48 20.48v81.92c0 13.653333 13.653333 20.48 20.48 20.48H68.266667v129.706666c0 20.48 13.653333 34.133333 40.96 40.96h6.826666c116.053333 0 232.106667 34.133333 354.986667 88.746667 6.826667 6.826667 20.48 6.826667 27.306667 6.826667 6.826667 0 20.48 0 27.306666-6.826667 122.88-54.613333 238.933333-88.746667 354.986667-88.746667h6.826667c20.48-6.826667 40.96-20.48 40.96-40.96v-129.706666h20.48c13.653333 0 20.48-6.826667 20.48-20.48V621.226667c-6.826667-13.653333-13.653333-20.48-27.306667-20.48z" p-id="6770"></path><path d="M491.52 68.266667c47.786667 0 88.746667 20.48 122.88 47.786666 27.306667 27.306667 47.786667 68.266667 47.786667 109.226667 0 20.48-6.826667 40.96-13.653334 61.44-27.306667 61.44-88.746667 102.4-157.013333 102.4-95.573333 0-170.666667-68.266667-170.666667-157.013333S395.946667 68.266667 491.52 68.266667M341.333333 402.773333l-34.133333 20.48c-13.653333 0-20.48 20.48-13.653333 27.306667 6.826667 13.653333 20.48 13.653333 34.133333 6.826667l61.44-34.133334c27.306667 13.653333 61.44 20.48 95.573333 20.48 34.133333 0 61.44-6.826667 88.746667-13.653333l61.44 34.133333h13.653333c6.826667 0 20.48-6.826667 20.48-13.653333 6.826667-13.653333 0-27.306667-6.826666-34.133333l-27.306667-13.653334c61.44-40.96 95.573333-109.226667 95.573333-177.493333C730.453333 102.4 621.226667 0 491.52 0S252.586667 102.4 252.586667 225.28c0 75.093333 34.133333 136.533333 88.746666 177.493333" p-id="6771"></path></svg>