<?xml version="1.0" standalone="no"?><!DOCTYPE svg PUBLIC "-//W3C//DTD SVG 1.1//EN" "http://www.w3.org/Graphics/SVG/1.1/DTD/svg11.dtd"><svg t="1567666877487" class="icon" viewBox="0 0 1024 1024" version="1.1" xmlns="http://www.w3.org/2000/svg" p-id="7526" xmlns:xlink="http://www.w3.org/1999/xlink" width="128" height="128"><defs><style type="text/css"></style></defs><path d="M504.685714 80.457143c-87.771429 0-160.914286 73.142857-160.914285 160.914286 0 87.771429 73.142857 160.914286 160.914285 160.914285 87.771429 0 160.914286-73.142857 160.914286-160.914285s-73.142857-160.914286-160.914286-160.914286m0 409.6C365.714286 490.057143 256 380.342857 256 248.685714S365.714286 0 504.685714 0s248.685714 109.714286 248.685715 248.685714-117.028571 241.371429-248.685715 241.371429M314.514286 621.714286c-87.771429 0-160.914286 73.142857-160.914286 160.914285v7.314286c0 87.771429 73.142857 160.914286 160.914286 160.914286h380.342857c87.771429 0 160.914286-73.142857 160.914286-160.914286v-7.314286c0-87.771429-73.142857-160.914286-160.914286-160.914285H314.514286zM687.542857 1024H314.514286C182.857143 1024 73.142857 914.285714 73.142857 782.628571v-7.314285c0-131.657143 109.714286-241.371429 241.371429-241.371429h380.342857c131.657143 0 241.371429 109.714286 241.371428 241.371429v7.314285c-7.314286 131.657143-109.714286 241.371429-248.685714 241.371429z" p-id="7527"></path></svg>