<?xml version="1.0" standalone="no"?><!DOCTYPE svg PUBLIC "-//W3C//DTD SVG 1.1//EN"
    "http://www.w3.org/Graphics/SVG/1.1/DTD/svg11.dtd">
<svg t="1578997209516" class="icon" viewBox="0 0 1024 1024" version="1.1" xmlns="http://www.w3.org/2000/svg"
     p-id="12817" xmlns:xlink="http://www.w3.org/1999/xlink" width="48" height="48">
    <defs>
        <style type="text/css"></style>
    </defs>
    <path
        d="M513.378462 17.014154c267.815385 0 484.430769 216.615385 484.430769 484.430769s-216.615385 484.430769-484.430769 484.430769-484.430769-216.615385-484.43077-484.430769c-3.938462-267.815385 216.615385-484.430769 484.43077-484.430769z m169.353846 614.4h-346.584616c-78.769231 0-141.784615 63.015385-141.784615 141.784615 74.830769 86.646154 189.046154 145.723077 315.076923 145.723077s236.307692-59.076923 315.076923-145.723077c0-78.769231-63.015385-141.784615-141.784615-141.784615z m-169.353846-547.446154c-228.430769 0-417.476923 185.107692-417.476924 417.476923 0 70.892308 15.753846 133.907692 47.261539 192.984615 31.507692-74.830769 102.4-129.969231 185.107692-133.907692h354.461539c86.646154 0 165.415385 55.138462 196.923077 133.907692 31.507692-59.076923 47.261538-122.092308 47.261538-192.984615 0-228.430769-185.107692-417.476923-413.538461-417.476923z m0 129.969231c90.584615 0 161.476923 70.892308 161.476923 161.476923s-70.892308 161.476923-161.476923 161.476923-161.476923-70.892308-161.476924-161.476923c-3.938462-90.584615 70.892308-161.476923 161.476924-161.476923z m0 66.953846c-51.2 0-94.523077 43.323077-94.523077 94.523077s43.323077 94.523077 94.523077 94.523077c51.2 0 94.523077-43.323077 94.523076-94.523077-3.938462-51.2-43.323077-94.523077-94.523076-94.523077z"
        p-id="12818"></path>
</svg>
