<?xml version="1.0" standalone="no"?><!DOCTYPE svg PUBLIC "-//W3C//DTD SVG 1.1//EN" "http://www.w3.org/Graphics/SVG/1.1/DTD/svg11.dtd"><svg t="1652407518540" class="icon" viewBox="0 0 1024 1024" version="1.1" xmlns="http://www.w3.org/2000/svg" p-id="862" width="128" height="128" xmlns:xlink="http://www.w3.org/1999/xlink"><defs><style type="text/css">@font-face { font-family: "feedback-iconfont"; src: url("//at.alicdn.com/t/font_1031158_u69w8yhxdu.woff2?t=1630033759944") format("woff2"), url("//at.alicdn.com/t/font_1031158_u69w8yhxdu.woff?t=1630033759944") format("woff"), url("//at.alicdn.com/t/font_1031158_u69w8yhxdu.ttf?t=1630033759944") format("truetype"); }
</style></defs><path d="M96 911.5c0 18.9 15.4 34.3 34.3 34.3s34.3-15.4 34.3-34.3H96z m594.7-320.8c8.1 4.2 17.5 5 26.2 2.2 18-5.7 28-25 22.3-43.1-2.8-8.7-8.9-15.9-16.9-20.1l-31.6 61zM164.6 911.5c0-199.2 161.5-360.8 360.8-360.8v-68.6C288.2 482.1 96 674.3 96 911.5h68.6z m360.8-360.8c49.8 0 97.2 10.1 140.3 28.3l26.7-63.2c-51.4-21.7-107.8-33.7-167-33.7v68.6zM665.6 579c8.5 3.6 16.8 7.5 25 11.7l31.5-60.9c-9.8-5-19.7-9.7-29.8-14L665.6 579z m28.5-276.6c0 93.2-75.5 168.7-168.7 168.7v68.6c131.1 0 237.3-106.2 237.3-237.3h-68.6zM525.3 471.1c-93.2 0-168.7-75.5-168.7-168.7H288c0 131.1 106.2 237.3 237.3 237.3v-68.6zM356.6 302.4c0-93.2 75.5-168.7 168.7-168.7V65.1c-131 0-237.3 106.3-237.3 237.3h68.6z m168.7-168.7c93.2 0 168.7 75.5 168.7 168.7h68.6c0-131.1-106.2-237.3-237.3-237.3v68.6z m198.9 598.8h56.4c43.5 0 78.9 35.4 78.9 78.9 0 43.5-35.4 78.9-78.9 78.9h-57.1c-19 0-34.3 15.4-34.3 34.3 0 19 15.4 34.3 34.3 34.3l57-0.1c81.4 0 147.5-66.2 147.5-147.5 0-40.6-16.6-77.5-43.3-104.2-26.7-26.7-63.6-43.3-104.2-43.3h-56.4c-19 0-34.3 15.4-34.3 34.3 0.1 19 15.5 34.3 34.4 34.4zM563.7 958.9l53.6-0.1c19 0 34.3-15.4 34.3-34.3 0-19-15.4-34.3-34.3-34.3h-53.7c-43.5 0-78.9-35.4-78.9-78.9 0-43.5 35.4-78.9 78.9-78.9h53.7c19 0 34.3-15.4 34.3-34.4 0-9.1-3.6-17.8-10-24.2-6.4-6.5-15.1-10.1-24.2-10h-53.7c-81.4 0-147.5 66.2-147.5 147.5 0.1 81.3 66.2 147.5 147.5 147.6z m-13.4-145.2c0.5 17.3 14.5 30.9 31.8 30.4l186.3-3.2c17.3-0.5 30.9-14.5 30.4-31.8s-14.5-30.9-31.8-30.4l-186.3 3.2c-16.7 0.4-30.8 14.9-30.4 31.8z" p-id="863"></path></svg>