<?xml version="1.0" standalone="no"?><!DOCTYPE svg PUBLIC "-//W3C//DTD SVG 1.1//EN" "http://www.w3.org/Graphics/SVG/1.1/DTD/svg11.dtd"><svg t="1561377810117" class="icon" viewBox="0 0 1024 1024" version="1.1" xmlns="http://www.w3.org/2000/svg" p-id="2790" xmlns:xlink="http://www.w3.org/1999/xlink" width="128" height="128"><defs><style type="text/css"></style></defs><path d="M931.352381 204.8v750.933333c0 39.009524-29.257143 68.266667-68.266667 68.266667H141.409524C102.4 1024 73.142857 989.866667 73.142857 955.733333V68.266667C73.142857 29.257143 102.4 0 141.409524 0h594.895238l195.047619 204.8z" fill="#FF9529" p-id="2791"></path><path d="M612.693333 468.114286v146.285714l102.4 87.771429V380.342857zM559.055238 711.92381s43.885714 0 43.885714-48.761905V429.104762c0-48.761905-43.885714-48.761905-43.885714-48.761905h-243.809524s-43.885714 0-43.885714 48.761905v234.057143c0 48.761905 43.885714 48.761905 43.885714 48.761905h243.809524z" fill="#FFFFFF" p-id="2792"></path><path d="M931.352381 204.8h-131.657143c-34.133333 0-68.266667-29.257143-68.266667-68.266667V0l199.92381 204.8z" fill="#FFBD7E" p-id="2793"></path></svg>