<?xml version="1.0" standalone="no"?><!DOCTYPE svg PUBLIC "-//W3C//DTD SVG 1.1//EN" "http://www.w3.org/Graphics/SVG/1.1/DTD/svg11.dtd"><svg t="1594779439587" class="icon" viewBox="0 0 1024 1024" version="1.1" xmlns="http://www.w3.org/2000/svg" p-id="3055" xmlns:xlink="http://www.w3.org/1999/xlink" width="128" height="128"><defs><style type="text/css"></style></defs><path d="M0 512c0-170.666667 34.133333-307.2 119.466667-392.533333C204.8 34.133333 341.333333 0 512 0c170.666667 0 307.2 34.133333 392.533333 119.466667C989.866667 204.8 1024 341.333333 1024 512c0 170.666667-34.133333 307.2-119.466667 392.533333C819.2 989.866667 682.666667 1024 512 1024c-170.666667 0-307.2-34.133333-392.533333-119.466667C34.133333 819.2 0 682.666667 0 512" fill="#666666" p-id="3056"></path><path d="M699.733333 460.8L418.133333 307.2c-34.133333-17.066667-76.8 8.533333-76.8 51.2v307.2c0 42.666667 42.666667 68.266667 76.8 51.2l281.6-153.6c34.133333-25.6 34.133333-76.8 0-102.4" fill="#FEFEFE" p-id="3057"></path></svg>