<?xml version="1.0" standalone="no"?><!DOCTYPE svg PUBLIC "-//W3C//DTD SVG 1.1//EN" "http://www.w3.org/Graphics/SVG/1.1/DTD/svg11.dtd"><svg t="1564121538676" class="icon" viewBox="0 0 1024 1024" version="1.1" xmlns="http://www.w3.org/2000/svg" p-id="3971" xmlns:xlink="http://www.w3.org/1999/xlink" width="48" height="48"><defs><style type="text/css"></style></defs><path d="M512 621.22666667a109.22666667 109.22666667 0 1 1 0-218.45333334 109.22666667 109.22666667 0 0 1 0 218.45333334m0-291.27111112c-100.37930667 0-182.04444445 81.66513778-182.04444445 182.04444445s81.66513778 182.04444445 182.04444445 182.04444445 182.04444445-81.66513778 182.04444445-182.04444445-81.66513778-182.04444445-182.04444445-182.04444445"  p-id="3972"></path><path d="M512 839.68c-241.28170667 0-436.90666667-291.27111111-436.90666667-327.68s195.62496-327.68 436.90666667-327.68 436.90666667 291.27111111 436.90666667 327.68-195.62496 327.68-436.90666667 327.68m0-728.17777778C231.25105778 111.50222222 2.27555555 433.50243555 2.27555555 512c0 78.49756445 228.97550222 400.49777778 509.72444445 400.49777778s509.72444445-322.00021333 509.72444445-400.49777778c0-78.49756445-228.97550222-400.49777778-509.72444445-400.49777778"  p-id="3973"></path></svg>
