<?xml version="1.0" standalone="no"?><!DOCTYPE svg PUBLIC "-//W3C//DTD SVG 1.1//EN" "http://www.w3.org/Graphics/SVG/1.1/DTD/svg11.dtd"><svg t="1571822403414" class="icon" viewBox="0 0 1024 1024" version="1.1" xmlns="http://www.w3.org/2000/svg" p-id="8142" xmlns:xlink="http://www.w3.org/1999/xlink" width="48" height="48"><defs><style type="text/css"></style></defs><path d="M877.714286 906.971429c0 29.257143-21.942857 51.2-51.2 51.2H190.171429c-29.257143 0-51.2-21.942857-51.2-51.2V204.8c0-29.257143 21.942857-51.2 51.2-51.2h73.142857c14.628571 51.2 58.514286 87.771429 109.714285 87.771429h270.628572c51.2 0 95.085714-36.571429 109.714286-87.771429h73.142857c29.257143 0 51.2 21.942857 51.2 51.2v702.171429zM329.142857 109.714286c0-21.942857 21.942857-36.571429 43.885714-36.571429h270.628572c21.942857 0 43.885714 21.942857 43.885714 43.885714v14.628572c0 21.942857-21.942857 43.885714-43.885714 43.885714H373.028571c-21.942857 0-43.885714-21.942857-43.885714-43.885714v-21.942857z m497.371429-21.942857h-73.142857C738.742857 36.571429 694.857143 0 643.657143 0H373.028571c-51.2 0-95.085714 36.571429-109.714285 87.771429h-73.142857C124.342857 87.771429 73.142857 138.971429 73.142857 204.8v694.857143c0 73.142857 51.2 124.342857 117.028572 124.342857h636.342857c65.828571 0 117.028571-51.2 117.028571-117.028571V204.8c0-65.828571-51.2-117.028571-117.028571-117.028571z" p-id="8143"></path><path d="M687.542857 394.971429h-365.714286c-21.942857 0-36.571429-14.628571-36.571428-29.257143 0-21.942857 14.628571-36.571429 29.257143-36.571429h373.028571c21.942857 0 29.257143 14.628571 29.257143 36.571429 7.314286 14.628571-7.314286 29.257143-29.257143 29.257143M504.685714 877.714286C387.657143 877.714286 292.571429 782.628571 292.571429 665.6c0-117.028571 95.085714-212.114286 212.114285-212.114286 117.028571 0 212.114286 95.085714 212.114286 212.114286 7.314286 117.028571-87.771429 212.114286-212.114286 212.114286m0-58.514286c87.771429 0 160.914286-73.142857 160.914286-160.914286s-73.142857-160.914286-160.914286-160.914285c-87.771429 0-160.914286 73.142857-160.914285 160.914285s73.142857 160.914286 160.914285 160.914286" p-id="8144"></path><path d="M541.257143 760.685714c0-7.314286-7.314286-7.314286-7.314286-7.314285s-7.314286-7.314286-14.628571-7.314286h-29.257143c-7.314286 0-7.314286 7.314286-14.628572 7.314286 0 0-7.314286 7.314286-7.314285 14.628571v29.257143c0 7.314286 7.314286 7.314286 7.314285 7.314286l7.314286 7.314285H512c7.314286 0 7.314286-7.314286 14.628571-7.314285 0 0 7.314286-7.314286 7.314286-14.628572v-14.628571c14.628571-7.314286 7.314286-14.628571 7.314286-14.628572z m-7.314286-36.571428l7.314286-190.171429h-73.142857l7.314285 190.171429h58.514286z" p-id="8145"></path></svg>