<?xml version="1.0" standalone="no"?><!DOCTYPE svg PUBLIC "-//W3C//DTD SVG 1.1//EN" "http://www.w3.org/Graphics/SVG/1.1/DTD/svg11.dtd"><svg class="icon" width="200px" height="185.84px" viewBox="0 0 1102 1024" version="1.1" xmlns="http://www.w3.org/2000/svg"><path d="M1096.732994 375.679885a46.708034 46.708034 0 0 0 2.520501-4.647173v-0.157532a38.673937 38.673937 0 0 0 2.599267-7.561503v-0.236297a50.882614 50.882614 0 0 0 0.787657-5.041002v-0.630125L1102.719184 355.437112v-0.866423-2.599266a36.07467 36.07467 0 0 0-0.236297-2.126673l-0.078765-0.551359a39.461594 39.461594 0 0 0-2.91433-10.554598l-137.839898-315.062624-0.315062-0.55136a27.725511 27.725511 0 0 0-0.787657-1.732844L959.91705 20.525542 959.129393 18.950229 958.578034 18.162573l-0.315063-0.55136-0.551359-0.787657-0.708891-0.866422-1.023954-1.417782-0.630125-0.630125a34.81442 34.81442 0 0 0-1.732845-1.969141l-0.236297-0.236297a42.848517 42.848517 0 0 0-1.732844-1.575313L951.016531 9.49835a40.958141 40.958141 0 0 0-1.339016-1.102719l-0.787657-0.630125a32.845279 32.845279 0 0 0-1.417782-0.945188l-0.787656-0.551359A42.218392 42.218392 0 0 0 945.187872 5.323771l-0.787656-0.472594-1.732845-0.787657-0.630125-0.393828a58.444117 58.444117 0 0 0-2.520501-1.023954L938.88662 2.409441a44.896424 44.896424 0 0 0-1.81161-0.630125L936.129822 1.621785a34.184295 34.184295 0 0 0-1.575313-0.393828L933.373024 0.834128l-1.575313-0.315062-1.023954-0.236297a32.687747 32.687747 0 0 0-1.81161-0.157532L928.174491 0.046472A44.896424 44.896424 0 0 0 925.417693 0.046472H177.301492a26.780323 26.780323 0 0 0-2.756798 0.078765l-0.787657 0.078766-1.890376 0.236297-1.023953 0.157531-1.575313 0.315063-1.102719 0.236297a34.26306 34.26306 0 0 0-1.575314 0.393828l-0.945187 0.236297A46.23544 46.23544 0 0 0 163.832565 2.409441l-0.630126 0.236297-2.362969 1.023954-0.787657 0.315063-1.575313 0.866422L157.531312 5.323771A42.218392 42.218392 0 0 0 155.955999 6.347724l-0.787657 0.55136a27.961808 27.961808 0 0 0-1.417781 0.945188l-0.787657 0.630125a13.941521 13.941521 0 0 0-1.339016 1.102719l-0.708891 0.55136a30.718606 30.718606 0 0 0-1.575313 1.575313L149.024621 11.86132c-0.630125 0.630125-1.26025 1.181485-1.732844 1.969142l-0.630125 0.630125a26.937854 26.937854 0 0 0-1.023954 1.417782L144.928807 16.744791l-0.55136 0.787656L144.141151 18.162573 143.589791 18.950229l-0.787657 1.496548-0.551359 0.787656-0.866422 1.81161L141.06929 23.676169l-137.839898 315.062624a40.721844 40.721844 0 0 0-1.81161 5.277299v0.157531a39.776656 39.776656 0 0 0-1.102719 5.119768v0.472593L0 351.971423v0.393828L0 354.570689V358.036378a43.163579 43.163579 0 0 0 0.787657 5.041002v0.157532a39.304062 39.304062 0 0 0 2.599266 7.640268l0.078766 0.157532c0.787657 1.575313 1.575313 3.150626 2.520501 4.647173l0.236297 0.315063a42.690986 42.690986 0 0 0 2.993095 4.17458l0.236297 0.157531 512.05553 590.899951 1.023953 1.10272 0.315063 0.393828a28.355636 28.355636 0 0 0 1.890375 1.732844l0.472594 0.55136 1.575313 1.181485 0.472594 0.472594 2.047907 1.417782 0.078766 0.078765 2.205438 1.339016 0.630126 0.393829 1.654079 0.866422 0.787656 0.315062c0.708891 0.393828 1.496547 0.787657 2.284204 1.023954l0.393828 0.157531 1.969142 0.708891 0.787656 0.236297 1.890376 0.472594 0.708891 0.157531 2.36297 0.472594 0.787656 0.078766 1.969142 0.236297h0.787656l2.599267 0.157531 2.678032-0.078765h0.787657l1.969141-0.315063h0.708891a42.927283 42.927283 0 0 0 2.36297-0.55136l0.787656-0.157531 1.81161-0.472594 0.787657-0.236297 1.969141-0.787656 0.472594-0.078766a27.56798 27.56798 0 0 0 2.36297-1.023954l0.630125-0.315062 1.732845-0.866422 0.630125-0.393829 2.126673-1.339016 0.157531-0.078765a29.852184 29.852184 0 0 0 1.969141-1.417782l0.55136-0.472594 1.575313-1.181485 0.472594-0.55136a27.095386 27.095386 0 0 0 1.81161-1.732844l0.315063-0.393828 1.102719-1.10272 511.976764-590.821185 0.236297-0.236297a39.146531 39.146531 0 0 0 3.07186-4.17458l0.472594-0.315063zM176.277538 140.091808l72.228107 175.096053h-148.86709l76.638983-175.096053z m211.485787 175.096053l163.753798-211.40702L715.192157 315.109096H387.763325z m348.931856 78.765656l-185.178058 448.176583-185.178057-448.176583h370.277349zM280.957095 393.874752l141.62065 342.630604L125.709987 393.874752h155.325874z m540.804994 0h155.40464l-296.946524 342.630604L821.840855 393.874752z m32.530216-78.765656l72.385638-175.096054 76.560218 175.096054h-148.86709z m-69.313777-38.43764L631.700561 78.812128h234.957952L785.057294 276.750221zM471.018623 78.812128L317.898188 276.750221 236.218202 78.812128H471.018623z" /></svg>