<?xml version="1.0" standalone="no"?><!DOCTYPE svg PUBLIC "-//W3C//DTD SVG 1.1//EN" "http://www.w3.org/Graphics/SVG/1.1/DTD/svg11.dtd"><svg t="1566469517996" class="icon" viewBox="0 0 1024 1024" version="1.1" xmlns="http://www.w3.org/2000/svg" p-id="6177" xmlns:xlink="http://www.w3.org/1999/xlink" width="48" height="48"><defs><style type="text/css"></style></defs><path d="M561.728 900.16c0 96.128-73.664 46.592-73.664 46.592l-319.424-268.8h-49.28A55.808 55.808 0 0 1 64 621.632V396.416c0-31.104 24.768-56.32 55.36-56.32h58.944l309.76-262.72s73.728-50.048 73.728 46.912l-0.064 775.872m166.016-241.024c92.224-75.072 86.144-217.344 0-281.472-33.728-20.288-55.232 46.976-55.232 46.976s86.016 107.904 0 187.648c-16.96 21.888 15.36 67.264 55.232 46.848m46.144-440.96c-12.224-10.944-72.256 29.632-36.864 65.664 182.848 154.816 185.92 300.224 0 459.84-27.648 26.624 9.216 76.608 36.864 65.664 253.504-117.376 242.816-481.664 0-591.168m0 0z" p-id="6178"></path></svg>