<?xml version="1.0" standalone="no"?><!DOCTYPE svg PUBLIC "-//W3C//DTD SVG 1.1//EN" "http://www.w3.org/Graphics/SVG/1.1/DTD/svg11.dtd"><svg t="1586946775495" class="icon" viewBox="0 0 1024 1024" version="1.1" xmlns="http://www.w3.org/2000/svg" p-id="1347" xmlns:xlink="http://www.w3.org/1999/xlink" width="200" height="200"><defs><style type="text/css"></style></defs><path d="M512 512m-512 0a512 512 0 1 0 1024 0 512 512 0 1 0-1024 0Z" fill="#F5F5F5" p-id="1348"></path><path d="M744.96 581.12c-17.92 0-33.28-15.36-33.28-33.28 0-17.92 15.36-33.28 33.28-33.28 17.92 0 33.28 15.36 33.28 33.28 0 17.92-15.36 33.28-33.28 33.28m-171.52 0c-17.92 0-33.28-15.36-33.28-33.28 0-17.92 15.36-33.28 33.28-33.28 17.92 0 33.28 15.36 33.28 33.28 0 17.92-15.36 33.28-33.28 33.28M896 624.64c0-110.08-104.96-199.68-235.52-199.68s-235.52 89.6-235.52 199.68 104.96 199.68 235.52 199.68c35.84 0 69.12-7.68 99.84-17.92 30.72 15.36 64 33.28 66.56 33.28 0 0-5.12-30.72-12.8-64 51.2-33.28 81.92-89.6 81.92-151.04M299.52 399.36c-20.48 0-33.28-15.36-33.28-33.28S281.6 332.8 299.52 332.8 332.8 348.16 332.8 366.08c0 17.92-15.36 33.28-33.28 33.28M509.44 332.8c17.92 0 33.28 15.36 33.28 33.28 0 17.92-15.36 33.28-33.28 33.28-17.92 0-33.28-15.36-33.28-33.28S491.52 332.8 509.44 332.8m140.8 76.8h25.6c-20.48-115.2-135.68-204.8-273.92-204.8C250.88 204.8 128 312.32 128 445.44c0 74.24 38.4 140.8 97.28 184.32-5.12 38.4-15.36 87.04-15.36 87.04 2.56 0 53.76-30.72 87.04-48.64 30.72 10.24 66.56 17.92 102.4 17.92h10.24c-5.12-15.36-7.68-33.28-7.68-51.2 5.12-125.44 112.64-225.28 248.32-225.28" fill="#0BC74C" p-id="1349"></path></svg>