<?xml version="1.0" standalone="no"?><!DOCTYPE svg PUBLIC "-//W3C//DTD SVG 1.1//EN" "http://www.w3.org/Graphics/SVG/1.1/DTD/svg11.dtd"><svg t="1587707139168" class="icon" viewBox="0 0 1129 1024" version="1.1" xmlns="http://www.w3.org/2000/svg" p-id="4928" xmlns:xlink="http://www.w3.org/1999/xlink" width="220.5078125" height="200"><defs><style type="text/css"></style></defs><path d="M409.6 628.524138c-3.531034 3.531034-10.593103 3.531034-17.655172 3.531034-14.124138 0-24.717241-7.062069-31.779311-21.186206l-3.531034-3.531035-102.4-225.986207v-7.062069c0-10.593103 7.062069-17.655172 17.655172-17.655172 3.531034 0 7.062069 0 10.593104 3.531034l120.055172 84.744828c10.593103 3.531034 21.186207 10.593103 31.77931 10.593103 7.062069 0 14.124138 0 21.186207-3.531034l572.027586-254.234483C925.131034 77.682759 755.641379 0 564.965517 0 254.234483 0 0 211.862069 0 473.158621c0 141.241379 77.682759 268.358621 194.206897 356.634482 10.593103 7.062069 14.124138 17.655172 14.124137 31.779311 0 3.531034 0 7.062069-3.531034 10.593103-10.593103 35.310345-24.717241 91.806897-24.717241 95.337931 0 3.531034-3.531034 10.593103-3.531035 14.124138 0 10.593103 7.062069 17.655172 17.655173 17.655173 3.531034 0 7.062069 0 10.593103-3.531035l123.586207-70.62069c10.593103-3.531034 21.186207-10.593103 31.77931-10.593103 3.531034 0 10.593103 0 17.655173 3.531035 56.496552 17.655172 120.055172 24.717241 183.613793 24.717241 310.731034 0 564.965517-211.862069 564.965517-473.158621 0-77.682759-24.717241-151.834483-63.558621-218.924138L416.662069 628.524138h-7.062069z" fill="#09BB07" p-id="4929"></path></svg>
