<?xml version="1.0" encoding="utf-8"?>
<!-- Generator: Adobe Illustrator 21.0.0, SVG Export Plug-In . SVG Version: 6.00 Build 0)  -->
<svg version="1.1" id="图层_1" xmlns="http://www.w3.org/2000/svg" xmlns:xlink="http://www.w3.org/1999/xlink" x="0px" y="0px"
	 viewBox="0 0 18 21" style="enable-background:new 0 0 18 21;" xml:space="preserve">
<style type="text/css">
	.st0{fill:#2C97FF;}
	.st1{fill:#FFFFFF;}
	.st2{fill:#99D3FF;}
</style>
<title>文档</title>
<desc>Created with Sketch.</desc>
<g id="上传课程-文档图片" transform="translate(-133.000000, -220.000000)">
	<g id="Group-14-Copy-2" transform="translate(55.000000, 50.000000)">
		<g id="Group-17" transform="translate(30.000000, 170.000000)">
			<g id="文档" transform="translate(48.000000, 0.000000)">
				<path id="Fill-1" class="st0" d="M17.6,4.1V19c0,0.7-0.6,1.3-1.4,1.4H1.4C0.7,20.4,0,19.8,0,19V1.4C0,0.6,0.6,0,1.4,0h12.2
					L17.6,4.1z"/>
				<path id="Fill-5" class="st1" d="M12.2,14.8c-0.2,0-0.3-0.1-0.4-0.2L8.7,11l-3.1,3.6c-0.2,0.2-0.4,0.2-0.6,0.2
					c-0.2-0.1-0.3-0.3-0.3-0.6V8.1c0-0.3,0.2-0.6,0.5-0.6s0.5,0.3,0.5,0.6v4.6l2.6-3c0.1-0.1,0.2-0.2,0.4-0.2S9,9.6,9.1,9.7l2.5,3
					V8.1c0-0.3,0.2-0.6,0.5-0.6s0.5,0.3,0.5,0.6v6.1C12.6,14.4,12.5,14.7,12.2,14.8C12.3,14.8,12.2,14.8,12.2,14.8"/>
				<path id="Fill-4" class="st2" d="M17.6,4.1h-2.7c-0.7,0-1.4-0.6-1.4-1.4L13.6,0L17.6,4.1z"/>
			</g>
		</g>
	</g>
</g>
</svg>
