<?xml version="1.0" standalone="no"?><!DOCTYPE svg PUBLIC "-//W3C//DTD SVG 1.1//EN" "http://www.w3.org/Graphics/SVG/1.1/DTD/svg11.dtd"><svg t="1565581376287" class="icon" viewBox="0 0 1024 1024" version="1.1" xmlns="http://www.w3.org/2000/svg" p-id="7613" xmlns:xlink="http://www.w3.org/1999/xlink" width="48" height="48"><defs><style type="text/css"></style></defs><path d="M512 1024c283.306667 0 512-228.693333 512-512S795.306667 0 512 0 0 228.693333 0 512s228.693333 512 512 512z" fill="#7C9ECE" p-id="7614"></path><path d="M397.653333 510.293333l134.826667-126.293333 17.066667-15.36 10.24-8.533333 1.706666-1.706667 27.306667-25.6 52.906667 51.2-39.253334 35.84-23.893333 23.893333-129.706667 119.466667h-51.2v-52.906667z m-11.946666 73.386667h66.56c1.706667 0 3.413333 0 5.12-1.706667 1.706667 0 1.706667-1.706667 3.413333-1.706666l203.093333-187.733334c5.12-3.413333 5.12-10.24 0-15.36h-1.706666L597.333333 310.613333c-1.706667-3.413333-6.826667-3.413333-10.24-3.413333-1.706667 0-3.413333 1.706667-5.12 3.413333l-201.386666 187.733334s-1.706667 0-1.706667 1.706666c-1.706667 1.706667-3.413333 5.12-3.413333 6.826667v66.56c0 3.413333 1.706667 5.12 3.413333 6.826667 1.706667 1.706667 5.12 3.413333 6.826667 3.413333z m285.013333 42.666667H385.706667c-3.413333 0-5.12 1.706667-8.533334 3.413333 0 1.706667-1.706667 5.12-1.706666 8.533333 0 5.12 5.12 10.24 10.24 10.24h285.013333c3.413333 0 5.12-1.706667 8.533333-3.413333 1.706667-1.706667 3.413333-5.12 3.413334-8.533333 0-5.12-5.12-10.24-11.946667-10.24z m-97.28-52.906667c0 5.12 5.12 10.24 10.24 10.24h88.746667c3.413333 0 5.12-1.706667 8.533333-3.413333 1.706667-1.706667 3.413333-5.12 3.413333-6.826667 0-5.12-5.12-10.24-10.24-10.24h-88.746666c-3.413333 0-5.12 1.706667-8.533334 3.413333s-3.413333 5.12-3.413333 6.826667z" fill="#FFFFFF" p-id="7615"></path></svg>