<?xml version="1.0" encoding="UTF-8"?>
<svg width="36px" height="36px" viewBox="0 0 36 36" version="1.1" xmlns="http://www.w3.org/2000/svg" xmlns:xlink="http://www.w3.org/1999/xlink">
    <!-- Generator: Sketch 49.3 (51167) - http://www.bohemiancoding.com/sketch -->
    <title>作业</title>
    <desc>Created with Sketch.</desc>
    <defs></defs>
    <g id="8月2日上线" stroke="none" stroke-width="1" fill="none" fill-rule="evenodd">
        <g id="互动现场" transform="translate(-455.000000, -352.000000)">
            <g id="Group-2-Copy-2" transform="translate(433.000000, 340.000000)">
                <g id="作业" transform="translate(22.000000, 12.000000)">
                    <rect id="Rectangle-11" fill="#FFBE00" x="0" y="0" width="36" height="36" rx="1"></rect>
                    <path d="M10.2791687,19.9496344 L18.1928024,12.5846422 L19.2040069,11.6481036 L19.7765591,11.1221613 L19.8942732,11.0227744 L21.4593362,9.56287712 L24.5252543,12.5978218 L22.2672832,14.7143458 L20.9215297,15.9623226 L13.3262592,23.0158766 L10.2952206,23.0158766 L10.2952206,19.9496344 L10.2791687,19.9496344 Z M9.63973343,24.1644665 L13.5109902,24.1644665 C13.6126189,24.1644665 13.7142477,24.1487687 13.7971827,24.0990589 C13.8640657,24.0650797 13.9309487,24.0336513 13.9817798,23.9839743 L25.870874,12.9770877 C26.1384061,12.7311879 26.1384061,12.3361914 25.9030113,12.0745611 L25.8522136,12.0248513 L22.0157026,8.18931782 C21.8606343,8.04022123 21.6411911,7.97481365 21.4271989,8.00879289 C21.3014253,8.03230692 21.1864534,8.089931 21.0900415,8.1735873 L9.25174497,19.1777922 C9.21699924,19.2117714 9.20094731,19.2274692 9.18486194,19.2588976 C9.06718125,19.371464 9.00029821,19.5257605 9.00029821,19.6853223 L9.00029821,23.5575495 C9.00029821,23.7380417 9.06718125,23.8845874 9.18486194,23.9996721 C9.30270984,24.0833611 9.45513627,24.1644665 9.63973343,24.1644665 Z M26.3417974,26.7231458 L9.63973343,26.7231458 C9.46847943,26.7231458 9.30270984,26.7912678 9.1822535,26.9115851 C9.0618306,27.0319677 8.99494757,27.1942113 9.00029821,27.3615239 C9.00029821,27.706974 9.28662447,28 9.63973343,28 L26.3444059,28 C26.5156933,28 26.6815632,27.9319107 26.8018858,27.8115935 C26.9223421,27.6912435 26.9892252,27.529 26.9838745,27.3615239 C26.9810989,27.0188862 26.6949064,26.7231458 26.3417974,26.7231458 Z M20.5684542,23.6229571 C20.5684542,23.949995 20.8546467,24.2481555 21.2078894,24.2481555 L26.3604912,24.2481555 C26.5317452,24.2508699 26.6949064,24.1880132 26.8153293,24.0703123 C26.9356519,23.9525459 27.0025349,23.7930168 26.9999265,23.625508 C26.9999265,23.2984701 26.7135668,23.0028605 26.3604912,23.0028605 L21.2078894,23.0028605 C21.0366354,23.0001788 20.8734742,23.0630355 20.7530179,23.180671 C20.6299866,23.2959192 20.5631035,23.4580319 20.5684542,23.6229571 Z" id="Fill-1" fill="#FFFFFF"></path>
                </g>
            </g>
        </g>
    </g>
</svg>