<?xml version="1.0" standalone="no"?><!DOCTYPE svg PUBLIC "-//W3C//DTD SVG 1.1//EN" "http://www.w3.org/Graphics/SVG/1.1/DTD/svg11.dtd"><svg t="1561379650503" class="icon" viewBox="0 0 1024 1024" version="1.1" xmlns="http://www.w3.org/2000/svg" p-id="3348" xmlns:xlink="http://www.w3.org/1999/xlink" width="128" height="128"><defs><style type="text/css"></style></defs><path d="M931.352381 199.92381V926.47619c0 34.133333-29.257143 63.390476-68.266667 68.266667H141.409524C107.27619 994.742857 73.142857 965.485714 73.142857 926.47619V68.266667C73.142857 29.257143 102.4 0 141.409524 0h594.895238l195.047619 199.92381z" fill="#2C97FF" p-id="3349"></path><path d="M668.038095 721.67619c-9.752381 0-14.628571-4.87619-19.504762-9.75238L497.371429 536.380952l-151.161905 175.542858c-9.752381 9.752381-19.504762 9.752381-29.257143 9.75238-9.752381-4.87619-14.628571-14.628571-14.628571-29.257142V394.971429c0-14.628571 9.752381-29.257143 24.380952-29.257143s24.380952 14.628571 24.380952 29.257143v224.304761l126.780953-146.285714c4.87619-4.87619 9.752381-9.752381 19.504762-9.752381s14.628571 4.87619 19.504761 9.752381l121.904762 146.285714V394.971429c0-14.628571 9.752381-29.257143 24.380953-29.257143s24.380952 14.628571 24.380952 29.257143v297.447619c0 9.752381-4.87619 24.380952-14.628571 29.257142h-4.876191" fill="#FFFFFF" p-id="3350"></path><path d="M931.352381 199.92381h-131.657143c-34.133333 0-68.266667-29.257143-68.266667-68.266667V0l199.92381 199.92381z" fill="#99D3FF" p-id="3351"></path></svg>